<svg width="97" height="44" viewBox="0 0 97 44" fill="none" xmlns="http://www.w3.org/2000/svg">
<rect width="97" height="44" rx="10" fill="#0FA968"/>
<path d="M31 22H17" stroke="white" stroke-width="2" stroke-linecap="round" stroke-linejoin="round"/>
<path d="M24 15L17 22L24 29" stroke="white" stroke-width="2" stroke-linecap="round" stroke-linejoin="round"/>
<path d="M46.7773 22.0742H43.1543L43.1348 20.2871H46.2988C46.8327 20.2871 47.2852 20.209 47.6562 20.0527C48.0339 19.89 48.3203 19.6589 48.5156 19.3594C48.7109 19.0534 48.8086 18.6855 48.8086 18.2559C48.8086 17.7806 48.7174 17.3932 48.5352 17.0938C48.3529 16.7943 48.0729 16.5762 47.6953 16.4395C47.3242 16.3027 46.849 16.2344 46.2695 16.2344H43.8965V28.5H41.4453V14.2812H46.2695C47.0508 14.2812 47.7474 14.3561 48.3594 14.5059C48.9779 14.6556 49.502 14.89 49.9316 15.209C50.3678 15.5215 50.6966 15.9186 50.918 16.4004C51.1458 16.8822 51.2598 17.4551 51.2598 18.1191C51.2598 18.7051 51.1198 19.2422 50.8398 19.7305C50.5599 20.2122 50.1465 20.6061 49.5996 20.9121C49.0527 21.2181 48.3724 21.4004 47.5586 21.459L46.7773 22.0742ZM46.6699 28.5H42.3828L43.4863 26.5566H46.6699C47.2233 26.5566 47.6855 26.4655 48.0566 26.2832C48.4277 26.0944 48.7044 25.8372 48.8867 25.5117C49.0755 25.1797 49.1699 24.7923 49.1699 24.3496C49.1699 23.8874 49.0885 23.487 48.9258 23.1484C48.763 22.8034 48.5059 22.5397 48.1543 22.3574C47.8027 22.1686 47.3438 22.0742 46.7773 22.0742H44.0234L44.043 20.2871H47.627L48.1836 20.9609C48.9648 20.987 49.6061 21.1595 50.1074 21.4785C50.6152 21.7975 50.9928 22.2109 51.2402 22.7188C51.4876 23.2266 51.6113 23.7734 51.6113 24.3594C51.6113 25.2643 51.4128 26.0228 51.0156 26.6348C50.625 27.2467 50.0618 27.7122 49.3262 28.0312C48.5905 28.3438 47.7051 28.5 46.6699 28.5ZM59.8047 26.3809V21.3418C59.8047 20.9642 59.7363 20.6387 59.5996 20.3652C59.4629 20.0918 59.2546 19.8802 58.9746 19.7305C58.7012 19.5807 58.3561 19.5059 57.9395 19.5059C57.5553 19.5059 57.2233 19.571 56.9434 19.7012C56.6634 19.8314 56.4453 20.0072 56.2891 20.2285C56.1328 20.4499 56.0547 20.7005 56.0547 20.9805H53.7109C53.7109 20.5638 53.8118 20.1602 54.0137 19.7695C54.2155 19.3789 54.5085 19.0306 54.8926 18.7246C55.2767 18.4186 55.7357 18.1777 56.2695 18.002C56.8034 17.8262 57.4023 17.7383 58.0664 17.7383C58.8607 17.7383 59.5638 17.8717 60.1758 18.1387C60.7943 18.4056 61.2793 18.8092 61.6309 19.3496C61.9889 19.8835 62.168 20.554 62.168 21.3613V26.0586C62.168 26.5404 62.2005 26.9733 62.2656 27.3574C62.3372 27.735 62.4382 28.0638 62.5684 28.3438V28.5H60.1562C60.0456 28.2461 59.9577 27.9238 59.8926 27.5332C59.834 27.1361 59.8047 26.752 59.8047 26.3809ZM60.1465 22.0742L60.166 23.5293H58.4766C58.0404 23.5293 57.6562 23.5716 57.3242 23.6562C56.9922 23.7344 56.7155 23.8516 56.4941 24.0078C56.2728 24.1641 56.1068 24.3529 55.9961 24.5742C55.8854 24.7956 55.8301 25.0462 55.8301 25.3262C55.8301 25.6061 55.8952 25.8633 56.0254 26.0977C56.1556 26.3255 56.3444 26.5046 56.5918 26.6348C56.8457 26.765 57.1517 26.8301 57.5098 26.8301C57.9915 26.8301 58.4115 26.7324 58.7695 26.5371C59.1341 26.3353 59.4206 26.0911 59.6289 25.8047C59.8372 25.5117 59.9479 25.235 59.9609 24.9746L60.7227 26.0195C60.6445 26.2865 60.5111 26.5729 60.3223 26.8789C60.1335 27.1849 59.8861 27.4779 59.5801 27.7578C59.2806 28.0312 58.9193 28.2559 58.4961 28.4316C58.0794 28.6074 57.5977 28.6953 57.0508 28.6953C56.3607 28.6953 55.7454 28.5586 55.2051 28.2852C54.6647 28.0052 54.2415 27.6309 53.9355 27.1621C53.6296 26.6868 53.4766 26.1497 53.4766 25.5508C53.4766 24.9909 53.5807 24.4961 53.7891 24.0664C54.0039 23.6302 54.3164 23.2656 54.7266 22.9727C55.1432 22.6797 55.651 22.4583 56.25 22.3086C56.849 22.1523 57.5326 22.0742 58.3008 22.0742H60.1465ZM68.9453 26.8203C69.3294 26.8203 69.6745 26.7454 69.9805 26.5957C70.293 26.4395 70.5436 26.2246 70.7324 25.9512C70.9277 25.6777 71.0352 25.362 71.0547 25.0039H73.2715C73.2585 25.6875 73.0566 26.3092 72.666 26.8691C72.2754 27.429 71.7578 27.875 71.1133 28.207C70.4688 28.5326 69.7559 28.6953 68.9746 28.6953C68.1673 28.6953 67.4642 28.5586 66.8652 28.2852C66.2663 28.0052 65.7682 27.6211 65.3711 27.1328C64.974 26.6445 64.6745 26.0814 64.4727 25.4434C64.2773 24.8053 64.1797 24.1217 64.1797 23.3926V23.0508C64.1797 22.3216 64.2773 21.638 64.4727 21C64.6745 20.3555 64.974 19.7891 65.3711 19.3008C65.7682 18.8125 66.2663 18.4316 66.8652 18.1582C67.4642 17.8783 68.1641 17.7383 68.9648 17.7383C69.8112 17.7383 70.5534 17.9076 71.1914 18.2461C71.8294 18.5781 72.3307 19.0436 72.6953 19.6426C73.0664 20.235 73.2585 20.9251 73.2715 21.7129H71.0547C71.0352 21.3223 70.9375 20.9707 70.7617 20.6582C70.5924 20.3392 70.3516 20.0853 70.0391 19.8965C69.7331 19.7077 69.3652 19.6133 68.9355 19.6133C68.4603 19.6133 68.0664 19.7109 67.7539 19.9062C67.4414 20.0951 67.1973 20.3555 67.0215 20.6875C66.8457 21.013 66.7188 21.3809 66.6406 21.791C66.569 22.1947 66.5332 22.6146 66.5332 23.0508V23.3926C66.5332 23.8288 66.569 24.252 66.6406 24.6621C66.7122 25.0723 66.8359 25.4401 67.0117 25.7656C67.194 26.0846 67.4414 26.3418 67.7539 26.5371C68.0664 26.7259 68.4635 26.8203 68.9453 26.8203ZM77.4512 13.5V28.5H75.0879V13.5H77.4512ZM84.0137 17.9336L79.4141 23.0312L76.8945 25.6094L76.2793 23.6172L78.1836 21.2637L81.1719 17.9336H84.0137ZM81.6797 28.5L78.252 23.5391L79.7363 21.8887L84.4043 28.5H81.6797Z" fill="white"/>
</svg>
