<svg width="120" height="120" viewBox="0 0 120 120" fill="none" xmlns="http://www.w3.org/2000/svg">
<g clip-path="url(#clip0_410_3688)">
<path d="M11.5246 108.475L21.274 118.225L31.0225 108.475L40.7719 118.225L50.5213 108.475L60.2707 118.225L70.0201 108.475L79.7686 118.225V1.77539H1.77515V118.225L11.5246 108.475Z" fill="#DDF5FF"/>
<path d="M74.5062 1.77539V105.624L70.0201 101.138L60.2707 110.888L50.5213 101.138L40.7719 110.888L31.0225 101.138L21.274 110.888L11.5246 101.138L1.77515 110.888V118.225L11.5246 108.475L21.274 118.225L31.0225 108.475L40.7719 118.225L50.5213 108.475L60.2707 118.225L70.0201 108.475L79.7686 118.225V1.77539H74.5062Z" fill="#C1E9F4"/>
<path d="M112.452 100.709H52.9914C49.8035 100.709 47.219 98.1248 47.219 94.9369V59.1454C47.219 55.9576 49.8035 53.373 52.9914 53.373H112.452C115.64 53.373 118.224 55.9576 118.224 59.1454V94.9369C118.224 98.1257 115.64 100.709 112.452 100.709Z" fill="#6DC54A"/>
<path d="M113.991 53.582C114.126 54.0728 114.201 54.5882 114.201 55.1219V94.3192C114.201 95.6265 113.141 96.6867 111.834 96.6867H48.9676C48.4348 96.6867 47.9185 96.6126 47.4277 96.4771C48.1025 98.9179 50.3373 100.71 52.9914 100.71H112.452C115.64 100.71 118.224 98.1259 118.224 94.9372V59.1457C118.224 56.4907 116.432 54.2559 113.991 53.582Z" fill="#5DB33A"/>
<path d="M67.5675 73H56.0218C54.4279 73 53.1361 71.7082 53.1361 70.1143V62.1767C53.1361 60.5818 54.4279 59.29 56.0218 59.29H67.5675C69.1624 59.29 70.4542 60.5828 70.4542 62.1767V70.1143C70.4542 71.7082 69.1624 73 67.5675 73Z" fill="#FFCD50"/>
<path d="M67.5675 59.29H64.4913C66.0853 59.29 67.3771 60.5818 67.3771 62.1758V70.1134C67.3771 71.7073 66.0853 73 64.4913 73H67.5675C69.1623 73 70.4541 71.7073 70.4541 70.1134V62.1758C70.4541 60.5818 69.1623 59.29 67.5675 59.29Z" fill="#FFBC27"/>
<path d="M111.874 90.0297C111.874 92.4211 109.936 94.3592 107.545 94.3592C105.153 94.3592 103.215 92.4211 103.215 90.0297C103.215 87.6384 105.153 85.7002 107.545 85.7002C109.936 85.7002 111.874 87.6384 111.874 90.0297Z" fill="#FF7C48"/>
<path d="M105.379 90.0297C105.379 92.4211 103.441 94.3592 101.05 94.3592C98.6595 94.3592 96.7205 92.4211 96.7205 90.0297C96.7205 87.6384 98.6595 85.7002 101.05 85.7002C103.441 85.7002 105.379 87.6384 105.379 90.0297Z" fill="#FFCD50"/>
<path d="M1.7752 71.6077C2.75573 71.6077 3.5504 70.813 3.5504 69.8325V3.5504H77.9953V15.3753C77.9953 16.3549 78.79 17.1505 79.7705 17.1505C80.7501 17.1505 81.5457 16.3549 81.5457 15.3753V1.7752C81.5457 0.794675 80.7501 0 79.7705 0H1.7752C0.794675 0 0 0.794675 0 1.7752V69.8325C0 70.813 0.794675 71.6077 1.7752 71.6077Z" fill="#27272A"/>
<path d="M28.9379 15.2662C28.9379 12.4601 26.6555 10.1777 23.8494 10.1777H18.879C17.2476 10.1777 15.92 11.5052 15.92 13.1358V26.3907C15.92 28.0222 17.2476 29.3488 18.879 29.3488H23.8494C26.6546 29.3488 28.9379 27.0664 28.9379 24.2603V23.0775C28.9379 21.8122 28.4737 20.6541 27.7083 19.7633C28.4737 18.8725 28.9379 17.7143 28.9379 16.45V15.2662ZM23.8494 13.7281C24.6972 13.7281 25.3875 14.4184 25.3875 15.2662V16.45C25.3875 17.2978 24.6972 17.9881 23.8494 17.9881H19.4704V13.7281H23.8494ZM25.3875 24.2603C25.3875 25.109 24.6972 25.7984 23.8494 25.7984H19.4704V21.5385H23.8494C24.6972 21.5385 25.3875 22.2288 25.3875 23.0765V24.2603Z" fill="#27272A"/>
<path d="M50.7127 27.5736C50.7127 26.594 49.918 25.7984 48.9375 25.7984H41.2452V11.9529C41.2452 10.9724 40.4506 10.1777 39.47 10.1777C38.4895 10.1777 37.6948 10.9724 37.6948 11.9529V27.5736C37.6948 28.5541 38.4895 29.3488 39.47 29.3488H48.9375C49.918 29.3488 50.7127 28.5541 50.7127 27.5736Z" fill="#27272A"/>
<path d="M54.3812 10.1777C53.4015 10.1777 52.606 10.9724 52.606 11.9529V27.5736C52.606 28.5541 53.4015 29.3488 54.3812 29.3488H63.8486C64.8291 29.3488 65.6238 28.5541 65.6238 27.5736C65.6238 26.594 64.8291 25.7984 63.8486 25.7984H56.1564V11.9529C56.1564 10.9724 55.3617 10.1777 54.3812 10.1777Z" fill="#27272A"/>
<path d="M35.092 27.5736V11.9529C35.092 10.9724 34.2974 10.1777 33.3168 10.1777C32.3363 10.1777 31.5416 10.9724 31.5416 11.9529V27.5736C31.5416 28.5541 32.3363 29.3488 33.3168 29.3488C34.2974 29.3488 35.092 28.5541 35.092 27.5736Z" fill="#27272A"/>
<path d="M15.0916 44.3797C15.0916 45.3593 15.8862 46.1549 16.8668 46.1549H46.6899C47.6696 46.1549 48.4642 45.3593 48.4642 44.3797C48.4642 43.3992 47.6696 42.6045 46.6899 42.6045H16.8668C15.8862 42.6045 15.0916 43.3992 15.0916 44.3797Z" fill="#27272A"/>
<path d="M52.0145 44.3797C52.0145 45.3593 52.8092 46.1549 53.7897 46.1549H64.6771C65.6577 46.1549 66.4523 45.3593 66.4523 44.3797C66.4523 43.3992 65.6577 42.6045 64.6771 42.6045H53.7897C52.8092 42.6045 52.0145 43.3992 52.0145 44.3797Z" fill="#27272A"/>
<path d="M112.452 51.598H103.427C102.446 51.598 101.652 52.3926 101.652 53.3732C101.652 54.3528 102.446 55.1484 103.427 55.1484H112.452C114.656 55.1484 116.449 56.941 116.449 59.1455V94.937C116.449 97.1416 114.656 98.9351 112.452 98.9351H52.9914C50.7878 98.9351 48.9943 97.1416 48.9943 94.937V59.1455C48.9943 56.941 50.7878 55.1484 52.9914 55.1484H95.1284C96.108 55.1484 96.9027 54.3528 96.9027 53.3732C96.9027 52.3926 96.108 51.598 95.1284 51.598H81.5457V23.6873C81.5457 22.7068 80.7501 21.9121 79.7705 21.9121C78.79 21.9121 77.9953 22.7068 77.9953 23.6873V51.598H52.9914C49.647 51.598 46.8043 53.7852 45.8174 56.8046H16.8667C15.8862 56.8046 15.0915 57.5992 15.0915 58.5798C15.0915 59.5603 15.8862 60.3549 16.8667 60.3549H45.4439V71.0062H16.8667C15.8862 71.0062 15.0915 71.8008 15.0915 72.7814C15.0915 73.7619 15.8862 74.5566 16.8667 74.5566H45.4439V94.937C45.4439 99.099 48.8295 102.486 52.9914 102.486H77.9953V113.94L71.2735 107.221C70.5805 106.528 69.4571 106.528 68.7632 107.221L60.2689 115.715L51.7756 107.221C51.4424 106.887 50.991 106.701 50.5204 106.701C50.0499 106.701 49.5976 106.887 49.2652 107.221L40.771 115.715L32.2777 107.221C31.9445 106.887 31.4931 106.701 31.0216 106.701C30.551 106.701 30.0997 106.887 29.7664 107.221L21.2731 115.715L12.7789 107.221C12.4456 106.887 11.9943 106.701 11.5237 106.701C11.0531 106.701 10.6018 106.887 10.2685 107.221L3.54949 113.94V78.1216C3.54949 77.1411 2.75481 76.3464 1.77428 76.3464C0.793759 76.3464 0 77.1411 0 78.1216V118.224C0 118.943 0.432127 119.59 1.09588 119.865C1.31561 119.956 1.54632 119.999 1.77428 119.999C2.23662 119.999 2.69072 119.819 3.03038 119.479L11.5246 110.986L20.0179 119.479C20.3512 119.813 20.8025 119.999 21.2731 119.999C21.7446 119.999 22.196 119.813 22.5283 119.479L31.0225 110.986L39.5168 119.479C39.8491 119.813 40.3004 119.999 40.7719 119.999C41.2425 119.999 41.6939 119.813 42.0271 119.479L50.5213 110.986L59.0147 119.479C59.3479 119.813 59.7993 119.999 60.2698 119.999C60.7404 119.999 61.1927 119.813 61.525 119.479L70.0193 110.986L78.5153 119.48C79.0225 119.988 79.787 120.14 80.4498 119.865C81.1136 119.59 81.5457 118.943 81.5457 118.225V102.485H112.452C116.614 102.485 120 99.099 120 94.937V59.1455C120 54.9836 116.614 51.598 112.452 51.598Z" fill="#27272A"/>
<path d="M56.0227 74.776H67.5674C70.1382 74.776 72.2293 72.6849 72.2293 70.1141V62.1766C72.2293 59.6067 70.1382 57.5156 67.5674 57.5156H56.0227C53.4519 57.5156 51.3608 59.6067 51.3608 62.1766V70.1141C51.3608 72.6849 53.4519 74.776 56.0227 74.776ZM54.9112 62.1766C54.9112 61.5641 55.4093 61.066 56.0227 61.066H67.5674C68.1808 61.066 68.6789 61.5641 68.6789 62.1766V70.1141C68.6789 70.7275 68.1808 71.2256 67.5674 71.2256H56.0227C55.4093 71.2256 54.9112 70.7275 54.9112 70.1141V62.1766Z" fill="#27272A"/>
<path d="M104.296 84.8652C103.355 84.271 102.243 83.9268 101.05 83.9268C97.6836 83.9268 94.9453 86.6651 94.9453 90.0315C94.9453 93.3969 97.6836 96.1362 101.05 96.1362C102.243 96.1362 103.355 95.791 104.296 95.1978C105.261 95.8029 106.384 96.1362 107.545 96.1362C110.911 96.1362 113.649 93.3969 113.649 90.0315C113.649 86.6651 110.911 83.9268 107.545 83.9268C106.384 83.9258 105.261 84.2591 104.296 84.8652ZM98.4957 90.0306C98.4957 88.6225 99.6419 87.4762 101.05 87.4762C102.459 87.4762 103.604 88.6225 103.604 90.0306C103.604 91.4395 102.459 92.5849 101.05 92.5849C99.6419 92.5849 98.4957 91.4395 98.4957 90.0306ZM110.099 90.0306C110.099 91.4395 108.953 92.5849 107.545 92.5849C107.241 92.5849 106.944 92.5281 106.665 92.4256C106.98 91.6895 107.155 90.8802 107.155 90.0306C107.155 89.181 106.98 88.3716 106.665 87.6355C106.944 87.533 107.241 87.4762 107.545 87.4762C108.953 87.4762 110.099 88.6225 110.099 90.0306Z" fill="#27272A"/>
<path d="M64.147 79.784C64.147 78.8035 63.3524 78.0088 62.3718 78.0088H53.7128C52.7323 78.0088 51.9376 78.8035 51.9376 79.784C51.9376 80.7645 52.7323 81.5592 53.7128 81.5592H62.3718C63.3533 81.5592 64.147 80.7645 64.147 79.784Z" fill="#27272A"/>
<path d="M53.7138 87.9668C52.7333 87.9668 51.9386 88.7615 51.9386 89.742C51.9386 90.7225 52.7333 91.5172 53.7138 91.5172H59.4862C60.4667 91.5172 61.2614 90.7225 61.2614 89.742C61.2614 88.7615 60.4667 87.9668 59.4862 87.9668H53.7138Z" fill="#27272A"/>
<path d="M64.537 91.5172H70.3094C71.2899 91.5172 72.0846 90.7225 72.0846 89.742C72.0846 88.7615 71.2899 87.9668 70.3094 87.9668H64.537C63.5565 87.9668 62.7618 88.7615 62.7618 89.742C62.7618 90.7225 63.5565 91.5172 64.537 91.5172Z" fill="#27272A"/>
<path d="M75.3614 91.5172H81.1347C82.1143 91.5172 82.909 90.7225 82.909 89.742C82.909 88.7615 82.1143 87.9668 81.1347 87.9668H75.3614C74.3809 87.9668 73.5862 88.7615 73.5862 89.742C73.5862 90.7225 74.3809 91.5172 75.3614 91.5172Z" fill="#27272A"/>
<path d="M79.3009 79.784C79.3009 78.8035 78.5062 78.0088 77.5257 78.0088H68.8666C67.8861 78.0088 67.0914 78.8035 67.0914 79.784C67.0914 80.7645 67.8861 81.5592 68.8666 81.5592H77.5257C78.5071 81.5592 79.3009 80.7645 79.3009 79.784Z" fill="#27272A"/>
<path d="M92.6793 81.5592C93.6599 81.5592 94.4545 80.7645 94.4545 79.784C94.4545 78.8035 93.6599 78.0088 92.6793 78.0088H84.0203C83.0398 78.0088 82.2451 78.8035 82.2451 79.784C82.2451 80.7645 83.0398 81.5592 84.0203 81.5592H92.6793Z" fill="#27272A"/>
<path d="M99.1741 81.5592H107.833C108.814 81.5592 109.608 80.7645 109.608 79.784C109.608 78.8035 108.814 78.0088 107.833 78.0088H99.1741C98.1936 78.0088 97.3989 78.8035 97.3989 79.784C97.3989 80.7645 98.1936 81.5592 99.1741 81.5592Z" fill="#27272A"/>
</g>
<defs>
<clipPath id="clip0_410_3688">
<rect width="120" height="120" fill="white"/>
</clipPath>
</defs>
</svg>
