<svg width="200" height="200" viewBox="0 0 200 200" fill="none" xmlns="http://www.w3.org/2000/svg">
<path d="M173.104 20.8984C178.498 20.8984 182.869 25.2695 182.869 30.6641C182.869 36.0586 178.498 40.4297 173.104 40.4297C167.709 40.4297 163.338 36.0586 163.338 30.6641C163.338 25.2695 167.709 20.8984 173.104 20.8984Z" fill="#70F2A4"/>
<path d="M54.9395 143.945C61.9509 143.945 67.6348 138.261 67.6348 131.25C67.6348 124.239 61.9509 118.555 54.9395 118.555C47.928 118.555 42.2441 124.239 42.2441 131.25C42.2441 138.261 47.928 143.945 54.9395 143.945Z" fill="#70F2A4"/>
<path d="M169.103 157.735C146.953 148.239 148.037 148.724 147.518 148.469C143.463 146.527 138.994 142.371 135.115 138.109L135.092 138.133L128.604 157.664L128.459 157.617H102.662L102.612 157.633L96.6312 139.695C92.9242 143.34 88.5648 146.324 83.7328 148.476C83.3558 148.654 84.3738 148.21 62.1508 157.734C51.2383 162.416 44.1976 173.132 44.1976 184.961H187.053C187.053 173.113 179.994 162.402 169.103 157.735Z" fill="#1E9EF4"/>
<path d="M129.385 157.664L119.769 184.961H111.487L101.83 157.633L101.884 157.617H129.231L129.385 157.664Z" fill="#E9EFFF"/>
<path d="M147.518 148.469L150.783 165.43L137.111 168.359L143.947 173.242L124.275 184.961H119.533L128.604 157.664L135.092 138.133L135.115 138.109C138.994 142.371 143.463 146.527 147.518 148.469Z" fill="#196FBD"/>
<path d="M102.611 157.633L111.721 184.961H106.697L87.3066 173.242L94.1426 168.359L80.4707 165.43L83.7324 148.477C88.5644 146.324 92.9238 143.34 96.6309 139.695L102.611 157.633Z" fill="#196FBD"/>
<path d="M187.053 184.961H124.275L143.947 173.242L137.111 168.359L150.783 165.43L147.518 148.469C148.037 148.723 146.953 148.239 169.104 157.734C179.994 162.402 187.053 173.113 187.053 184.961Z" fill="#72C6FF"/>
<path d="M106.697 184.961H44.1973C44.1973 173.132 51.2379 162.416 62.1504 157.734C84.3734 148.21 83.3555 148.654 83.7324 148.477L80.4707 165.43L94.1426 168.359L87.3066 173.242L106.697 184.961Z" fill="#72C6FF"/>
<path d="M135.115 138.11L135.092 138.133L128.604 157.664L128.459 157.617H102.662L102.612 157.633L96.6312 139.695C100.491 135.914 103.647 131.414 105.905 126.395V126.39C112.08 128.116 118.792 127.799 124.932 125.301C125.123 125.574 129.51 131.957 135.115 138.11Z" fill="#EAAF7A"/>
<path d="M182.416 71.375C183.041 72.8672 182.334 74.5821 180.842 75.2071C179.35 75.8321 177.635 75.125 177.01 73.6328C176.385 72.1407 177.092 70.4258 178.584 69.8008C180.076 69.1758 181.791 69.8828 182.416 71.375Z" fill="#FC90CE"/>
<path d="M165.064 120.356C165.686 121.847 164.982 123.567 163.49 124.187C161.998 124.812 160.279 124.105 159.658 122.613C159.033 121.121 159.74 119.406 161.232 118.781C162.725 118.16 164.439 118.863 165.064 120.356Z" fill="#FC90CE"/>
<path d="M149.439 20.7462C150.064 22.2384 149.357 23.9532 147.865 24.5782C146.373 25.2032 144.658 24.4962 144.033 23.004C143.412 21.5118 144.115 19.793 145.607 19.172C147.1 18.547 148.818 19.2501 149.439 20.7462Z" fill="#FC90CE"/>
<path d="M79.3535 24.8047C79.9785 26.2969 79.2715 28.0117 77.7793 28.6367C76.2871 29.2617 74.5722 28.5547 73.9472 27.0625C73.3222 25.5703 74.0293 23.8555 75.5215 23.2305C77.0136 22.6055 78.7285 23.3125 79.3535 24.8047Z" fill="#FC90CE"/>
<path d="M63.502 96.918C64.127 98.4102 63.4199 100.125 61.9278 100.75C60.4356 101.371 58.7168 100.668 58.0957 99.1759C57.4707 97.6837 58.1738 95.9649 59.6699 95.3438C61.1621 94.7188 62.877 95.422 63.502 96.918Z" fill="#FC90CE"/>
<path d="M30.2988 155.512C30.9238 157.004 30.2168 158.719 28.7246 159.343C27.2324 159.964 25.5137 159.261 24.8926 157.769C24.2676 156.277 24.9707 154.558 26.4668 153.938C27.959 153.313 29.6738 154.02 30.2988 155.512Z" fill="#FC90CE"/>
<path d="M61.7754 100.977V110.742C61.7754 116.133 59.5879 121.016 56.0527 124.551C52.5176 128.086 47.6348 130.273 42.2441 130.273C31.459 130.273 22.7129 121.527 22.7129 110.742V100.977C22.7129 111.762 31.459 120.508 42.2441 120.508C47.6348 120.508 52.5176 118.32 56.0527 114.785C59.5879 111.25 61.7754 106.367 61.7754 100.977Z" fill="#57606F"/>
<path d="M20.7598 171.289C25.0762 171.289 28.5723 174.785 28.5723 179.102C28.5723 183.418 25.0762 186.914 20.7598 186.914C16.4434 186.914 12.9473 183.418 12.9473 179.102C12.9473 174.785 16.4434 171.289 20.7598 171.289Z" fill="#57606F"/>
<path d="M61.7754 85.3516H53.9629C52.8844 85.3516 52.0098 86.2262 52.0098 87.3047C52.0098 88.3832 52.8844 89.2578 53.9629 89.2578H59.8223V110.742C59.8223 115.435 57.993 119.848 54.6715 123.17C51.35 126.491 46.9364 128.32 42.2438 128.32C32.5512 128.32 24.6656 120.435 24.6656 110.742V89.2578H32.4781C33.5567 89.2578 34.4313 88.3832 34.4313 87.3047C34.4313 86.2262 33.5567 85.3516 32.4781 85.3516H22.7125C21.634 85.3516 20.7594 86.2262 20.7594 87.3047V110.742C20.7594 121.93 29.3567 131.143 40.2906 132.134V154.688C40.2906 156.303 38.9766 157.617 37.361 157.617C36.5778 157.617 35.8418 157.312 35.2887 156.759C34.7356 156.207 34.4313 155.471 34.4313 154.688V149.805C34.4313 145.497 30.9266 141.992 26.6188 141.992C24.5301 141.992 22.568 142.807 21.0996 144.28C19.6207 145.754 18.8063 147.716 18.8063 149.805V171.289C18.8063 172.368 19.6809 173.242 20.7594 173.242C21.8379 173.242 22.7125 172.368 22.7125 171.289V149.805C22.7125 148.762 23.1188 147.783 23.8617 147.043C24.5969 146.305 25.5762 145.898 26.6188 145.898C28.7727 145.898 30.525 147.651 30.525 149.805V154.688C30.525 156.514 31.236 158.231 32.5266 159.521C33.8172 160.812 35.5344 161.523 37.361 161.523C41.1305 161.523 44.1969 158.457 44.1969 154.688V132.136C49.1957 131.688 53.8387 129.527 57.4336 125.932C61.493 121.873 63.7281 116.478 63.7281 110.742V87.3047C63.7285 86.2262 62.8539 85.3516 61.7754 85.3516Z" fill="#D3DCFB"/>
<path d="M113.822 127.863C96.9848 127.863 83.3266 113.686 82.1969 95.9102C93.1485 94.8355 101.112 90.041 108.347 84.0578C116.452 77.3535 123.322 68.973 126.088 59.0195C129.932 68.3828 136.494 76.3359 144.791 81.9062C145.357 84.5117 145.529 90.7461 145.529 93.5117C145.529 112.396 131.407 127.863 113.822 127.863Z" fill="#FFD5AB"/>
<path d="M126.088 59.0195C120.03 80.823 99.877 96.5148 76.4238 96.1445C73.3105 90.2539 71.541 83.543 71.541 76.4141C71.541 53.0547 90.4785 34.1133 113.842 34.1133C137.201 34.1133 156.143 53.0547 156.143 76.4141C156.143 80.1094 155.666 83.6953 154.775 87.1133C142.08 82.2031 131.486 72.168 126.088 59.0195Z" fill="#313A52"/>
<path d="M126.229 88.8008C128.385 88.8008 130.135 90.5508 130.135 92.707C130.135 94.8672 128.385 96.6133 126.229 96.6133C124.072 96.6133 122.322 94.8672 122.322 92.707C122.322 90.5508 124.072 88.8008 126.229 88.8008Z" fill="#473737"/>
<path d="M104.557 88.8008C106.713 88.8008 108.463 90.5508 108.463 92.707C108.463 94.8672 106.713 96.6133 104.557 96.6133C102.4 96.6133 100.65 94.8672 100.65 92.707C100.65 91.3633 101.33 90.1797 102.362 89.4766C102.366 89.4727 102.37 89.4727 102.373 89.4687C102.529 89.3828 102.682 89.293 102.834 89.2031C102.842 89.1953 102.854 89.1914 102.866 89.1875C103.377 88.9375 103.951 88.8008 104.557 88.8008Z" fill="#473737"/>
<path d="M113.861 114.19C111.361 114.19 108.861 113.238 106.957 111.334C106.194 110.572 106.194 109.335 106.957 108.572C107.719 107.81 108.957 107.81 109.719 108.572C112.004 110.856 115.719 110.856 118.004 108.572C118.767 107.81 120.003 107.81 120.766 108.572C121.529 109.335 121.529 110.572 120.766 111.335C118.863 113.238 116.361 114.19 113.861 114.19Z" fill="#473737"/>
<path d="M82.7398 87.9618C81.9062 87.9618 81.1344 87.4239 80.8746 86.586C79.8652 83.3263 79.3535 79.9044 79.3535 76.4146C79.3535 57.3978 94.825 41.9263 113.842 41.9263C116.027 41.9263 118.222 42.1353 120.366 42.5474C121.426 42.7509 122.12 43.7747 121.916 44.8341C121.712 45.8938 120.686 46.5868 119.629 46.3837C117.727 46.0185 115.78 45.8329 113.842 45.8329C96.9789 45.8329 83.2598 59.552 83.2598 76.4149C83.2598 79.5126 83.7129 82.5462 84.6059 85.431C84.925 86.4614 84.348 87.5552 83.318 87.8743C83.1254 87.9333 82.9309 87.9618 82.7398 87.9618Z" fill="#57606F"/>
<path d="M145.808 72.3207C144.887 72.3207 144.068 71.6668 143.891 70.7289C142.451 63.0847 138.172 56.3304 131.843 51.7097C130.971 51.0738 130.78 49.8519 131.417 48.9808C132.053 48.1093 133.275 47.9191 134.146 48.555C141.28 53.7632 146.104 61.3812 147.729 70.005C147.929 71.0652 147.232 72.0863 146.172 72.2863C146.05 72.3097 145.929 72.3207 145.808 72.3207Z" fill="#57606F"/>
<path d="M81.1419 39.9113C81.1419 49.2301 76.4234 57.4477 69.246 62.3047L72.6979 71.9984L62.3051 65.6688C55.6379 67.7852 48.2047 67.2677 41.7508 63.9396C42.1409 62.4771 42.3487 60.942 42.3487 59.3561C42.3487 50.424 35.7521 43.0322 27.1664 41.7859C26.0879 25.9546 38.6423 12.8906 54.1212 12.8906C69.0451 12.8906 81.1419 24.9874 81.1419 39.9113Z" fill="#07CC66"/>
<path d="M71.0092 34.845C71.9414 34.845 72.698 35.6015 72.698 36.5338C72.698 37.466 71.9414 38.2226 71.0092 38.2226C70.077 38.2226 69.3204 37.466 69.3204 36.5338C69.3204 35.6015 70.077 34.845 71.0092 34.845Z" fill="white"/>
<path d="M55.81 33.1561H40.6109C39.6782 33.1561 38.9221 32.4001 38.9221 31.4674C38.9221 30.5346 39.6782 29.7786 40.6109 29.7786H55.81C56.7426 29.7786 57.4988 30.5346 57.4988 31.4674C57.4988 32.4001 56.7426 33.1561 55.81 33.1561Z" fill="white"/>
<path d="M65.9428 38.2226H40.6109C39.6782 38.2226 38.9221 37.4665 38.9221 36.5338C38.9221 35.601 39.6782 34.845 40.6109 34.845H65.9428C66.8753 34.845 67.6316 35.601 67.6316 36.5338C67.6316 37.4665 66.8753 38.2226 65.9428 38.2226Z" fill="white"/>
<path d="M74.3868 43.289H40.6109C39.6782 43.289 38.9221 42.5329 38.9221 41.6002C38.9221 40.6674 39.6782 39.9114 40.6109 39.9114H74.3868C75.3193 39.9114 76.0755 40.6674 76.0755 41.6002C76.0755 42.5329 75.3193 43.289 74.3868 43.289Z" fill="white"/>
<path d="M24.7597 76.9449C22.8851 76.9449 21.0781 76.6528 19.3809 76.114L12.0703 80.2735L14.8213 73.9034C10.1044 70.7116 7.00391 65.3125 7.00391 59.1871C7.00391 49.3805 14.9529 41.4312 24.7599 41.4312C34.5522 41.4312 42.5175 49.3665 42.5175 59.1871C42.5175 68.9772 34.5841 76.9449 24.7597 76.9449Z" fill="#5CBEFF"/>
<path d="M34.0246 65.0744H15.4479C14.5152 65.0744 13.7591 64.3181 13.7591 63.3856C13.7591 62.453 14.5152 61.6968 15.4479 61.6968H34.0246C34.9572 61.6968 35.7134 62.453 35.7134 63.3856C35.7134 64.3181 34.9572 65.0744 34.0246 65.0744Z" fill="white"/>
<path d="M34.0246 60.008H15.4479C14.5152 60.008 13.7591 59.2517 13.7591 58.3192C13.7591 57.3866 14.5152 56.6304 15.4479 56.6304H34.0246C34.9572 56.6304 35.7134 57.3866 35.7134 58.3192C35.7134 59.2517 34.9572 60.008 34.0246 60.008Z" fill="white"/>
<path d="M34.0246 54.9415H15.4479C14.5152 54.9415 13.7591 54.1853 13.7591 53.2528C13.7591 52.3202 14.5152 51.564 15.4479 51.564H34.0246C34.9572 51.564 35.7134 52.3202 35.7134 53.2528C35.7134 54.1853 34.9572 54.9415 34.0246 54.9415Z" fill="white"/>
</svg>
