<svg width="120" height="120" viewBox="0 0 120 120" fill="none" xmlns="http://www.w3.org/2000/svg">
<g clip-path="url(#clip0_410_3851)">
<path d="M107.695 92.7601C109.104 92.7601 110.449 92.4837 111.677 91.9824L117.878 116.785C118.063 117.524 117.503 118.241 116.741 118.241H111.877C111.339 118.241 110.87 117.875 110.74 117.353L104.592 92.7601H107.695Z" fill="#B2CAEC"/>
<path d="M39.4222 37.7679L30.4986 46.6914C30.0409 47.1492 29.2991 47.1492 28.8414 46.6914L21.9482 39.7983L16.8004 44.9463L27.1841 55.33C28.5571 56.7029 30.7829 56.7029 32.1559 55.33L42.9127 44.5732C44.2856 43.2002 44.2856 40.9744 42.9127 39.6014L41.0794 37.7681C40.6217 37.3104 39.8797 37.3104 39.4222 37.7679Z" fill="#FFDFCF"/>
<path d="M82.8947 31.6275C84.6302 28.5619 85.5806 24.9936 85.4725 21.1951C85.1707 10.573 76.4742 1.96332 65.8498 1.76152C54.4844 1.54543 45.2273 10.8025 45.4434 22.168C45.6452 32.7924 54.2549 41.4888 64.877 41.7907C68.6755 41.8987 72.244 40.9483 75.3094 39.2128C75.886 38.8863 76.5778 38.8312 77.2064 39.0408L83.2575 41.0578C84.1737 41.3632 85.045 40.4915 84.7399 39.5754L82.7229 33.5243C82.5131 32.8957 82.5682 32.2041 82.8947 31.6275Z" fill="#FE646F"/>
<path d="M9.03841 81.9649V47.7832C9.03841 46.4887 7.98912 45.4395 6.69468 45.4395H4.10204C2.80759 45.4395 1.7583 46.4887 1.7583 47.7832V82.2141C1.7583 88.039 6.48023 92.7609 12.3051 92.7609H27.2392V85.4808H12.554C10.6125 85.4805 9.03841 83.9067 9.03841 81.9649Z" fill="#0055A3"/>
<path d="M110.962 81.9644V39.206C110.962 36.6171 113.06 34.5186 115.649 34.5186H117.07C117.717 34.5186 118.242 35.0433 118.242 35.6904V82.2136C118.242 88.0385 113.52 92.7604 107.695 92.7604H92.7609V85.4803H107.446C109.388 85.48 110.962 83.9062 110.962 81.9644Z" fill="#0055A3"/>
<path d="M26.39 16.3182C25.6967 12.1864 22.1035 9.03809 17.7747 9.03809C12.9499 9.03809 9.03839 12.9493 9.03839 17.7744V22.1426C9.03839 23.4345 9.31894 24.6607 9.82214 25.7642L16.3185 27.2388L26.39 16.3182Z" fill="#FFD15B"/>
<path d="M41.7994 109.426V103.681L37.0392 96.6807L30.879 103.681V118.241H44.8371C45.6337 118.241 46.2794 117.596 46.2794 116.799V115.05C46.2797 112.307 44.3651 110.011 41.7994 109.426Z" fill="#0055A3"/>
<path d="M27.2389 74.5605V45.3706C27.2389 41.3879 24.0102 38.1592 20.0275 38.1592H16.2498C12.2671 38.1592 9.03839 41.3879 9.03839 45.3706V74.5602H27.2389V74.5605Z" fill="#FE646F"/>
<path d="M22.5514 38.6133V68.701C22.5514 69.3481 22.0267 69.8729 21.3796 69.8729H9.03839V74.5603H27.2389V45.3705C27.2389 42.2758 25.2894 39.6363 22.5514 38.6133Z" fill="#FD4755"/>
<path d="M17.4906 16.3184C16.8435 16.3184 16.3188 16.8431 16.3188 17.4902V17.6862C16.3188 21.217 14.0594 24.3518 10.7097 25.4683L9.82239 25.7641C11.1986 28.7816 14.2417 30.8788 17.7749 30.8788H20.8862C23.9929 30.8788 26.5112 28.3605 26.5112 25.2539V17.7743C26.5112 17.2781 26.4697 16.7918 26.3903 16.3184H17.4906Z" fill="#FFDFCF"/>
<path d="M78.2006 109.426V103.681L82.9608 96.6807L89.121 103.681V118.241H75.1629C74.3663 118.241 73.7206 117.596 73.7206 116.799V115.05C73.7206 112.307 75.6349 110.011 78.2006 109.426Z" fill="#0055A3"/>
<path d="M9.03839 74.5596V78.5282C9.03839 82.3675 12.1509 85.48 15.9901 85.48H30.879V103.68H41.7994V74.5596H9.03839Z" fill="#8AC9FE"/>
<path d="M110.962 74.5596H78.2007V103.68H89.1211V85.48H102.759C107.289 85.48 110.962 81.8073 110.962 77.2769V74.5596H110.962Z" fill="#8AC9FE"/>
<path d="M103.75 38.1592H99.9726C95.9899 38.1592 92.7611 41.3879 92.7611 45.3706V56.3597H89.1211V63.6398H92.7611V96.4008H109.79C110.437 96.4008 110.962 95.876 110.962 95.2289V45.3706C110.962 41.3879 107.733 38.1592 103.75 38.1592Z" fill="#EAF6FF"/>
<path d="M81.8407 59.875V63.6395H89.1208V56.3594H85.3563C83.4148 56.3594 81.8407 57.9334 81.8407 59.875Z" fill="#FFE5C2"/>
<path d="M27.239 63.6396H92.7609V74.5601H27.239V63.6396Z" fill="#FFD15B"/>
<path d="M34.5193 118.241H27.8249C27.5012 118.241 27.239 117.979 27.239 117.655V74.5596H34.5191V118.241H34.5193Z" fill="#FFD15B"/>
<path d="M85.4808 118.241H92.175C92.4986 118.241 92.7609 117.979 92.7609 117.655V74.5596H85.4808V118.241Z" fill="#FFD15B"/>
<path d="M16.3187 85.4797H12.554C10.6124 85.4797 9.03839 83.9057 9.03839 81.9641V52.7188H16.3185L16.3187 85.4797Z" fill="#FFDFCF"/>
<path d="M12.3051 92.7601C10.8961 92.7601 9.55171 92.4837 8.32289 91.9824L2.1223 116.785C1.93738 117.524 2.49683 118.241 3.25925 118.241H8.12344C8.66109 118.241 9.12984 117.875 9.26038 117.353L15.4087 92.7603H12.3051V92.7601Z" fill="#B2CAEC"/>
<path d="M75.2086 18.1385H70.2722C69.6251 18.1385 69.1004 17.6137 69.1004 16.9666V12.0303C69.1004 11.3832 68.5756 10.8584 67.9285 10.8584H62.9921C62.345 10.8584 61.8203 11.3832 61.8203 12.0303V16.9666C61.8203 17.6137 61.2955 18.1385 60.6484 18.1385H55.7118C55.0647 18.1385 54.5399 18.6633 54.5399 19.3104V24.2468C54.5399 24.8939 55.0647 25.4186 55.7118 25.4186H60.6484C61.2955 25.4186 61.8203 25.9434 61.8203 26.5905V31.5269C61.8203 32.174 62.345 32.6987 62.9921 32.6987H67.9285C68.5756 32.6987 69.1004 32.174 69.1004 31.5269V26.5905C69.1004 25.9434 69.6251 25.4186 70.2722 25.4186H75.2086C75.8557 25.4186 76.3805 24.8939 76.3805 24.2468V19.3104C76.3805 18.6633 75.856 18.1385 75.2086 18.1385Z" fill="white"/>
<path d="M99.2858 16.696L93.4891 19.5942V25.2536C93.4891 28.3603 96.0074 30.8786 99.114 30.8786H102.225C105.571 30.8786 108.483 28.9957 109.95 26.2268L100.639 16.9153C100.282 16.5589 99.737 16.4705 99.2858 16.696Z" fill="#FFE5C2"/>
<path d="M110.962 17.7744C110.962 12.9495 107.05 9.03809 102.225 9.03809C97.4059 9.03809 93.4891 12.9444 93.4891 17.7744V19.5945L99.2858 16.6962C99.737 16.4708 100.282 16.5591 100.639 16.9159L109.95 26.2273C110.596 25.009 110.962 23.6192 110.962 22.1429V17.7744Z" fill="#0055A3"/>
<path d="M101.338 81.8403H92.7611V70.9199H103.682V79.4966C103.682 80.791 102.632 81.8403 101.338 81.8403Z" fill="white"/>
<path d="M82.7226 33.5246C82.5131 32.896 82.5682 32.2044 82.8947 31.6276C84.6302 28.5622 85.5806 24.9936 85.4725 21.1951C85.2944 14.9336 82.1995 9.37123 77.5121 5.81836C79.9863 9.08272 81.4861 13.1191 81.5688 17.4806C81.7849 28.846 72.5279 38.1031 61.1624 37.887C56.8009 37.804 52.7645 36.3043 49.5002 33.8302C53.0531 38.5177 58.6152 41.6128 64.877 41.7907C68.6755 41.8988 72.244 40.9484 75.3094 39.2128C75.886 38.8864 76.5778 38.8313 77.2064 39.0408L83.2575 41.0578C84.1737 41.3632 85.0451 40.4916 84.7399 39.5754L82.7226 33.5246Z" fill="#FD4755"/>
<path d="M26.39 16.3186C25.9309 13.5813 24.1989 11.2758 21.8235 10.0312V21.2702L26.39 16.3186Z" fill="#FEB237"/>
<path d="M16.3188 27.2386L17.2846 26.1914H11.7047L16.3188 27.2386Z" fill="#FFD15B"/>
<path d="M26.39 16.3184H21.8235V25.2539C21.8235 25.7709 21.403 26.1913 20.886 26.1913H10.0314C11.4913 28.9776 14.4109 30.8788 17.7747 30.8788H20.886C23.9926 30.8788 26.5109 28.3605 26.5109 25.2539V17.7743C26.5109 17.2781 26.4695 16.7918 26.39 16.3184Z" fill="#FFCEBF"/>
<path d="M106.274 63.6396V90.5413C106.274 91.1884 105.749 91.7132 105.102 91.7132H92.7611V96.4006H109.79C110.437 96.4006 110.962 95.8759 110.962 95.2288V63.6396H106.274Z" fill="#C4E2FF"/>
<path d="M81.8407 59.875V63.6395H89.1208V56.3594H85.3563C83.4148 56.3594 81.8407 57.9334 81.8407 59.875Z" fill="#FFE5C2"/>
<path d="M88.0737 63.6396V68.7007C88.0737 69.3478 87.5489 69.8726 86.9018 69.8726H27.239V74.5601H92.7609V63.6396H88.0737Z" fill="#FEB237"/>
<path d="M102.225 26.1913H93.5669C94.0131 28.8516 96.3269 30.8787 99.114 30.8787H102.225C105.571 30.8787 108.483 28.9958 109.95 26.2269L106.255 22.5322C106.059 24.5825 104.327 26.1913 102.225 26.1913Z" fill="#FED2A4"/>
<path d="M106.274 10.0312V22.1427C106.274 22.2742 106.268 22.4043 106.255 22.5327L109.95 26.2274C110.596 25.0091 110.962 23.6193 110.962 22.143V17.7745C110.962 14.4108 109.061 11.4912 106.274 10.0312Z" fill="#004281"/>
<path d="M118.242 53.6455C119.213 53.6455 120 52.8585 120 51.8877V35.6904C120 34.0749 118.686 32.7607 117.07 32.7607H115.649C112.402 32.7607 109.708 35.1748 109.267 38.3027C107.744 37.1117 105.829 36.4008 103.75 36.4008H99.9726C95.0268 36.4008 91.0033 40.4243 91.0033 45.37V54.6013H85.3563C82.4484 54.6013 80.0829 56.9668 80.0829 59.8747V61.8814H28.9967V58.0771C29.2198 58.1057 29.4441 58.12 29.6682 58.12C31.0229 58.12 32.3726 57.598 33.3987 56.5722L44.1558 45.8154C46.2117 43.7592 46.2117 40.4137 44.1558 38.3576L42.3223 36.5243C41.7689 35.971 41.0332 35.6663 40.2509 35.6663C39.4683 35.6663 38.7326 35.971 38.1792 36.5243L29.6698 45.0335L28.9327 44.2964C28.4007 39.855 24.61 36.4006 20.0275 36.4006H16.2498C11.8584 36.4006 8.19396 39.573 7.42802 43.7465C7.19013 43.7034 6.94498 43.6809 6.69467 43.6809H4.10203C1.84056 43.6809 0.000488281 45.521 0.000488281 47.7824V82.2133C0.000488281 86.8078 2.53172 90.8221 6.2728 92.9352L0.41697 116.359C0.196659 117.24 0.390955 118.156 0.949936 118.872C1.50892 119.588 2.35079 119.999 3.25922 119.999H8.12341C9.47036 119.999 10.6392 119.086 10.9654 117.78L16.7809 94.5184H25.4811V118.241C25.4811 119.212 26.2681 119.999 27.2389 119.999H44.8371C46.6017 119.999 48.0372 118.564 48.0372 116.799V115.05C48.0372 112.005 46.2525 109.343 43.5572 108.162V90.3159C43.5572 89.3451 42.7702 88.5581 41.7994 88.5581C40.8286 88.5581 40.0416 89.3451 40.0416 90.3159V101.923H36.2771V76.3177H40.0416V82.1128C40.0416 83.0836 40.8286 83.8706 41.7994 83.8706C42.7702 83.8706 43.5572 83.0836 43.5572 82.1128V76.3177H76.4428V108.162C73.7476 109.343 71.9628 112.005 71.9628 115.05V116.799C71.9628 118.564 73.3983 119.999 75.1629 119.999H92.7611C93.7319 119.999 94.5189 119.212 94.5189 118.241V98.1582H104.129L109.035 117.784C109.364 119.089 110.532 120 111.876 120H116.742C117.65 120 118.492 119.589 119.051 118.873C119.61 118.157 119.805 117.24 119.584 116.358L113.728 92.9411C117.55 90.79 120 86.7079 120 82.2138V60.0908C120 59.12 119.213 58.333 118.242 58.333C117.271 58.333 116.484 59.12 116.484 60.0908V82.2136C116.484 85.1343 115.036 87.8111 112.719 89.4276V39.206C112.719 37.5905 114.033 36.2763 115.649 36.2763H116.484V51.8877C116.484 52.8585 117.271 53.6455 118.242 53.6455ZM103.682 58.1169C104.652 58.1169 105.439 57.3299 105.439 56.3591V45.4387C105.439 44.4679 104.652 43.6809 103.682 43.6809C102.711 43.6809 101.924 44.4679 101.924 45.4387V54.6013H94.5189V45.37C94.5189 42.3628 96.9653 39.9164 99.9726 39.9164H103.75C106.757 39.9164 109.204 42.3628 109.204 45.37V61.8817H90.8786V58.1172L103.682 58.1169ZM94.5189 72.6774H101.924V79.4963C101.924 79.8192 101.661 80.0822 101.338 80.0822H94.5189V72.6774ZM83.5985 59.8747C83.5985 58.9054 84.3869 58.1169 85.3563 58.1169H87.363V61.8814H83.5985V59.8747ZM91.0033 65.3973V72.8021H28.9967V65.3973H91.0033ZM10.7962 54.4769H14.5607V83.7222H12.554C11.5846 83.7222 10.7962 82.9338 10.7962 81.9644V54.4769ZM18.0766 76.3177H25.4814V83.7225H18.0766V76.3177ZM29.6701 48.7919C30.4527 48.7919 31.1886 48.4872 31.7415 47.9339L40.2509 39.4247L41.6698 40.8436C42.3551 41.5289 42.3551 42.6443 41.6698 43.3296L30.913 54.0864C30.3976 54.6015 29.6382 54.7358 28.997 54.4689V48.7143C29.2149 48.7654 29.4404 48.7919 29.6701 48.7919ZM10.7962 45.37C10.7962 42.3628 13.2426 39.9164 16.2498 39.9164H20.0275C23.0347 39.9164 25.4811 42.3628 25.4811 45.37V72.8018H18.0766L18.077 45.4387C18.077 44.4679 17.29 43.6809 16.3192 43.6809C15.3484 43.6809 14.5614 44.4679 14.5614 45.4387V50.961H10.7962V45.37ZM7.66591 116.483H4.00968L9.57699 94.2135C10.4547 94.413 11.3678 94.5184 12.3051 94.5184H13.1575L7.66591 116.483ZM12.3051 91.0026C7.45873 91.0026 3.51609 87.06 3.51609 82.2136V47.7827C3.51609 47.4597 3.77906 47.1967 4.10203 47.1967H6.69467C7.01763 47.1967 7.2806 47.4597 7.2806 47.7827V81.9647C7.2806 84.8725 9.64614 87.2381 12.554 87.2381H25.4811V91.0026H12.3051ZM40.0416 105.439V109.426C40.0416 110.246 40.6088 110.957 41.4082 111.139C43.2415 111.558 44.5216 113.166 44.5216 115.05V116.483H36.2768V105.439H40.0416ZM32.7615 116.483H28.9967V76.3177H32.7612V116.483H32.7615ZM83.723 76.3177V101.923H79.9585V76.3177H83.723ZM75.4784 115.05C75.4784 113.166 76.7586 111.558 78.5918 111.139C79.3913 110.956 79.9585 110.245 79.9585 109.425V105.438H83.723V116.483H75.4782V115.05H75.4784ZM91.0033 116.483H87.2386V76.3177H91.0031L91.0033 116.483ZM94.5189 83.5978H101.338C103.599 83.5978 105.439 81.7577 105.439 79.4963V70.9196C105.439 69.9488 104.652 69.1618 103.682 69.1618H94.5189V65.3973H109.204V94.6426H94.5189V83.5978ZM112.334 116.484L107.753 98.1582H109.79C110.343 98.1582 110.861 98.004 111.303 97.7361L115.992 116.484H112.334Z" fill="#27272A"/>
<path d="M17.7747 32.6367H20.886C24.9568 32.6367 28.2687 29.3248 28.2687 25.2539V17.7744C28.2687 11.9879 23.5611 7.28027 17.7747 7.28027C11.9882 7.28027 7.28058 11.9879 7.28058 17.7744V22.1426C7.28058 27.9291 11.9882 32.6367 17.7747 32.6367ZM20.886 29.1211H17.7747C15.6449 29.1211 13.735 28.162 12.4539 26.6531C15.7473 25.0643 17.9249 21.7807 18.0676 18.0758H24.7529V25.2537C24.7531 27.3862 23.0183 29.1211 20.886 29.1211ZM10.7962 17.7744C10.7962 13.9264 13.9267 10.7959 17.7747 10.7959C20.4643 10.7959 22.8031 12.3254 23.9677 14.5602H17.4894C15.8739 14.5602 14.5598 15.8743 14.5598 17.4898V17.6867C14.5598 20.1847 13.1296 22.422 10.9263 23.4865C10.8409 23.0515 10.7962 22.6022 10.7962 22.1426V17.7744Z" fill="#27272A"/>
<path d="M55.7118 27.1767H60.0625V31.5271C60.0625 33.1426 61.3766 34.4568 62.9921 34.4568H67.9285C69.544 34.4568 70.8582 33.1426 70.8582 31.5271V27.1767H75.2086C76.8242 27.1767 78.1383 25.8625 78.1383 24.247V19.3104C78.1383 17.6948 76.8242 16.3807 75.2086 16.3807H70.8582V12.0303C70.8582 10.4147 69.544 9.10059 67.9285 9.10059H62.9921C61.3766 9.10059 60.0625 10.4147 60.0625 12.0303V16.3807H55.7118C54.0962 16.3807 52.7821 17.6948 52.7821 19.3104V24.2467C52.7821 25.8623 54.0962 27.1767 55.7118 27.1767ZM56.2977 19.8963H60.6484C62.2639 19.8963 63.5781 18.5822 63.5781 16.9666V12.6162H67.3426V16.9666C67.3426 18.5822 68.6567 19.8963 70.2722 19.8963H74.6227V23.6608H70.2722C68.6567 23.6608 67.3426 24.9749 67.3426 26.5905V30.9409H63.5781V26.5905C63.5781 24.9749 62.2639 23.6608 60.6484 23.6608H56.2977V19.8963Z" fill="#27272A"/>
<path d="M50.0034 37.087C53.9718 41.0943 59.2361 43.3886 64.8268 43.5475C65.0356 43.5533 65.244 43.5564 65.4523 43.5564C69.2192 43.5564 72.9139 42.5884 76.1752 40.742C76.3111 40.6649 76.4843 40.6525 76.6502 40.708L82.7011 42.7248C83.7602 43.078 84.9091 42.8068 85.6992 42.0172C86.489 41.2274 86.76 40.0787 86.407 39.0191L84.39 32.9678C84.3347 32.8019 84.3471 32.6287 84.4242 32.4928C86.3725 29.051 87.3428 25.1269 87.2294 21.1444C87.0705 15.5536 84.776 10.2894 80.7689 6.32096C76.7623 2.35372 71.4757 0.110063 65.8831 0.00389211C61.869 -0.0715762 57.9261 0.951699 54.482 2.96544C53.6439 3.45551 53.3617 4.53223 53.8518 5.37011C54.3419 6.208 55.4188 6.49065 56.2565 6.00034C59.1423 4.31309 62.4484 3.45715 65.8161 3.51879C75.5756 3.70442 83.4379 11.4905 83.7152 21.2449C83.8104 24.5866 82.9976 27.8775 81.3649 30.7614C80.7984 31.7622 80.6855 32.9721 81.0551 34.0804L82.7013 39.0196L77.7619 37.3731C76.6535 37.0033 75.4435 37.1165 74.4432 37.683C71.5592 39.3156 68.2693 40.1308 64.9266 40.0335C55.1725 39.7562 47.3864 31.8939 47.2007 22.1344C47.1264 18.2175 48.273 14.4629 50.5169 11.2763C51.0759 10.4827 50.8856 9.3861 50.0917 8.82712C49.2977 8.26837 48.2013 8.45869 47.6423 9.25228C44.9653 13.0541 43.597 17.5318 43.6858 22.2012C43.792 27.7936 46.0359 33.0803 50.0034 37.087Z" fill="#27272A"/>
<path d="M99.114 32.6367H102.225C108.012 32.6367 112.719 27.9291 112.719 22.1426V17.7744C112.719 11.9879 108.012 7.28027 102.225 7.28027C96.4389 7.28027 91.7313 11.9879 91.7313 17.7744V25.2539C91.7313 29.3248 95.0432 32.6367 99.114 32.6367ZM102.225 29.1211H99.114C96.9817 29.1211 95.2469 27.3862 95.2469 25.2539V20.6811L99.6934 18.4571L107.701 26.4645C106.422 28.0814 104.443 29.1211 102.225 29.1211ZM102.225 10.7959C106.073 10.7959 109.204 13.9264 109.204 17.7744V22.1426C109.204 22.4154 109.188 22.6845 109.157 22.9493L101.881 15.6727C100.99 14.7812 99.6318 14.5599 98.4995 15.1234L95.3282 16.7096C95.8422 13.3653 98.7393 10.7959 102.225 10.7959Z" fill="#27272A"/>
</g>
<defs>
<clipPath id="clip0_410_3851">
<rect width="120" height="120" fill="white"/>
</clipPath>
</defs>
</svg>
