<svg width="111" height="110" viewBox="0 0 111 110" fill="none" xmlns="http://www.w3.org/2000/svg">
<path d="M54.6922 14.2788C31.3172 14.2788 12.3845 33.2115 12.3845 56.5865C12.3845 79.9615 31.3172 98.8942 54.6922 98.8942C78.0672 98.8942 96.9999 79.9615 96.9999 56.5865C96.9999 33.2115 78.0672 14.2788 54.6922 14.2788Z" fill="#6EE0EF"/>
<path d="M54.6923 86.202C71.0484 86.202 84.3077 72.9427 84.3077 56.5866C84.3077 40.2305 71.0484 26.9712 54.6923 26.9712C38.3362 26.9712 25.0769 40.2305 25.0769 56.5866C25.0769 72.9427 38.3362 86.202 54.6923 86.202Z" fill="#223CAB"/>
<path d="M95.9423 22.7403C100.031 22.7403 103.346 19.4255 103.346 15.3365C103.346 11.2474 100.031 7.93262 95.9423 7.93262C91.8533 7.93262 88.5385 11.2474 88.5385 15.3365C88.5385 19.4255 91.8533 22.7403 95.9423 22.7403Z" fill="#FF451B"/>
<path d="M22.9615 18.5096C20.6134 18.5096 18.7307 16.6269 18.7307 14.2789C18.7307 11.9308 20.6134 10.0481 22.9615 10.0481C25.3096 10.0481 27.1923 11.9308 27.1923 14.2789C27.1923 16.6269 25.3096 18.5096 22.9615 18.5096Z" fill="#FF451B"/>
<path d="M14.4999 101.01C12.173 101.01 10.2692 99.1058 10.2692 96.7789C10.2692 94.4519 12.173 92.5481 14.4999 92.5481C16.8269 92.5481 18.7307 94.4519 18.7307 96.7789C18.7307 99.1058 16.848 101.01 14.4999 101.01Z" fill="#FF451B"/>
<path d="M99.6442 87.2595C100.52 87.2595 101.231 86.5492 101.231 85.673C101.231 84.7967 100.52 84.0864 99.6442 84.0864C98.7679 84.0864 98.0576 84.7967 98.0576 85.673C98.0576 86.5492 98.7679 87.2595 99.6442 87.2595Z" fill="#899BA1"/>
<path d="M98.5865 36.4902C99.4628 36.4902 100.173 35.7799 100.173 34.9037C100.173 34.0275 99.4628 33.3171 98.5865 33.3171C97.7103 33.3171 97 34.0275 97 34.9037C97 35.7799 97.7103 36.4902 98.5865 36.4902Z" fill="#899BA1"/>
<path d="M83.7788 102.067C84.655 102.067 85.3653 101.357 85.3653 100.481C85.3653 99.6044 84.655 98.894 83.7788 98.894C82.9026 98.894 82.1923 99.6044 82.1923 100.481C82.1923 101.357 82.9026 102.067 83.7788 102.067Z" fill="#899BA1"/>
<path d="M77.4326 12.1633C78.3088 12.1633 79.0191 11.453 79.0191 10.5768C79.0191 9.70055 78.3088 8.99023 77.4326 8.99023C76.5564 8.99023 75.8461 9.70055 75.8461 10.5768C75.8461 11.453 76.5564 12.1633 77.4326 12.1633Z" fill="#899BA1"/>
<path d="M30.8942 99.9519C31.7704 99.9519 32.4807 99.2416 32.4807 98.3653C32.4807 97.4891 31.7704 96.7788 30.8942 96.7788C30.0179 96.7788 29.3076 97.4891 29.3076 98.3653C29.3076 99.2416 30.0179 99.9519 30.8942 99.9519Z" fill="#899BA1"/>
<path d="M9.74035 28.0288C10.6166 28.0288 11.3269 27.3185 11.3269 26.4423C11.3269 25.566 10.6166 24.8557 9.74035 24.8557C8.86413 24.8557 8.15381 25.566 8.15381 26.4423C8.15381 27.3185 8.86413 28.0288 9.74035 28.0288Z" fill="#899BA1"/>
<path d="M9.74035 79.8557C10.6166 79.8557 11.3269 79.1454 11.3269 78.2692C11.3269 77.3929 10.6166 76.6826 9.74035 76.6826C8.86413 76.6826 8.15381 77.3929 8.15381 78.2692C8.15381 79.1454 8.86413 79.8557 9.74035 79.8557Z" fill="#899BA1"/>
<path d="M40.4768 40.8903C40.0538 40.4672 39.398 40.4672 38.9749 40.8903C30.323 49.5422 30.323 63.6518 38.9749 72.3038C39.1864 72.5153 39.4614 72.6211 39.7153 72.6211C39.9691 72.6211 40.2653 72.5153 40.4557 72.3038C40.8788 71.8807 40.8788 71.2249 40.4557 70.8018C32.6288 62.9749 32.6288 50.2192 40.4557 42.3922C40.8999 41.9692 40.8999 41.2922 40.4768 40.8903Z" fill="#1B3587"/>
<path d="M70.3884 40.8903C69.9654 40.4672 69.3096 40.4672 68.8865 40.8903C68.4634 41.3134 68.4634 41.9692 68.8865 42.3922C72.6731 46.1788 74.7673 51.2345 74.7673 56.6076C74.7673 61.9807 72.6731 67.0153 68.8865 70.823C68.4634 71.2461 68.4634 71.9018 68.8865 72.3249C69.0981 72.5365 69.3731 72.6422 69.6269 72.6422C69.9019 72.6422 70.1769 72.5365 70.3673 72.3249C74.5558 68.1365 76.8827 62.5518 76.8827 56.6288C76.9038 50.6634 74.5981 45.0788 70.3884 40.8903Z" fill="#1B3587"/>
<path d="M60.4884 54.4712C60.3403 51.4462 57.8441 49.0347 54.798 48.9712C54.7557 48.9712 54.7134 48.9712 54.6711 48.9712C51.773 48.9712 49.3191 51.1077 48.9172 53.9635C48.8749 54.2385 48.8538 54.4923 48.8538 54.7673H50.9691C50.9691 54.5981 50.9903 54.4289 51.0115 54.2597C51.2653 52.4404 52.8307 51.0866 54.6711 51.0866H54.7557C56.6807 51.1289 58.2672 52.652 58.373 54.577C58.4365 55.5923 58.0768 56.5654 57.3576 57.327C56.6595 58.0673 55.7076 58.4693 54.6711 58.4693H53.6134V64.4981H55.7288V60.5C56.9345 60.2885 58.0134 59.6962 58.8807 58.7866C60.023 57.6231 60.573 56.0789 60.4884 54.4712Z" fill="white"/>
<path d="M53.6345 66.55H55.7499V68.6654H53.6345V66.55Z" fill="white"/>
</svg>
