<svg width="111" height="110" viewBox="0 0 111 110" fill="none" xmlns="http://www.w3.org/2000/svg">
<path d="M95.4569 11.4941C98.4239 11.4941 100.828 13.8982 100.828 16.8652C100.828 19.8322 98.4239 22.2363 95.4569 22.2363C92.4901 22.2363 90.0858 19.8322 90.0858 16.8652C90.0858 13.8982 92.4901 11.4941 95.4569 11.4941Z" fill="#66B49D"/>
<path d="M30.4667 79.1699C34.323 79.1699 37.4491 76.0438 37.4491 72.1875C37.4491 68.3312 34.323 65.2051 30.4667 65.2051C26.6104 65.2051 23.4843 68.3312 23.4843 72.1875C23.4843 76.0438 26.6104 79.1699 30.4667 79.1699Z" fill="#70F2A4"/>
<path d="M100.579 39.2564C100.923 40.0771 100.534 41.0202 99.713 41.364C98.8925 41.7077 97.9491 41.3189 97.6054 40.4982C97.2616 39.6775 97.6505 38.7343 98.4712 38.3905C99.2919 38.0468 100.235 38.4357 100.579 39.2564Z" fill="#ED3A4F"/>
<path d="M91.0354 66.1956C91.377 67.0161 90.9903 67.9617 90.1695 68.3031C89.3491 68.6468 88.4035 68.2579 88.0619 67.4372C87.7182 66.6167 88.107 65.6734 88.9278 65.3298C89.7485 64.9882 90.6916 65.3749 91.0354 66.1956Z" fill="#ED3A4F"/>
<path d="M82.4417 11.4105C82.7854 12.2312 82.3966 13.1743 81.5759 13.5181C80.7554 13.8618 79.812 13.473 79.4683 12.6523C79.1267 11.8316 79.5134 10.8863 80.3341 10.5446C81.1548 10.2009 82.1001 10.5876 82.4417 11.4105Z" fill="#ED3A4F"/>
<path d="M43.8944 13.6426C44.2381 14.4633 43.8493 15.4065 43.0286 15.7502C42.2079 16.094 41.2647 15.7051 40.9209 14.8844C40.5772 14.0637 40.9661 13.1205 41.7868 12.7768C42.6075 12.433 43.5506 12.8219 43.8944 13.6426Z" fill="#ED3A4F"/>
<path d="M35.176 53.305C35.5198 54.1257 35.1309 55.0689 34.3102 55.4126C33.4895 55.7542 32.5442 55.3675 32.2026 54.5468C31.8589 53.7261 32.2456 52.7808 33.0684 52.4392C33.8891 52.0954 34.8323 52.4821 35.176 53.305Z" fill="#ED3A4F"/>
<path d="M16.9143 85.5315C17.2581 86.352 16.8692 87.2954 16.0485 87.6389C15.2278 87.9805 14.2825 87.5938 13.9409 86.7731C13.5971 85.9526 13.9839 85.0071 14.8067 84.6657C15.6274 84.3219 16.5706 84.7108 16.9143 85.5315Z" fill="#ED3A4F"/>
<path d="M38.1399 59.2798C49.9532 59.2798 59.5298 49.7032 59.5298 37.8899C59.5298 26.0766 49.9532 16.5 38.1399 16.5C26.3266 16.5 16.75 26.0766 16.75 37.8899C16.75 49.7032 26.3266 59.2798 38.1399 59.2798Z" fill="#EE596B"/>
<path d="M41.5238 59.0136C40.421 59.1886 39.2919 59.2805 38.141 59.2805C26.3273 59.2805 16.75 49.7032 16.75 37.8896C16.75 26.0759 26.3273 16.5007 38.141 16.5007C39.2919 16.5007 40.421 16.5926 41.5238 16.7677C31.3185 18.3892 23.5179 27.2269 23.5179 37.8896C23.5179 48.5523 31.3185 57.3922 41.5238 59.0136Z" fill="#ED3A4F"/>
<path d="M46.4571 40.2175C47.9148 40.2175 49.0965 38.2539 49.0965 35.8315C49.0965 33.4092 47.9148 31.4456 46.4571 31.4456C44.9994 31.4456 43.8177 33.4092 43.8177 35.8315C43.8177 38.2539 44.9994 40.2175 46.4571 40.2175Z" fill="#21386B"/>
<path d="M29.8227 40.2175C31.2804 40.2175 32.4621 38.2539 32.4621 35.8315C32.4621 33.4092 31.2804 31.4456 29.8227 31.4456C28.365 31.4456 27.1833 33.4092 27.1833 35.8315C27.1833 38.2539 28.365 40.2175 29.8227 40.2175Z" fill="#21386B"/>
<path d="M45.1269 47.889C44.8073 47.889 44.4891 47.7579 44.2596 47.5007C42.7035 45.7569 40.4729 44.7568 38.1399 44.7568C35.8069 44.7568 33.5763 45.7569 32.0202 47.5007C31.5928 47.9796 30.8583 48.0212 30.3796 47.594C29.9007 47.1667 29.8589 46.4322 30.2863 45.9534C32.2829 43.716 35.1453 42.4329 38.1399 42.4329C41.1344 42.4329 43.997 43.716 45.9934 45.9534C46.4208 46.4322 46.3789 47.1667 45.9002 47.594C45.6786 47.7917 45.4022 47.889 45.1269 47.889Z" fill="#21386B"/>
<path d="M43.2873 93.3877C55.1006 93.3877 64.6772 83.8111 64.6772 71.9978C64.6772 60.1845 55.1006 50.6079 43.2873 50.6079C31.474 50.6079 21.8974 60.1845 21.8974 71.9978C21.8974 83.8111 31.474 93.3877 43.2873 93.3877Z" fill="#F9DA41"/>
<path d="M46.6712 93.1218C45.5684 93.2968 44.4393 93.3887 43.2884 93.3887C31.4747 93.3887 21.8974 83.8114 21.8974 71.9977C21.8974 60.1841 31.4747 50.6089 43.2884 50.6089C44.4393 50.6089 45.5684 50.7008 46.6712 50.8758C36.4659 52.4972 28.6653 61.335 28.6653 71.9977C28.6653 82.6604 36.4659 91.5004 46.6712 93.1218Z" fill="#EDC932"/>
<path d="M51.6358 65.1401C50.1751 65.1401 48.9867 67.1151 48.9867 69.5425C48.9867 71.97 50.1751 73.9449 51.6358 73.9449C53.0966 73.9449 54.285 71.97 54.285 69.5425C54.285 67.1151 53.0967 65.1401 51.6358 65.1401Z" fill="#21386B"/>
<path d="M34.9388 65.1401C33.4781 65.1401 32.2897 67.1151 32.2897 69.5425C32.2897 71.97 33.4781 73.9449 34.9388 73.9449C36.3995 73.9449 37.5879 71.97 37.5879 69.5425C37.5879 67.1151 36.3995 65.1401 34.9388 65.1401Z" fill="#21386B"/>
<path d="M52.8003 79.3988H33.7745C33.1328 79.3988 32.6126 78.8786 32.6126 78.2369C32.6126 77.5951 33.1328 77.075 33.7745 77.075H52.8003C53.442 77.075 53.9622 77.5951 53.9622 78.2369C53.9622 78.8786 53.442 79.3988 52.8003 79.3988Z" fill="#21386B"/>
<path d="M72.3601 72.3965C84.1734 72.3965 93.75 62.8199 93.75 51.0066C93.75 39.1933 84.1734 29.6167 72.3601 29.6167C60.5468 29.6167 50.9702 39.1933 50.9702 51.0066C50.9702 62.8199 60.5468 72.3965 72.3601 72.3965Z" fill="#78D0B1"/>
<path d="M75.7441 72.1308C74.6412 72.3058 73.5121 72.3977 72.3612 72.3977C60.5475 72.3977 50.9702 62.8204 50.9702 51.0068C50.9702 39.1931 60.5477 29.6179 72.3613 29.6179C73.5123 29.6179 74.6414 29.7098 75.7442 29.8849C65.5389 31.5062 57.7382 40.3441 57.7382 51.0068C57.7382 61.6695 65.5387 70.5094 75.7441 72.1308Z" fill="#66B49D"/>
<path d="M80.508 44.4287C79.0821 44.4287 77.922 46.3563 77.922 48.7257C77.922 51.0951 79.0821 53.0226 80.508 53.0226C81.9338 53.0226 83.0939 51.0951 83.0939 48.7257C83.0938 46.3563 81.9338 44.4287 80.508 44.4287Z" fill="#21386B"/>
<path d="M64.2124 44.4287C62.7866 44.4287 61.6265 46.3563 61.6265 48.7257C61.6265 51.0951 62.7866 53.0226 64.2124 53.0226C65.6383 53.0226 66.7984 51.0951 66.7984 48.7257C66.7984 46.3563 65.6383 44.4287 64.2124 44.4287Z" fill="#21386B"/>
<path d="M72.3601 64.0275C68.1929 64.0275 64.4538 61.5451 62.8341 57.7035C62.5849 57.1122 62.862 56.4308 63.4534 56.1814C64.045 55.9322 64.7261 56.2094 64.9755 56.8007C66.2311 59.7791 69.1297 61.7036 72.3601 61.7036C75.5905 61.7036 78.4891 59.7791 79.7449 56.8007C79.9941 56.2094 80.6757 55.9321 81.267 56.1814C81.8583 56.4306 82.1357 57.1122 81.8863 57.7035C80.2666 61.5451 76.5273 64.0275 72.3601 64.0275Z" fill="#21386B"/>
</svg>
