<svg width="16" height="16" viewBox="0 0 16 16" fill="none" xmlns="http://www.w3.org/2000/svg">
<g id="female 1" clip-path="url(#clip0_403_3029)">
<path id="Vector" fill-rule="evenodd" clip-rule="evenodd" d="M8.90324 11.3414V12.4511H9.64055C10.1394 12.4511 10.5439 12.8556 10.5439 13.3544C10.5439 13.8532 10.1394 14.2577 9.64055 14.2577H8.90324V15.0967C8.90324 15.5955 8.49874 16 7.99993 16C7.50112 16 7.09662 15.5955 7.09662 15.0967V14.2577H6.35902C5.86037 14.2577 5.45571 13.8531 5.45571 13.3544C5.45571 12.8557 5.86037 12.4511 6.35902 12.4511H7.09662V11.3414C4.35602 10.9045 2.29333 8.52294 2.29333 5.70659C2.29333 2.55975 4.85305 0 7.99993 0C11.1468 0 13.7066 2.55972 13.7066 5.70659C13.7066 8.523 11.6439 10.9045 8.90324 11.3414ZM4.09984 5.70659C4.09984 7.85675 5.8498 9.60653 7.9999 9.60653C10.1501 9.60653 11.9 7.85681 11.9 5.70659C11.9 3.55637 10.1501 1.80666 7.9999 1.80666C5.84983 1.80666 4.09984 3.55644 4.09984 5.70659Z" fill="#FC90CE"/>
</g>
<defs>
<clipPath id="clip0_403_3029">
<rect width="16" height="16" fill="white"/>
</clipPath>
</defs>
</svg>
