<svg width="32" height="33" viewBox="0 0 32 33" fill="none" xmlns="http://www.w3.org/2000/svg">
<path d="M31.1372 14.4185C31.1365 14.4177 31.1358 14.417 31.135 14.4163L18.0816 1.36328C17.5252 0.806641 16.7854 0.5 15.9986 0.5C15.2117 0.5 14.472 0.806396 13.9153 1.36304L0.868685 14.4094C0.864291 14.4138 0.859896 14.4185 0.855502 14.4229C-0.287077 15.572 -0.285123 17.4365 0.861117 18.5828C1.3848 19.1067 2.07645 19.4102 2.81595 19.4419C2.84598 19.4448 2.87625 19.4463 2.90677 19.4463H3.42703V29.0525C3.42703 30.9534 4.97367 32.5 6.87503 32.5H11.982C12.4995 32.5 12.9195 32.0803 12.9195 31.5625V24.0312C12.9195 23.1638 13.625 22.4583 14.4925 22.4583H17.5047C18.3721 22.4583 19.0777 23.1638 19.0777 24.0312V31.5625C19.0777 32.0803 19.4973 32.5 20.0152 32.5H25.1221C27.0235 32.5 28.5701 30.9534 28.5701 29.0525V19.4463H29.0525C29.8391 19.4463 30.5789 19.1399 31.1358 18.5833C32.2832 17.4351 32.2837 15.5674 31.1372 14.4185Z" fill="#0FA968"/>
</svg>
