<svg width="24" height="24" viewBox="0 0 24 24" fill="none" xmlns="http://www.w3.org/2000/svg">
<g clip-path="url(#clip0_1058_2302)">
<path d="M12 24C18.6274 24 24 18.6274 24 12C24 5.37258 18.6274 0 12 0C5.37258 0 0 5.37258 0 12C0 18.6274 5.37258 24 12 24Z" fill="url(#paint0_linear_1058_2302)"/>
<path d="M14.5493 5.33203H9.45602C7.18402 5.33203 5.33868 7.17736 5.33868 9.44936V14.5427C5.33868 16.8147 7.18402 18.66 9.45602 18.66H14.5493C16.8213 18.66 18.6667 16.8147 18.6667 14.5427V9.44936C18.6667 7.17736 16.8213 5.33203 14.5493 5.33203ZM17.1787 14.548C17.1787 15.9987 16 17.1827 14.544 17.1827H9.45068C8.00002 17.1827 6.81602 16.004 6.81602 14.548V9.4547C6.81602 8.00403 7.99468 6.82003 9.45068 6.82003H14.544C15.9947 6.82003 17.1787 7.9987 17.1787 9.4547V14.548Z" fill="white"/>
<path d="M11.9999 8.58984C10.1226 8.58984 8.59195 10.1205 8.59195 11.9978C8.59195 13.8752 10.1226 15.4058 11.9999 15.4058C13.8773 15.4058 15.4079 13.8752 15.4079 11.9978C15.4079 10.1205 13.8773 8.58984 11.9999 8.58984ZM11.9999 14.0672C10.8586 14.0672 9.93062 13.1392 9.93062 11.9978C9.93062 10.8565 10.8586 9.92851 11.9999 9.92851C13.1413 9.92851 14.0693 10.8565 14.0693 11.9978C14.0693 13.1392 13.1413 14.0672 11.9999 14.0672Z" fill="white"/>
<path d="M15.6676 8.96283C15.9815 8.91193 16.1948 8.61614 16.1439 8.30216C16.093 7.98818 15.7972 7.77491 15.4832 7.82581C15.1693 7.87671 14.956 8.1725 15.0069 8.48648C15.0578 8.80046 15.3536 9.01373 15.6676 8.96283Z" fill="white"/>
</g>
<defs>
<linearGradient id="paint0_linear_1058_2302" x1="2.86288" y1="21.1371" x2="19.9162" y2="4.08379" gradientUnits="userSpaceOnUse">
<stop stop-color="#FEE411"/>
<stop offset="0.0518459" stop-color="#FEDB16"/>
<stop offset="0.1381" stop-color="#FEC125"/>
<stop offset="0.2481" stop-color="#FE983D"/>
<stop offset="0.3762" stop-color="#FE5F5E"/>
<stop offset="0.5" stop-color="#FE2181"/>
<stop offset="1" stop-color="#9000DC"/>
</linearGradient>
<clipPath id="clip0_1058_2302">
<rect width="24" height="24" fill="white"/>
</clipPath>
</defs>
</svg>
