<svg width="120" height="120" viewBox="0 0 120 120" fill="none" xmlns="http://www.w3.org/2000/svg">
<g clip-path="url(#clip0_410_3598)">
<path d="M38.1089 34.6623V57.9053C38.1089 58.6293 38.2554 59.3329 38.5444 59.9966L55.811 99.6663H78.6066C77.0902 96.7741 76.2305 93.4855 76.2305 89.9997C76.2305 78.483 85.5998 69.1136 97.1166 69.1136C98.7239 69.1136 100.289 69.2964 101.793 69.6419V10.0722C101.793 9.41102 101.257 8.875 100.596 8.875H34.8183C34.1571 8.875 33.6211 9.41102 33.6211 10.0722V34.6623H38.1089Z" fill="#F9F3F1"/>
<path d="M100.596 8.875H93.1549C93.8161 8.875 94.3521 9.41102 94.3521 10.0722V69.2971C95.257 69.1769 96.1795 69.1138 97.1166 69.1138C98.7239 69.1138 100.289 69.2966 101.793 69.6421V10.0722C101.793 9.41078 101.257 8.875 100.596 8.875Z" fill="#EFE2DD"/>
<path d="M57.4565 102.847L38.764 59.9008C38.49 59.2711 38.3484 58.5918 38.3484 57.9051V34.4229H21.3642V57.9051C21.3642 58.5918 21.2229 59.2713 20.9487 59.9008L2.25584 102.847C0.554745 106.755 3.41904 111.125 7.68139 111.125H52.031C56.2933 111.125 59.1576 106.755 57.4565 102.847Z" fill="#D8ECFE"/>
<path d="M57.4566 102.847L38.7638 59.9008C38.4898 59.2711 38.3482 58.5918 38.3482 57.9051V34.4229H29.0103V57.9051C29.0103 58.5918 29.1516 59.2713 29.4258 59.9008L48.1184 102.847C49.8195 106.755 46.9552 111.125 42.6928 111.125H52.0308C56.2934 111.125 59.1574 106.755 57.4566 102.847Z" fill="#C4E2FF"/>
<path d="M7.68136 111.125H52.031C56.2933 111.125 59.1574 106.755 57.4565 102.847L49.9835 85.6777H9.72886L2.25581 102.847C0.554951 106.755 3.41901 111.125 7.68136 111.125Z" fill="#BD80E1"/>
<path d="M57.4565 102.847L49.9835 85.6777H40.6455L48.1186 102.847C49.8196 106.755 46.9553 111.125 42.693 111.125H52.031C56.2933 111.125 59.1574 106.755 57.4565 102.847Z" fill="#AF66DA"/>
<path d="M84.6224 22.1816L89.5314 28.7821C92.5333 32.8183 89.6526 38.5513 84.6224 38.5513C79.5923 38.5513 76.7113 32.8185 79.7135 28.7821L84.6224 22.1816Z" fill="#FD4755"/>
<path d="M89.5316 28.7821L84.6226 22.1816L82.1462 25.5112L84.5791 28.7821C87.0426 32.0943 85.5428 36.5467 82.1462 38.0383C82.8887 38.3643 83.7203 38.5513 84.6226 38.5513C89.6528 38.5513 92.5335 32.8183 89.5316 28.7821Z" fill="#FB2B3A"/>
<path d="M56.8755 49.1299H48.7336L44.6625 56.1811L48.7336 63.2322H56.8755L60.9466 56.1811L56.8755 49.1299Z" fill="#BD80E1"/>
<path d="M56.8755 49.1299H50.6041L54.6752 56.1811L50.6041 63.2322H56.8755L60.9466 56.1811L56.8755 49.1299Z" fill="#AF66DA"/>
<path d="M86.6806 49.1299H78.5386L74.4675 56.1811L78.5386 63.2322H86.6806L90.7517 56.1811L86.6806 49.1299Z" fill="#05E39C"/>
<path d="M86.6806 49.1299H80.4092L84.4803 56.1811L80.4092 63.2322H86.6806L90.7517 56.1811L86.6806 49.1299Z" fill="#0ED290"/>
<path d="M97.1166 111.125C108.784 111.125 118.242 101.667 118.242 89.9996C118.242 78.3323 108.784 68.874 97.1166 68.874C85.4492 68.874 75.991 78.3323 75.991 89.9996C75.991 101.667 85.4492 111.125 97.1166 111.125Z" fill="#05E39C"/>
<path d="M97.1166 68.874C95.4052 68.874 93.7418 69.0789 92.1483 69.4632C101.418 71.6978 108.306 80.0439 108.306 89.9996C108.306 99.9554 101.418 108.302 92.1483 110.536C93.7418 110.92 95.4052 111.125 97.1166 111.125C108.784 111.125 118.242 101.667 118.242 89.9996C118.242 78.3322 108.784 68.874 97.1166 68.874Z" fill="#0ED290"/>
<path d="M108.249 85.7611H101.356V78.8674C101.356 78.521 101.075 78.2402 100.729 78.2402H93.5049C93.1585 78.2402 92.8777 78.521 92.8777 78.8674V85.7611H85.984C85.6376 85.7611 85.3568 86.0419 85.3568 86.3883V93.612C85.3568 93.9584 85.6376 94.2391 85.984 94.2391H92.8777V101.133C92.8777 101.479 93.1585 101.76 93.5049 101.76H100.729C101.075 101.76 101.356 101.479 101.356 101.133V94.2391H108.249C108.596 94.2391 108.877 93.9584 108.877 93.612V86.3883C108.877 86.0419 108.596 85.7611 108.249 85.7611Z" fill="white"/>
<path d="M108.249 85.7607H104.862V89.5904C104.862 89.9368 104.581 90.2176 104.235 90.2176H99.7353C98.4129 90.2176 97.3409 91.2897 97.3409 92.612V97.1113C97.3409 97.4577 97.0601 97.7385 96.7137 97.7385H92.8777V101.132C92.8777 101.479 93.1585 101.76 93.5049 101.76H100.729C101.075 101.76 101.356 101.479 101.356 101.132V94.2388H108.249C108.596 94.2388 108.877 93.958 108.877 93.6116V86.3879C108.877 86.0415 108.596 85.7607 108.249 85.7607Z" fill="#F9F3F1"/>
<path d="M28.7356 51.7676H30.9767C31.9477 51.7676 32.7345 50.9808 32.7345 50.0098C32.7345 49.0387 31.9477 48.252 30.9767 48.252H28.7356C27.7646 48.252 26.9778 49.0387 26.9778 50.0098C26.9778 50.9808 27.7648 51.7676 28.7356 51.7676Z" fill="#27272A"/>
<path d="M28.7356 60.9746H30.9767C31.9477 60.9746 32.7345 60.1878 32.7345 59.2168C32.7345 58.2458 31.9477 57.459 30.9767 57.459H28.7356C27.7646 57.459 26.9778 58.2458 26.9778 59.2168C26.9778 60.1878 27.7648 60.9746 28.7356 60.9746Z" fill="#27272A"/>
<path d="M28.7356 70.1807H30.9767C31.9477 70.1807 32.7345 69.3939 32.7345 68.4229C32.7345 67.4518 31.9477 66.665 30.9767 66.665H28.7356C27.7646 66.665 26.9778 67.4518 26.9778 68.4229C26.9778 69.3939 27.7648 70.1807 28.7356 70.1807Z" fill="#27272A"/>
<path d="M28.7356 79.3877H30.9767C31.9477 79.3877 32.7345 78.6009 32.7345 77.6299C32.7345 76.6589 31.9477 75.8721 30.9767 75.8721H28.7356C27.7646 75.8721 26.9778 76.6589 26.9778 77.6299C26.9778 78.6009 27.7648 79.3877 28.7356 79.3877Z" fill="#27272A"/>
<path d="M84.6227 40.3089C87.6182 40.3089 90.3149 38.646 91.66 35.9692C93.0049 33.2924 92.7297 30.1366 90.9421 27.733L86.0332 21.1326C85.7015 20.6866 85.1786 20.4238 84.6227 20.4238C84.0667 20.4238 83.5439 20.6866 83.2122 21.1326L78.3032 27.733C76.5154 30.1366 76.2403 33.2927 77.5853 35.9692C78.9304 38.6462 81.6267 40.3089 84.6227 40.3089ZM81.1239 29.8312L84.6227 25.1273L88.1214 29.8312C89.126 31.1821 89.2746 32.8865 88.5187 34.3907C87.7626 35.8952 86.3064 36.7933 84.6227 36.7933C82.9389 36.7933 81.4828 35.8952 80.7267 34.3909C79.9706 32.8867 80.1194 31.1821 81.1239 29.8312Z" fill="#27272A"/>
<path d="M44.6627 24.7783H70.8129C71.7839 24.7783 72.5707 23.9915 72.5707 23.0205C72.5707 22.0495 71.7839 21.2627 70.8129 21.2627H44.6627C43.6917 21.2627 42.9049 22.0495 42.9049 23.0205C42.9049 23.9915 43.6917 24.7783 44.6627 24.7783Z" fill="#27272A"/>
<path d="M44.6627 32.124H70.8129C71.7839 32.124 72.5707 31.3372 72.5707 30.3662C72.5707 29.3952 71.7839 28.6084 70.8129 28.6084H44.6627C43.6917 28.6084 42.9049 29.3952 42.9049 30.3662C42.9049 31.3372 43.6917 32.124 44.6627 32.124Z" fill="#27272A"/>
<path d="M44.6627 39.4697H70.8129C71.7839 39.4697 72.5707 38.6829 72.5707 37.7119C72.5707 36.7409 71.7839 35.9541 70.8129 35.9541H44.6627C43.6917 35.9541 42.9049 36.7409 42.9049 37.7119C42.9049 38.6829 43.6917 39.4697 44.6627 39.4697Z" fill="#27272A"/>
<path d="M43.1402 57.06L47.2111 64.1111C47.5252 64.6549 48.1052 64.99 48.7334 64.99H56.8753C57.5035 64.99 58.0835 64.6549 58.3976 64.1111L61.9613 57.9389H73.4524L77.0159 64.1111C77.3299 64.6549 77.91 64.99 78.5381 64.99H86.6801C87.3082 64.99 87.8883 64.6549 88.2024 64.1111L92.2735 57.06C92.5875 56.5162 92.5875 55.8459 92.2735 55.3021L88.2024 48.251C87.8883 47.7072 87.3082 47.3721 86.6801 47.3721H78.5381C77.91 47.3721 77.3299 47.7072 77.0159 48.251L73.4524 54.4232H61.9613L58.3976 48.251C58.0835 47.7072 57.5035 47.3721 56.8753 47.3721H48.7336C48.1055 47.3721 47.5254 47.7072 47.2113 48.251L43.1405 55.3021C42.8264 55.8459 42.8264 56.5162 43.1402 57.06ZM79.5535 50.8877H85.6657L88.722 56.1811L85.6657 61.4744H79.5535L77.5123 57.9389H81.5142C82.4853 57.9389 83.272 57.1521 83.272 56.1811C83.272 55.21 82.4853 54.4232 81.5142 54.4232H77.5123L79.5535 50.8877ZM49.7485 50.8877H55.8607L58.917 56.1811L55.8607 61.4744H49.7485L46.6924 56.1811L49.7485 50.8877Z" fill="#27272A"/>
<path d="M103.551 68.0385V10.0722C103.551 8.44281 102.225 7.11719 100.596 7.11719H34.8183C33.1889 7.11719 31.8635 8.44281 31.8635 10.0722V19.2965C31.8635 20.2675 32.6503 21.0543 33.6213 21.0543C34.5923 21.0543 35.3791 20.2675 35.3791 19.2965V10.6326H100.035V67.3016C99.0795 67.1795 98.1054 67.1162 97.1168 67.1162C92.562 67.1162 88.1613 68.4522 84.3907 70.9797C83.5845 71.5202 83.3688 72.6121 83.9093 73.4184C84.4495 74.2248 85.5415 74.44 86.348 73.8998C89.5376 71.7618 93.2613 70.6319 97.1166 70.6319C107.796 70.6319 116.484 79.3202 116.484 89.9999C116.484 100.679 107.796 109.368 97.1166 109.368C86.437 109.368 77.7488 100.679 77.7488 89.9999C77.7488 86.1981 78.8503 82.5177 80.9344 79.3562C81.4688 78.5458 81.2447 77.4555 80.4342 76.9211C79.624 76.3874 78.5337 76.6108 77.9991 77.4212C75.5353 81.1586 74.2331 85.5084 74.2331 89.9999C74.2331 92.7784 74.7314 95.4426 75.6424 97.9084H57.2206L53.1237 88.4959H63.8848C64.8558 88.4959 65.6426 87.7091 65.6426 86.7381C65.6426 85.7671 64.8558 84.9803 63.8848 84.9803H51.5967C51.5864 84.9564 51.5742 84.9334 51.563 84.9102L49.9263 81.1504H66.8231C67.7941 81.1504 68.5809 80.3636 68.5809 79.3926C68.5809 78.4216 67.7941 77.6348 66.8231 77.6348H48.3961L46.729 73.8048H69.9312C70.9022 73.8048 71.689 73.018 71.689 72.047C71.689 71.076 70.9022 70.2892 69.9312 70.2892H45.199L40.372 59.1995C40.1932 58.7889 40.1027 58.3537 40.1027 57.9055V36.1806H40.3423C41.3133 36.1806 42.1001 35.3938 42.1001 34.4228C42.1001 33.4518 41.3133 32.665 40.3423 32.665H35.3789V27.6766C35.3789 26.7055 34.5921 25.9188 33.6211 25.9188C32.6501 25.9188 31.8633 26.7055 31.8633 27.6766V32.665H19.3702C18.3991 32.665 17.6123 33.4518 17.6123 34.4228C17.6123 35.3938 18.3991 36.1806 19.3702 36.1806H19.6027V57.9051C19.6027 58.3532 19.512 58.7887 19.3334 59.1993L0.640783 102.145C-0.395389 104.526 -0.16453 107.244 1.25883 109.415C2.68219 111.587 5.08196 112.883 7.67836 112.883H52.028C54.6241 112.883 57.0239 111.587 58.4473 109.415C59.8706 107.244 60.1015 104.526 59.0653 102.145L58.7515 101.424H77.2952C81.2552 108.268 88.6573 112.883 97.1173 112.883C109.735 112.883 120.001 102.618 120.001 89.9999C120 79.6152 113.046 70.8255 103.551 68.0385ZM55.5063 107.488C54.7235 108.683 53.4555 109.368 52.0275 109.368H7.67813C6.24985 109.368 4.98188 108.683 4.19906 107.488C3.41625 106.294 3.29438 104.858 3.86414 103.548L10.8773 87.4354H16.6024C17.5734 87.4354 18.3602 86.6486 18.3602 85.6776C18.3602 84.7066 17.5734 83.9198 16.6024 83.9198H12.4078L22.557 60.6023C22.9296 59.7463 23.1185 58.8388 23.1185 57.9051V36.1806H33.6166C33.618 36.1806 33.6197 36.1809 33.6211 36.1809C33.6225 36.1809 33.6241 36.1806 33.6255 36.1806H36.5869V57.9051C36.5869 58.8391 36.776 59.7466 37.1484 60.6025L47.2976 83.9198H24.9827C24.0117 83.9198 23.2249 84.7066 23.2249 85.6776C23.2249 86.6486 24.0117 87.4354 24.9827 87.4354H48.8278L55.841 103.548C56.4113 104.858 56.2891 106.294 55.5063 107.488Z" fill="#27272A"/>
<path d="M100.728 76.4814H93.5046C92.1895 76.4814 91.1196 77.5514 91.1196 78.8667V84.0025H85.9838C84.6687 84.0025 83.5988 85.0722 83.5988 86.3875V93.6112C83.5988 94.9263 84.6684 95.9962 85.9838 95.9962H91.1196V101.132C91.1196 102.447 92.1893 103.517 93.5046 103.517H100.728C102.043 103.517 103.114 102.447 103.114 101.132V95.9962H108.249C109.564 95.9962 110.634 94.9265 110.634 93.6112V86.3875C110.634 85.0725 109.565 84.0025 108.249 84.0025H103.114V78.8667C103.114 77.5516 102.044 76.4814 100.728 76.4814ZM107.119 87.5182V92.4806H101.356C100.385 92.4806 99.5979 93.2674 99.5979 94.2384V100.001H94.6352V94.2384C94.6352 93.2674 93.8484 92.4806 92.8774 92.4806H87.1144V87.5182H92.8774C93.8484 87.5182 94.6352 86.7314 94.6352 85.7604V79.9971H99.5979V85.7604C99.5979 86.7314 100.385 87.5182 101.356 87.5182H107.119Z" fill="#27272A"/>
</g>
<defs>
<clipPath id="clip0_410_3598">
<rect width="120" height="120" fill="white"/>
</clipPath>
</defs>
</svg>
