<svg width="200" height="200" viewBox="0 0 200 200" fill="none" xmlns="http://www.w3.org/2000/svg">
<path d="M153.45 38.2693C148.888 38.2693 60.8016 38.2693 56.1654 38.2693C50.1077 38.2693 45.1927 43.1808 45.1927 49.2424V173.835C45.1927 179.897 50.1043 184.808 56.162 184.808H56.1658H153.454C159.512 184.808 164.424 179.896 164.424 173.835C164.424 165.127 164.424 55.1935 164.424 49.2424C164.423 43.1808 159.508 38.2693 153.45 38.2693Z" fill="#757D8C"/>
<path d="M179.808 88.2693C182.992 88.2693 185.577 90.8539 185.577 94.0385C185.577 97.2231 182.992 99.8077 179.808 99.8077C176.619 99.8077 174.038 97.2231 174.038 94.0385C174.038 90.8539 176.619 88.2693 179.808 88.2693Z" fill="#08B772"/>
<path d="M24.0385 61.3462C29.3462 61.3462 33.6539 65.65 33.6539 70.9616C33.6539 76.2731 29.3462 80.577 24.0385 80.577C18.7266 80.577 14.4231 76.2731 14.4231 70.9616C14.4231 65.65 18.7266 61.3462 24.0385 61.3462Z" fill="#08B772"/>
<path d="M136.135 38.4154C137.457 40.0616 138.246 42.1501 138.246 44.4231C138.246 49.7347 133.942 54.0385 128.63 54.0385H82.4766C79.8193 54.0385 77.4189 52.9616 75.6766 51.2231C73.9381 49.4847 72.8612 47.077 72.8612 44.4231C72.8612 42.1501 73.6501 40.0616 74.9727 38.4154C76.7304 36.2154 79.4381 34.8077 82.4766 34.8077H95.9381V32.8847C95.9381 27.5731 100.242 23.2693 105.554 23.2693C110.865 23.2693 115.169 27.5731 115.169 32.8847V34.8077H128.63C131.288 34.8077 133.688 35.8847 135.431 37.6231C135.681 37.8731 135.919 38.1385 136.135 38.4154Z" fill="#33383F"/>
<path d="M120.192 84.4232C120.192 85.4847 121.05 86.3463 122.115 86.3463C123.177 86.3463 124.038 85.4847 124.038 84.4232C124.038 83.3617 123.177 82.5001 122.115 82.5001C121.05 82.5001 120.192 83.3617 120.192 84.4232ZM64.423 117.042V54.0386H82.4764H128.63H145.192V159.423V169.423H64.423V117.042Z" fill="#ECEBED"/>
<path d="M50.1494 134.985V155.596H45.3929H23.1963H18.4398V134.985H23.1963H45.3929H50.1494Z" fill="#DF6426"/>
<path d="M55.6985 117.649V120.768C55.6985 122.534 54.267 123.966 52.5006 123.966H16.0885C14.3223 123.966 12.8906 122.534 12.8906 120.768V117.649C12.8906 115.885 14.3223 114.453 16.0885 114.453H52.5006C54.267 114.453 55.6985 115.885 55.6985 117.649Z" fill="#5A5F64"/>
<path d="M18.4398 155.676V165.981C18.4398 174.738 25.538 181.836 34.2946 181.836C43.0512 181.836 50.1494 174.738 50.1494 165.981V155.676H18.4398Z" fill="#CBE9FD"/>
<path d="M50.1494 123.966V135.064H45.3929L33.5019 132.686L23.1963 135.064H18.4398V123.966H50.1494Z" fill="#CBE9FD"/>
<path d="M45.393 155.676V165.188C45.393 171.318 40.4241 176.287 34.2946 176.287C31.2299 176.287 28.4553 175.044 26.4465 173.037C24.4393 171.028 23.1963 168.253 23.1963 165.188V155.676H45.393Z" fill="#7AA0FB"/>
<path d="M23.1963 130.308H45.393V135.064H23.1963V130.308Z" fill="#7AA0FB"/>
<path d="M20.818 114.453V118.417C20.818 118.854 20.4629 119.21 20.0253 119.21C19.5877 119.21 19.2325 118.854 19.2325 118.417V114.453H20.818Z" fill="#4E5356"/>
<path d="M25.5745 114.453V118.417C25.5745 118.854 25.2193 119.21 24.7818 119.21C24.3442 119.21 23.989 118.854 23.989 118.417V114.453H25.5745Z" fill="#4E5356"/>
<path d="M30.3308 114.453V118.417C30.3308 118.854 29.9757 119.21 29.5381 119.21C29.1005 119.21 28.7454 118.854 28.7454 118.417V114.453H30.3308Z" fill="#4E5356"/>
<path d="M35.0873 114.453V118.417C35.0873 118.854 34.7322 119.21 34.2946 119.21C33.857 119.21 33.5018 118.854 33.5018 118.417V114.453H35.0873Z" fill="#4E5356"/>
<path d="M39.8438 114.453V118.417C39.8438 118.854 39.4886 119.21 39.051 119.21C38.6134 119.21 38.2583 118.854 38.2583 118.417V114.453H39.8438Z" fill="#4E5356"/>
<path d="M44.6001 114.453V118.417C44.6001 118.854 44.245 119.21 43.8074 119.21C43.3698 119.21 43.0146 118.854 43.0146 118.417V114.453H44.6001Z" fill="#4E5356"/>
<path d="M49.3566 114.453V118.417C49.3566 118.854 49.0014 119.21 48.5639 119.21C48.1263 119.21 47.7711 118.854 47.7711 118.417V114.453H49.3566Z" fill="#4E5356"/>
<path d="M22.4035 151.712C21.9657 151.712 21.6107 151.357 21.6107 150.919V139.821C21.6107 139.383 21.9657 139.028 22.4035 139.028C22.8412 139.028 23.1962 139.383 23.1962 139.821V150.919C23.1962 151.357 22.8412 151.712 22.4035 151.712Z" fill="#CE3B0D"/>
<path d="M26.3672 151.712C25.9295 151.712 25.5745 151.357 25.5745 150.919V139.821C25.5745 139.383 25.9295 139.028 26.3672 139.028C26.805 139.028 27.1599 139.383 27.1599 139.821V150.919C27.1599 151.357 26.805 151.712 26.3672 151.712Z" fill="#CE3B0D"/>
<path d="M30.3308 151.712C29.8931 151.712 29.5381 151.357 29.5381 150.919V139.821C29.5381 139.383 29.8931 139.028 30.3308 139.028C30.7686 139.028 31.1236 139.383 31.1236 139.821V150.919C31.1236 151.357 30.7686 151.712 30.3308 151.712Z" fill="#CE3B0D"/>
<path d="M34.2946 151.712C33.8567 151.712 33.5018 151.357 33.5018 150.919V139.821C33.5018 139.383 33.8567 139.028 34.2946 139.028C34.7325 139.028 35.0873 139.383 35.0873 139.821V150.919C35.0873 151.357 34.7325 151.712 34.2946 151.712Z" fill="#CE3B0D"/>
<path d="M38.2583 151.712C37.8204 151.712 37.4656 151.357 37.4656 150.919V139.821C37.4656 139.383 37.8204 139.028 38.2583 139.028C38.6962 139.028 39.0511 139.383 39.0511 139.821V150.919C39.0511 151.357 38.6962 151.712 38.2583 151.712Z" fill="#CE3B0D"/>
<path d="M42.2219 151.712C41.784 151.712 41.4292 151.357 41.4292 150.919V139.821C41.4292 139.383 41.784 139.028 42.2219 139.028C42.6598 139.028 43.0147 139.383 43.0147 139.821V150.919C43.0147 151.357 42.6598 151.712 42.2219 151.712Z" fill="#CE3B0D"/>
<path d="M46.1857 151.712C45.7478 151.712 45.3929 151.357 45.3929 150.919V139.821C45.3929 139.383 45.7478 139.028 46.1857 139.028C46.6236 139.028 46.9784 139.383 46.9784 139.821V150.919C46.9784 151.357 46.6236 151.712 46.1857 151.712Z" fill="#CE3B0D"/>
<path d="M178.846 159.423C180.439 159.423 181.731 160.715 181.731 162.308C181.731 163.9 180.439 165.192 178.846 165.192C177.25 165.192 175.962 163.9 175.962 162.308C175.962 160.715 177.25 159.423 178.846 159.423Z" fill="#FFD400"/>
<path d="M175 70.9617C176.593 70.9617 177.885 72.254 177.885 73.8463C177.885 75.4386 176.593 76.7309 175 76.7309C173.404 76.7309 172.115 75.4386 172.115 73.8463C172.115 72.254 173.404 70.9617 175 70.9617Z" fill="#FFD400"/>
<path d="M174.038 22.8848C175.631 22.8848 176.923 24.1771 176.923 25.7694C176.923 27.3617 175.631 28.654 174.038 28.654C172.442 28.654 171.154 27.3617 171.154 25.7694C171.154 24.1771 172.442 22.8848 174.038 22.8848Z" fill="#FFD400"/>
<path d="M128.846 15.1924C130.438 15.1924 131.731 16.4847 131.731 18.077C131.731 19.6693 130.438 20.9616 128.846 20.9616C127.25 20.9616 125.962 19.6693 125.962 18.077C125.962 16.4847 127.25 15.1924 128.846 15.1924Z" fill="#FFD400"/>
<path d="M122.115 82.5C123.177 82.5 124.039 83.3615 124.039 84.4231C124.039 85.4846 123.177 86.3462 122.115 86.3462C121.05 86.3462 120.192 85.4846 120.192 84.4231C120.192 83.3615 121.05 82.5 122.115 82.5Z" fill="#4A78FF"/>
<path d="M69.2308 15.1924C70.8231 15.1924 72.1154 16.4847 72.1154 18.077C72.1154 19.6693 70.8231 20.9616 69.2308 20.9616C67.6347 20.9616 66.3462 19.6693 66.3462 18.077C66.3462 16.4847 67.6347 15.1924 69.2308 15.1924Z" fill="#FFD400"/>
<path d="M30.7693 90.1924C32.3616 90.1924 33.6539 91.4847 33.6539 93.077C33.6539 94.6693 32.3616 95.9616 30.7693 95.9616C29.1731 95.9616 27.8846 94.6693 27.8846 93.077C27.8846 91.4847 29.1731 90.1924 30.7693 90.1924Z" fill="#FFD400"/>
<path d="M26.9231 32.5C28.5154 32.5 29.8077 33.7923 29.8077 35.3846C29.8077 36.9769 28.5154 38.2692 26.9231 38.2692C25.3269 38.2692 24.0385 36.9769 24.0385 35.3846C24.0385 33.7923 25.3269 32.5 26.9231 32.5Z" fill="#FFD400"/>
<path d="M26.9231 161.346C28.5154 161.346 29.8077 162.638 29.8077 164.231C29.8077 165.823 28.5154 167.115 26.9231 167.115C25.3269 167.115 24.0385 165.823 24.0385 164.231C24.0385 162.638 25.3269 161.346 26.9231 161.346Z" fill="#FFD400"/>
<path d="M116.346 67.1154H77.8846C76.8223 67.1154 75.9615 66.2543 75.9615 65.1924C75.9615 64.1304 76.8223 63.2693 77.8846 63.2693H116.346C117.408 63.2693 118.269 64.1304 118.269 65.1924C118.269 66.2543 117.408 67.1154 116.346 67.1154Z" fill="#4A78FF"/>
<path d="M131.731 74.8078H77.8846C76.8223 74.8078 75.9615 73.9467 75.9615 72.8847C75.9615 71.8228 76.8223 70.9617 77.8846 70.9617H131.731C132.793 70.9617 133.654 71.8228 133.654 72.8847C133.654 73.9467 132.793 74.8078 131.731 74.8078Z" fill="#4A78FF"/>
<path d="M116.346 86.3462H77.8846C76.8223 86.3462 75.9615 85.485 75.9615 84.4231C75.9615 83.3612 76.8223 82.5 77.8846 82.5H116.346C117.408 82.5 118.269 83.3612 118.269 84.4231C118.269 85.485 117.408 86.3462 116.346 86.3462Z" fill="#4A78FF"/>
<path d="M131.731 94.0385H77.8846C76.8223 94.0385 75.9615 93.1774 75.9615 92.1155C75.9615 91.0535 76.8223 90.1924 77.8846 90.1924H131.731C132.793 90.1924 133.654 91.0535 133.654 92.1155C133.654 93.1774 132.793 94.0385 131.731 94.0385Z" fill="#4A78FF"/>
<path d="M145.192 157.5H91.3462C90.2839 157.5 89.4231 158.361 89.4231 159.423C89.4231 160.485 90.2839 161.346 91.3462 161.346H145.192V157.5Z" fill="#BCB7C6"/>
</svg>
