<svg width="16" height="16" viewBox="0 0 16 16" fill="none" xmlns="http://www.w3.org/2000/svg">
<g id="male-gender 1" clip-path="url(#clip0_403_3060)">
<g id="Group">
<path id="Vector" d="M14.656 0.543945H10.24C9.79202 0.543945 9.44001 0.895945 9.44001 1.34395C9.44001 1.79195 9.79202 2.14395 10.24 2.14395H12.704L9.76002 5.08794C7.48802 3.39195 4.25602 3.55195 2.20802 5.59995C-0.0319849 7.83995 -0.0319849 11.5199 2.20802 13.7599C4.44801 15.9999 8.12802 15.9999 10.368 13.7599C12.416 11.7119 12.608 8.44794 10.88 6.20794L13.824 3.26395V5.75994C13.824 6.20794 14.176 6.55995 14.624 6.55995C15.072 6.55995 15.424 6.20794 15.424 5.75994V1.34395C15.456 0.895945 15.104 0.543945 14.656 0.543945ZM9.28001 12.6399C7.64802 14.2719 4.99202 14.2719 3.36002 12.6399C1.72802 11.0079 1.72802 8.35194 3.36002 6.71994C4.99202 5.08794 7.64802 5.08794 9.28001 6.71994C10.912 8.35194 10.912 11.0079 9.28001 12.6399Z" fill="#4A78FF"/>
</g>
</g>
<defs>
<clipPath id="clip0_403_3060">
<rect width="16" height="16" fill="white"/>
</clipPath>
</defs>
</svg>
