<svg width="111" height="110" viewBox="0 0 111 110" fill="none" xmlns="http://www.w3.org/2000/svg">
<path d="M86.9997 84.1483C83.8597 71.5662 55.1194 69.8489 41.7132 72.9145C41.7115 72.9126 41.7098 72.9107 41.7083 72.909C35.6875 74.294 27.0918 77.4905 24.7954 83.2321C23.1945 87.2989 25.6113 90.9721 29.1852 93.5177C30.7345 94.6338 32.8192 95.7947 35.5728 96.8507C45.5746 100.682 59.1033 101.136 69.7892 98.6924C69.7911 98.6943 69.7928 98.6962 69.7943 98.6979C75.2441 97.4443 82.3353 94.8574 85.6091 90.3459C86.9756 88.4869 87.5461 86.3339 86.9997 84.1483Z" fill="#D7DEED"/>
<path d="M97.5289 49.989C100.742 49.989 103.346 52.5931 103.346 55.8061C103.346 59.0196 100.742 61.6234 97.5289 61.6234C94.3177 61.6234 91.7115 59.0196 91.7115 55.8061C91.7115 52.5931 94.3177 49.989 97.5289 49.989Z" fill="#FF5722"/>
<path d="M15.0288 65.854C17.6583 65.854 19.7885 67.9842 19.7885 70.6136C19.7885 73.243 17.6583 75.3732 15.0288 75.3732C12.4015 75.3732 10.2692 73.243 10.2692 70.6136C10.2692 67.9844 12.4015 65.854 15.0288 65.854Z" fill="#FF5722"/>
<path d="M69.6565 72.8837C64.5881 78.5382 59.4287 84.328 55.621 90.4372C51.8704 84.4147 46.749 78.6122 41.7081 72.9091C32.6077 62.6095 23.7717 52.644 23.7717 42.323C23.7717 24.6701 38.0908 10.3511 55.7439 10.3511C73.4094 10.3511 87.7304 24.6701 87.7304 42.323C87.7304 52.8151 78.8436 62.6303 69.6565 72.8837ZM75.3617 41.1572C75.3617 30.3561 66.5427 21.5539 55.7585 21.5539C44.9594 21.5539 36.1383 30.3561 36.1383 41.1572C36.1383 51.9562 44.9594 60.7603 55.7585 60.7603C66.5427 60.7603 75.3617 51.9562 75.3617 41.1572Z" fill="#D94556"/>
<path d="M98.5865 30.9504C99.4644 30.9504 100.173 31.6612 100.173 32.537C100.173 33.4127 99.4644 34.1235 98.5865 34.1235C97.7108 34.1235 97 33.4127 97 32.537C97 31.6612 97.7108 30.9504 98.5865 30.9504Z" fill="#07CC66"/>
<path d="M95.4135 81.7195C96.2914 81.7195 97 82.4303 97 83.306C97 84.1818 96.2914 84.8926 95.4135 84.8926C94.5377 84.8926 93.827 84.1818 93.827 83.306C93.827 82.4305 94.5377 81.7195 95.4135 81.7195Z" fill="#07CC66"/>
<path d="M84.8365 9.79663C85.7144 9.79663 86.4231 10.5074 86.4231 11.3832C86.4231 12.2589 85.7144 12.9697 84.8365 12.9697C83.9608 12.9697 83.25 12.2589 83.25 11.3832C83.25 10.5074 83.9608 9.79663 84.8365 9.79663Z" fill="#07CC66"/>
<path d="M22.4327 10.8542C23.3106 10.8542 24.0193 11.565 24.0193 12.4408C24.0193 13.3166 23.3106 14.0273 22.4327 14.0273C21.557 14.0273 20.8462 13.3166 20.8462 12.4408C20.8462 11.565 21.557 10.8542 22.4327 10.8542Z" fill="#07CC66"/>
<path d="M19.2596 53.1621C20.1375 53.1621 20.8462 53.8729 20.8462 54.7484C20.8462 55.6242 20.1375 56.335 19.2596 56.335C18.3839 56.335 17.6731 55.6242 17.6731 54.7484C17.6731 53.8729 18.3839 53.1621 19.2596 53.1621Z" fill="#07CC66"/>
<path d="M16.0865 93.354C16.9644 93.354 17.6731 94.0648 17.6731 94.9405C17.6731 95.8163 16.9644 96.5271 16.0865 96.5271C15.2108 96.5271 14.5 95.8163 14.5 94.9405C14.5 94.065 15.2108 93.354 16.0865 93.354Z" fill="#07CC66"/>
<path d="M9.74041 34.1235C10.6183 34.1235 11.3269 34.8343 11.3269 35.7101C11.3269 36.5858 10.6183 37.2966 9.74041 37.2966C8.86464 37.2966 8.15387 36.5858 8.15387 35.7101C8.15387 34.8343 8.86464 34.1235 9.74041 34.1235Z" fill="#07CC66"/>
<path d="M55.7564 55.4717C47.8573 55.4717 41.431 49.0502 41.431 41.1571C41.431 40.573 41.9046 40.0994 42.4887 40.0994C43.0727 40.0994 43.5464 40.573 43.5464 41.1571C43.5464 47.8838 49.0237 53.3565 55.7564 53.3565C59.0007 53.3565 62.0604 52.0847 64.3715 49.7758C66.683 47.4667 67.9558 44.4057 67.9558 41.1571C67.9558 34.4304 62.4833 28.9577 55.7564 28.9577C55.1723 28.9577 54.6987 28.484 54.6987 27.9C54.6987 27.3159 55.1723 26.8423 55.7564 26.8423C63.6495 26.8423 70.0712 33.264 70.0712 41.1571C70.0712 44.9711 68.5777 48.5635 65.8666 51.2722C63.1562 53.9803 59.5655 55.4717 55.7564 55.4717Z" fill="#D7DEED"/>
<path d="M86.9997 84.1483C83.8597 71.5662 55.1194 69.8489 41.7132 72.9145C41.7115 72.9126 41.7098 72.9107 41.7083 72.909C35.6875 74.294 27.0918 77.4905 24.7954 83.2321C23.1945 87.2989 25.6113 90.9721 29.1852 93.5177C30.7345 94.6338 32.8192 95.7947 35.5728 96.8507C45.5746 100.682 59.1033 101.136 69.7892 98.6924C69.7911 98.6943 69.7928 98.6962 69.7943 98.6979C75.2441 97.4443 82.3353 94.8574 85.6091 90.3459C86.9756 88.4869 87.5461 86.3339 86.9997 84.1483Z" fill="#D7DEED"/>
<path d="M97.5289 49.989C100.742 49.989 103.346 52.5931 103.346 55.8061C103.346 59.0196 100.742 61.6234 97.5289 61.6234C94.3177 61.6234 91.7115 59.0196 91.7115 55.8061C91.7115 52.5931 94.3177 49.989 97.5289 49.989Z" fill="#FF5722"/>
<path d="M15.0288 65.854C17.6583 65.854 19.7885 67.9842 19.7885 70.6136C19.7885 73.243 17.6583 75.3732 15.0288 75.3732C12.4015 75.3732 10.2692 73.243 10.2692 70.6136C10.2692 67.9844 12.4015 65.854 15.0288 65.854Z" fill="#FF5722"/>
<path d="M69.6565 72.8837C64.5881 78.5382 59.4287 84.328 55.621 90.4372C51.8704 84.4147 46.749 78.6122 41.7081 72.9091C32.6077 62.6095 23.7717 52.644 23.7717 42.323C23.7717 24.6701 38.0908 10.3511 55.7439 10.3511C73.4094 10.3511 87.7304 24.6701 87.7304 42.323C87.7304 52.8151 78.8436 62.6303 69.6565 72.8837ZM75.3617 41.1572C75.3617 30.3561 66.5427 21.5539 55.7585 21.5539C44.9594 21.5539 36.1383 30.3561 36.1383 41.1572C36.1383 51.9562 44.9594 60.7603 55.7585 60.7603C66.5427 60.7603 75.3617 51.9562 75.3617 41.1572Z" fill="#D94556"/>
<path d="M98.5865 30.9504C99.4644 30.9504 100.173 31.6612 100.173 32.537C100.173 33.4127 99.4644 34.1235 98.5865 34.1235C97.7108 34.1235 97 33.4127 97 32.537C97 31.6612 97.7108 30.9504 98.5865 30.9504Z" fill="#07CC66"/>
<path d="M95.4135 81.7195C96.2914 81.7195 97 82.4303 97 83.306C97 84.1818 96.2914 84.8926 95.4135 84.8926C94.5377 84.8926 93.827 84.1818 93.827 83.306C93.827 82.4305 94.5377 81.7195 95.4135 81.7195Z" fill="#07CC66"/>
<path d="M84.8365 9.79663C85.7144 9.79663 86.4231 10.5074 86.4231 11.3832C86.4231 12.2589 85.7144 12.9697 84.8365 12.9697C83.9608 12.9697 83.25 12.2589 83.25 11.3832C83.25 10.5074 83.9608 9.79663 84.8365 9.79663Z" fill="#07CC66"/>
<path d="M22.4327 10.8542C23.3106 10.8542 24.0193 11.565 24.0193 12.4408C24.0193 13.3166 23.3106 14.0273 22.4327 14.0273C21.557 14.0273 20.8462 13.3166 20.8462 12.4408C20.8462 11.565 21.557 10.8542 22.4327 10.8542Z" fill="#07CC66"/>
<path d="M19.2596 53.1621C20.1375 53.1621 20.8462 53.8729 20.8462 54.7484C20.8462 55.6242 20.1375 56.335 19.2596 56.335C18.3839 56.335 17.6731 55.6242 17.6731 54.7484C17.6731 53.8729 18.3839 53.1621 19.2596 53.1621Z" fill="#07CC66"/>
<path d="M16.0865 93.354C16.9644 93.354 17.6731 94.0648 17.6731 94.9405C17.6731 95.8163 16.9644 96.5271 16.0865 96.5271C15.2108 96.5271 14.5 95.8163 14.5 94.9405C14.5 94.065 15.2108 93.354 16.0865 93.354Z" fill="#07CC66"/>
<path d="M9.74041 34.1235C10.6183 34.1235 11.3269 34.8343 11.3269 35.7101C11.3269 36.5858 10.6183 37.2966 9.74041 37.2966C8.86464 37.2966 8.15387 36.5858 8.15387 35.7101C8.15387 34.8343 8.86464 34.1235 9.74041 34.1235Z" fill="#07CC66"/>
<path d="M55.7564 55.4717C47.8573 55.4717 41.431 49.0502 41.431 41.1571C41.431 40.573 41.9046 40.0994 42.4887 40.0994C43.0727 40.0994 43.5464 40.573 43.5464 41.1571C43.5464 47.8838 49.0237 53.3565 55.7564 53.3565C59.0007 53.3565 62.0604 52.0847 64.3715 49.7758C66.683 47.4667 67.9558 44.4057 67.9558 41.1571C67.9558 34.4304 62.4833 28.9577 55.7564 28.9577C55.1723 28.9577 54.6987 28.484 54.6987 27.9C54.6987 27.3159 55.1723 26.8423 55.7564 26.8423C63.6495 26.8423 70.0712 33.264 70.0712 41.1571C70.0712 44.9711 68.5777 48.5635 65.8666 51.2722C63.1562 53.9803 59.5655 55.4717 55.7564 55.4717Z" fill="#D7DEED"/>
</svg>
