<svg width="399" height="42" viewBox="0 0 399 42" fill="none" xmlns="http://www.w3.org/2000/svg">
<line x1="42" y1="9.5" x2="357" y2="9.50003" stroke="#92929E"/>
<rect x="38.5" y="0.5" width="19" height="19" rx="9.5" fill="#F9F5FF"/>
<rect x="38.5" y="0.5" width="19" height="19" rx="9.5" stroke="#7F56D9"/>
<circle cx="48" cy="10" r="4" fill="#7F56D9"/>
<path d="M5.29199 34.2881H2.70117V32.9277H5.29199C5.74316 32.9277 6.10775 32.8548 6.38574 32.709C6.66374 32.5632 6.86654 32.3626 6.99414 32.1074C7.1263 31.8477 7.19238 31.5514 7.19238 31.2188C7.19238 30.9043 7.1263 30.6104 6.99414 30.3369C6.86654 30.0589 6.66374 29.8356 6.38574 29.667C6.10775 29.4984 5.74316 29.4141 5.29199 29.4141H3.22754V38H1.51172V28.0469H5.29199C6.06217 28.0469 6.71615 28.1836 7.25391 28.457C7.79622 28.7259 8.20866 29.0996 8.49121 29.5781C8.77376 30.0521 8.91504 30.5944 8.91504 31.2051C8.91504 31.8477 8.77376 32.3991 8.49121 32.8594C8.20866 33.3197 7.79622 33.6729 7.25391 33.9189C6.71615 34.165 6.06217 34.2881 5.29199 34.2881ZM14.577 36.5166V32.9893C14.577 32.7249 14.5291 32.4971 14.4334 32.3057C14.3377 32.1143 14.1919 31.9661 13.9959 31.8613C13.8045 31.7565 13.563 31.7041 13.2713 31.7041C13.0024 31.7041 12.77 31.7497 12.574 31.8408C12.3781 31.932 12.2254 32.055 12.116 32.21C12.0066 32.3649 11.952 32.5404 11.952 32.7363H10.3113C10.3113 32.4447 10.382 32.1621 10.5232 31.8887C10.6645 31.6152 10.8696 31.3714 11.1385 31.1572C11.4074 30.943 11.7286 30.7744 12.1023 30.6514C12.476 30.5283 12.8953 30.4668 13.3602 30.4668C13.9161 30.4668 14.4083 30.5602 14.8367 30.7471C15.2697 30.9339 15.6092 31.2165 15.8553 31.5947C16.1059 31.9684 16.2312 32.4378 16.2312 33.0029V36.291C16.2312 36.6283 16.254 36.9313 16.2996 37.2002C16.3497 37.4645 16.4204 37.6947 16.5115 37.8906V38H14.823C14.7456 37.8223 14.684 37.5967 14.6385 37.3232C14.5975 37.0452 14.577 36.7764 14.577 36.5166ZM14.8162 33.502L14.8299 34.5205H13.6473C13.3419 34.5205 13.073 34.5501 12.8406 34.6094C12.6082 34.6641 12.4145 34.7461 12.2596 34.8555C12.1046 34.9648 11.9884 35.097 11.9109 35.252C11.8335 35.4069 11.7947 35.5824 11.7947 35.7783C11.7947 35.9743 11.8403 36.1543 11.9314 36.3184C12.0226 36.4779 12.1548 36.6032 12.3279 36.6943C12.5057 36.7855 12.7199 36.8311 12.9705 36.8311C13.3077 36.8311 13.6017 36.7627 13.8523 36.626C14.1076 36.4847 14.3081 36.3138 14.4539 36.1133C14.5997 35.9082 14.6772 35.7145 14.6863 35.5322L15.2195 36.2637C15.1648 36.4505 15.0714 36.651 14.9393 36.8652C14.8071 37.0794 14.6339 37.2845 14.4197 37.4805C14.2101 37.6719 13.9572 37.8291 13.6609 37.9521C13.3693 38.0752 13.032 38.1367 12.6492 38.1367C12.1661 38.1367 11.7355 38.041 11.3572 37.8496C10.979 37.6536 10.6827 37.3916 10.4686 37.0635C10.2544 36.7308 10.1473 36.3548 10.1473 35.9355C10.1473 35.5436 10.2202 35.1973 10.366 34.8965C10.5164 34.5911 10.7352 34.3359 11.0223 34.1309C11.3139 33.9258 11.6694 33.7708 12.0887 33.666C12.5079 33.5566 12.9865 33.502 13.5242 33.502H14.8162ZM21.5445 30.6035V31.8066H17.3746V30.6035H21.5445ZM18.5777 28.792H20.2252V35.9561C20.2252 36.1839 20.2571 36.3594 20.3209 36.4824C20.3893 36.6009 20.4827 36.6807 20.6012 36.7217C20.7197 36.7627 20.8587 36.7832 21.0182 36.7832C21.1321 36.7832 21.2415 36.7764 21.3463 36.7627C21.4511 36.749 21.5354 36.7354 21.5992 36.7217L21.6061 37.9795C21.4693 38.0205 21.3098 38.057 21.1275 38.0889C20.9498 38.1208 20.7447 38.1367 20.5123 38.1367C20.134 38.1367 19.7991 38.0706 19.5074 37.9385C19.2158 37.8018 18.9879 37.5807 18.8238 37.2754C18.6598 36.9701 18.5777 36.5645 18.5777 36.0586V28.792ZM24.7797 30.6035V38H23.1254V30.6035H24.7797ZM23.016 28.6621C23.016 28.4115 23.098 28.2041 23.2621 28.04C23.4307 27.8714 23.6632 27.7871 23.9594 27.7871C24.251 27.7871 24.4812 27.8714 24.6498 28.04C24.8184 28.2041 24.9027 28.4115 24.9027 28.6621C24.9027 28.9082 24.8184 29.1133 24.6498 29.2773C24.4812 29.4414 24.251 29.5234 23.9594 29.5234C23.6632 29.5234 23.4307 29.4414 23.2621 29.2773C23.098 29.1133 23.016 28.9082 23.016 28.6621ZM30.0451 38.1367C29.4982 38.1367 29.0038 38.0479 28.5617 37.8701C28.1242 37.6878 27.7505 37.4349 27.4406 37.1113C27.1353 36.7878 26.9006 36.4072 26.7365 35.9697C26.5725 35.5322 26.4904 35.0605 26.4904 34.5547V34.2812C26.4904 33.7025 26.5747 33.1784 26.7434 32.709C26.912 32.2396 27.1467 31.8385 27.4475 31.5059C27.7482 31.1686 28.1037 30.9111 28.5139 30.7334C28.924 30.5557 29.3684 30.4668 29.8469 30.4668C30.3755 30.4668 30.8381 30.5557 31.2346 30.7334C31.6311 30.9111 31.9592 31.1618 32.2189 31.4854C32.4833 31.8044 32.6792 32.1849 32.8068 32.627C32.939 33.069 33.0051 33.5566 33.0051 34.0898V34.7939H27.2902V33.6113H31.3781V33.4814C31.369 33.1852 31.3098 32.9072 31.2004 32.6475C31.0956 32.3877 30.9338 32.1781 30.715 32.0186C30.4963 31.859 30.2046 31.7793 29.84 31.7793C29.5666 31.7793 29.3228 31.8385 29.1086 31.957C28.899 32.071 28.7235 32.2373 28.5822 32.4561C28.4409 32.6748 28.3316 32.9391 28.2541 33.249C28.1812 33.5544 28.1447 33.8984 28.1447 34.2812V34.5547C28.1447 34.8783 28.188 35.179 28.2746 35.457C28.3658 35.7305 28.4979 35.9697 28.6711 36.1748C28.8443 36.3799 29.0539 36.5417 29.3 36.6602C29.5461 36.7741 29.8264 36.8311 30.1408 36.8311C30.5373 36.8311 30.8905 36.7513 31.2004 36.5918C31.5103 36.4323 31.7792 36.2067 32.007 35.915L32.8752 36.7559C32.7157 36.9883 32.5083 37.2116 32.2531 37.4258C31.9979 37.6354 31.6857 37.8063 31.3166 37.9385C30.952 38.0706 30.5282 38.1367 30.0451 38.1367ZM36.124 32.1826V38H34.4766V30.6035H36.0283L36.124 32.1826ZM35.8301 34.0283L35.2969 34.0215C35.3014 33.4974 35.3743 33.0166 35.5156 32.5791C35.6615 32.1416 35.862 31.7656 36.1172 31.4512C36.377 31.1367 36.6868 30.8952 37.0469 30.7266C37.4069 30.5534 37.8079 30.4668 38.25 30.4668C38.6055 30.4668 38.9268 30.5169 39.2139 30.6172C39.5055 30.7129 39.7539 30.8701 39.959 31.0889C40.1686 31.3076 40.3281 31.5924 40.4375 31.9434C40.5469 32.2897 40.6016 32.7158 40.6016 33.2217V38H38.9473V33.2148C38.9473 32.8594 38.8949 32.5791 38.79 32.374C38.6898 32.1644 38.5417 32.0163 38.3457 31.9297C38.1543 31.8385 37.915 31.793 37.6279 31.793C37.3454 31.793 37.0924 31.8522 36.8691 31.9707C36.6458 32.0892 36.4567 32.251 36.3018 32.4561C36.1514 32.6611 36.0352 32.8981 35.9531 33.167C35.8711 33.4359 35.8301 33.723 35.8301 34.0283ZM45.8738 30.6035V31.8066H41.7039V30.6035H45.8738ZM42.907 28.792H44.5545V35.9561C44.5545 36.1839 44.5864 36.3594 44.6502 36.4824C44.7186 36.6009 44.812 36.6807 44.9305 36.7217C45.049 36.7627 45.188 36.7832 45.3475 36.7832C45.4614 36.7832 45.5708 36.7764 45.6756 36.7627C45.7804 36.749 45.8647 36.7354 45.9285 36.7217L45.9354 37.9795C45.7986 38.0205 45.6391 38.057 45.4568 38.0889C45.2791 38.1208 45.074 38.1367 44.8416 38.1367C44.4633 38.1367 44.1284 38.0706 43.8367 37.9385C43.5451 37.8018 43.3172 37.5807 43.1531 37.2754C42.9891 36.9701 42.907 36.5645 42.907 36.0586V28.792ZM54.0873 38H51.9613L51.975 36.6396H54.0873C54.7025 36.6396 55.2175 36.5052 55.6322 36.2363C56.0515 35.9674 56.3659 35.5824 56.5756 35.0811C56.7898 34.5798 56.8969 33.9827 56.8969 33.29V32.75C56.8969 32.2122 56.8354 31.736 56.7123 31.3213C56.5938 30.9066 56.4161 30.5579 56.1791 30.2754C55.9467 29.9928 55.6596 29.7786 55.3178 29.6328C54.9805 29.487 54.5909 29.4141 54.1488 29.4141H51.9203V28.0469H54.1488C54.8096 28.0469 55.4135 28.1585 55.9604 28.3818C56.5072 28.6006 56.9789 28.9173 57.3754 29.332C57.7764 29.7467 58.084 30.2435 58.2982 30.8223C58.5124 31.401 58.6195 32.0482 58.6195 32.7637V33.29C58.6195 34.0055 58.5124 34.6527 58.2982 35.2314C58.084 35.8102 57.7764 36.307 57.3754 36.7217C56.9743 37.1318 56.4958 37.4486 55.9398 37.6719C55.3884 37.8906 54.7709 38 54.0873 38ZM52.9115 28.0469V38H51.1957V28.0469H52.9115ZM63.6389 38.1367C63.092 38.1367 62.5975 38.0479 62.1555 37.8701C61.718 37.6878 61.3443 37.4349 61.0344 37.1113C60.729 36.7878 60.4943 36.4072 60.3303 35.9697C60.1662 35.5322 60.0842 35.0605 60.0842 34.5547V34.2812C60.0842 33.7025 60.1685 33.1784 60.3371 32.709C60.5057 32.2396 60.7404 31.8385 61.0412 31.5059C61.342 31.1686 61.6975 30.9111 62.1076 30.7334C62.5178 30.5557 62.9621 30.4668 63.4406 30.4668C63.9693 30.4668 64.4318 30.5557 64.8283 30.7334C65.2248 30.9111 65.5529 31.1618 65.8127 31.4854C66.077 31.8044 66.273 32.1849 66.4006 32.627C66.5327 33.069 66.5988 33.5566 66.5988 34.0898V34.7939H60.884V33.6113H64.9719V33.4814C64.9628 33.1852 64.9035 32.9072 64.7941 32.6475C64.6893 32.3877 64.5275 32.1781 64.3088 32.0186C64.09 31.859 63.7984 31.7793 63.4338 31.7793C63.1604 31.7793 62.9165 31.8385 62.7023 31.957C62.4927 32.071 62.3173 32.2373 62.176 32.4561C62.0347 32.6748 61.9253 32.9391 61.8479 33.249C61.7749 33.5544 61.7385 33.8984 61.7385 34.2812V34.5547C61.7385 34.8783 61.7818 35.179 61.8684 35.457C61.9595 35.7305 62.0917 35.9697 62.2648 36.1748C62.438 36.3799 62.6477 36.5417 62.8937 36.6602C63.1398 36.7741 63.4201 36.8311 63.7346 36.8311C64.1311 36.8311 64.4842 36.7513 64.7941 36.5918C65.104 36.4323 65.3729 36.2067 65.6008 35.915L66.4689 36.7559C66.3094 36.9883 66.1021 37.2116 65.8469 37.4258C65.5917 37.6354 65.2795 37.8063 64.9104 37.9385C64.5458 38.0706 64.1219 38.1367 63.6389 38.1367ZM71.4746 30.6035V31.8066H67.3047V30.6035H71.4746ZM68.5078 28.792H70.1553V35.9561C70.1553 36.1839 70.1872 36.3594 70.251 36.4824C70.3193 36.6009 70.4128 36.6807 70.5312 36.7217C70.6497 36.7627 70.7887 36.7832 70.9482 36.7832C71.0622 36.7832 71.1715 36.7764 71.2764 36.7627C71.3812 36.749 71.4655 36.7354 71.5293 36.7217L71.5361 37.9795C71.3994 38.0205 71.2399 38.057 71.0576 38.0889C70.8799 38.1208 70.6748 38.1367 70.4424 38.1367C70.0641 38.1367 69.7292 38.0706 69.4375 37.9385C69.1458 37.8018 68.918 37.5807 68.7539 37.2754C68.5898 36.9701 68.5078 36.5645 68.5078 36.0586V28.792ZM77.116 36.5166V32.9893C77.116 32.7249 77.0682 32.4971 76.9725 32.3057C76.8768 32.1143 76.7309 31.9661 76.535 31.8613C76.3436 31.7565 76.102 31.7041 75.8103 31.7041C75.5415 31.7041 75.309 31.7497 75.1131 31.8408C74.9171 31.932 74.7645 32.055 74.6551 32.21C74.5457 32.3649 74.491 32.5404 74.491 32.7363H72.8504C72.8504 32.4447 72.921 32.1621 73.0623 31.8887C73.2036 31.6152 73.4087 31.3714 73.6775 31.1572C73.9464 30.943 74.2677 30.7744 74.6414 30.6514C75.0151 30.5283 75.4344 30.4668 75.8992 30.4668C76.4552 30.4668 76.9474 30.5602 77.3758 30.7471C77.8087 30.9339 78.1482 31.2165 78.3943 31.5947C78.645 31.9684 78.7703 32.4378 78.7703 33.0029V36.291C78.7703 36.6283 78.7931 36.9313 78.8387 37.2002C78.8888 37.4645 78.9594 37.6947 79.0506 37.8906V38H77.3621C77.2846 37.8223 77.2231 37.5967 77.1775 37.3232C77.1365 37.0452 77.116 36.7764 77.116 36.5166ZM77.3553 33.502L77.3689 34.5205H76.1863C75.881 34.5205 75.6121 34.5501 75.3797 34.6094C75.1473 34.6641 74.9536 34.7461 74.7986 34.8555C74.6437 34.9648 74.5275 35.097 74.45 35.252C74.3725 35.4069 74.3338 35.5824 74.3338 35.7783C74.3338 35.9743 74.3794 36.1543 74.4705 36.3184C74.5617 36.4779 74.6938 36.6032 74.867 36.6943C75.0447 36.7855 75.2589 36.8311 75.5096 36.8311C75.8468 36.8311 76.1408 36.7627 76.3914 36.626C76.6466 36.4847 76.8471 36.3138 76.993 36.1133C77.1388 35.9082 77.2163 35.7145 77.2254 35.5322L77.7586 36.2637C77.7039 36.4505 77.6105 36.651 77.4783 36.8652C77.3462 37.0794 77.173 37.2845 76.9588 37.4805C76.7492 37.6719 76.4962 37.8291 76.2 37.9521C75.9083 38.0752 75.5711 38.1367 75.1883 38.1367C74.7052 38.1367 74.2745 38.041 73.8963 37.8496C73.518 37.6536 73.2218 37.3916 73.0076 37.0635C72.7934 36.7308 72.6863 36.3548 72.6863 35.9355C72.6863 35.5436 72.7592 35.1973 72.9051 34.8965C73.0555 34.5911 73.2742 34.3359 73.5613 34.1309C73.853 33.9258 74.2085 33.7708 74.6277 33.666C75.047 33.5566 75.5255 33.502 76.0633 33.502H77.3553ZM82.4566 30.6035V38H80.8023V30.6035H82.4566ZM80.693 28.6621C80.693 28.4115 80.775 28.2041 80.9391 28.04C81.1077 27.8714 81.3401 27.7871 81.6363 27.7871C81.928 27.7871 82.1581 27.8714 82.3268 28.04C82.4954 28.2041 82.5797 28.4115 82.5797 28.6621C82.5797 28.9082 82.4954 29.1133 82.3268 29.2773C82.1581 29.4414 81.928 29.5234 81.6363 29.5234C81.3401 29.5234 81.1077 29.4414 80.9391 29.2773C80.775 29.1133 80.693 28.9082 80.693 28.6621ZM86.225 27.5V38H84.5707V27.5H86.225ZM92.3791 35.9971C92.3791 35.833 92.3381 35.6849 92.2561 35.5527C92.174 35.416 92.0168 35.293 91.7844 35.1836C91.5565 35.0742 91.2193 34.974 90.7727 34.8828C90.3807 34.7962 90.0207 34.6937 89.6926 34.5752C89.369 34.4521 89.091 34.304 88.8586 34.1309C88.6262 33.9577 88.4462 33.7526 88.3186 33.5156C88.191 33.2786 88.1272 33.0052 88.1272 32.6953C88.1272 32.3945 88.1932 32.1097 88.3254 31.8408C88.4576 31.5719 88.6467 31.335 88.8928 31.1299C89.1389 30.9248 89.4374 30.763 89.7883 30.6445C90.1438 30.526 90.5402 30.4668 90.9777 30.4668C91.5975 30.4668 92.1285 30.5716 92.5705 30.7812C93.0171 30.9863 93.3589 31.2666 93.5959 31.6221C93.8329 31.973 93.9514 32.3695 93.9514 32.8115H92.3039C92.3039 32.6156 92.2538 32.4333 92.1535 32.2646C92.0578 32.0915 91.912 31.9525 91.716 31.8477C91.5201 31.7383 91.274 31.6836 90.9777 31.6836C90.6952 31.6836 90.4605 31.7292 90.2736 31.8203C90.0913 31.9069 89.9546 32.0208 89.8635 32.1621C89.7769 32.3034 89.7336 32.4583 89.7336 32.627C89.7336 32.75 89.7564 32.8617 89.802 32.9619C89.8521 33.0576 89.9341 33.1465 90.048 33.2285C90.162 33.306 90.3169 33.3789 90.5129 33.4473C90.7134 33.5156 90.9641 33.5817 91.2648 33.6455C91.83 33.764 92.3153 33.9167 92.7209 34.1035C93.1311 34.2858 93.4455 34.5228 93.6643 34.8145C93.883 35.1016 93.9924 35.4661 93.9924 35.9082C93.9924 36.2363 93.9217 36.5371 93.7805 36.8105C93.6438 37.0794 93.4432 37.3141 93.1789 37.5146C92.9146 37.7106 92.5979 37.8633 92.2287 37.9727C91.8641 38.082 91.454 38.1367 90.9982 38.1367C90.3283 38.1367 89.7609 38.0182 89.2961 37.7812C88.8313 37.5397 88.4781 37.2321 88.2365 36.8584C87.9995 36.4801 87.8811 36.0882 87.8811 35.6826H89.4738C89.4921 35.988 89.5764 36.2318 89.7268 36.4141C89.8817 36.5918 90.0731 36.7217 90.301 36.8037C90.5334 36.8812 90.7727 36.9199 91.0188 36.9199C91.315 36.9199 91.5633 36.8812 91.7639 36.8037C91.9644 36.7217 92.1171 36.6123 92.2219 36.4756C92.3267 36.3343 92.3791 36.1748 92.3791 35.9971Z" fill="black"/>
<rect x="189.5" y="0.5" width="19" height="19" rx="9.5" fill="white"/>
<rect x="189.5" y="0.5" width="19" height="19" rx="9.5" stroke="#D0D5DD"/>
<path d="M144.244 33.502H141.708L141.694 32.251H143.909C144.283 32.251 144.6 32.1963 144.859 32.0869C145.124 31.973 145.324 31.8112 145.461 31.6016C145.598 31.3874 145.666 31.1299 145.666 30.8291C145.666 30.4964 145.602 30.2253 145.475 30.0156C145.347 29.806 145.151 29.6533 144.887 29.5576C144.627 29.4619 144.294 29.4141 143.889 29.4141H142.228V38H140.512V28.0469H143.889C144.436 28.0469 144.923 28.0993 145.352 28.2041C145.785 28.3089 146.151 28.473 146.452 28.6963C146.757 28.915 146.988 29.193 147.143 29.5303C147.302 29.8675 147.382 30.2686 147.382 30.7334C147.382 31.1436 147.284 31.5195 147.088 31.8613C146.892 32.1986 146.603 32.4743 146.22 32.6885C145.837 32.9027 145.361 33.0303 144.791 33.0713L144.244 33.502ZM144.169 38H141.168L141.94 36.6396H144.169C144.556 36.6396 144.88 36.5758 145.14 36.4482C145.399 36.3161 145.593 36.1361 145.721 35.9082C145.853 35.6758 145.919 35.4046 145.919 35.0947C145.919 34.7712 145.862 34.4909 145.748 34.2539C145.634 34.0124 145.454 33.8278 145.208 33.7002C144.962 33.568 144.641 33.502 144.244 33.502H142.316L142.33 32.251H144.839L145.229 32.7227C145.775 32.7409 146.224 32.8617 146.575 33.085C146.931 33.3083 147.195 33.5977 147.368 33.9531C147.541 34.3086 147.628 34.6914 147.628 35.1016C147.628 35.735 147.489 36.266 147.211 36.6943C146.938 37.1227 146.543 37.4486 146.028 37.6719C145.513 37.8906 144.894 38 144.169 38ZM149.079 34.3838V34.2266C149.079 33.6934 149.156 33.1989 149.311 32.7432C149.466 32.2829 149.69 31.8841 149.981 31.5469C150.277 31.2051 150.637 30.9408 151.061 30.7539C151.49 30.5625 151.973 30.4668 152.511 30.4668C153.053 30.4668 153.536 30.5625 153.96 30.7539C154.388 30.9408 154.75 31.2051 155.047 31.5469C155.343 31.8841 155.568 32.2829 155.723 32.7432C155.878 33.1989 155.956 33.6934 155.956 34.2266V34.3838C155.956 34.917 155.878 35.4115 155.723 35.8672C155.568 36.3229 155.343 36.7217 155.047 37.0635C154.75 37.4007 154.39 37.665 153.967 37.8564C153.543 38.0433 153.062 38.1367 152.524 38.1367C151.982 38.1367 151.497 38.0433 151.068 37.8564C150.644 37.665 150.284 37.4007 149.988 37.0635C149.692 36.7217 149.466 36.3229 149.311 35.8672C149.156 35.4115 149.079 34.917 149.079 34.3838ZM150.726 34.2266V34.3838C150.726 34.7165 150.761 35.0309 150.829 35.3271C150.897 35.6234 151.004 35.8831 151.15 36.1064C151.296 36.3298 151.483 36.5052 151.711 36.6328C151.939 36.7604 152.21 36.8242 152.524 36.8242C152.83 36.8242 153.094 36.7604 153.317 36.6328C153.545 36.5052 153.732 36.3298 153.878 36.1064C154.024 35.8831 154.131 35.6234 154.199 35.3271C154.272 35.0309 154.308 34.7165 154.308 34.3838V34.2266C154.308 33.8984 154.272 33.5885 154.199 33.2969C154.131 33.0007 154.021 32.7386 153.871 32.5107C153.725 32.2829 153.538 32.1051 153.31 31.9775C153.087 31.8454 152.82 31.7793 152.511 31.7793C152.201 31.7793 151.932 31.8454 151.704 31.9775C151.481 32.1051 151.296 32.2829 151.15 32.5107C151.004 32.7386 150.897 33.0007 150.829 33.2969C150.761 33.5885 150.726 33.8984 150.726 34.2266ZM157.222 34.3838V34.2266C157.222 33.6934 157.3 33.1989 157.455 32.7432C157.61 32.2829 157.833 31.8841 158.125 31.5469C158.421 31.2051 158.781 30.9408 159.205 30.7539C159.633 30.5625 160.116 30.4668 160.654 30.4668C161.196 30.4668 161.679 30.5625 162.103 30.7539C162.532 30.9408 162.894 31.2051 163.19 31.5469C163.486 31.8841 163.712 32.2829 163.867 32.7432C164.022 33.1989 164.099 33.6934 164.099 34.2266V34.3838C164.099 34.917 164.022 35.4115 163.867 35.8672C163.712 36.3229 163.486 36.7217 163.19 37.0635C162.894 37.4007 162.534 37.665 162.11 37.8564C161.686 38.0433 161.205 38.1367 160.668 38.1367C160.125 38.1367 159.64 38.0433 159.212 37.8564C158.788 37.665 158.428 37.4007 158.131 37.0635C157.835 36.7217 157.61 36.3229 157.455 35.8672C157.3 35.4115 157.222 34.917 157.222 34.3838ZM158.87 34.2266V34.3838C158.87 34.7165 158.904 35.0309 158.972 35.3271C159.041 35.6234 159.148 35.8831 159.294 36.1064C159.439 36.3298 159.626 36.5052 159.854 36.6328C160.082 36.7604 160.353 36.8242 160.668 36.8242C160.973 36.8242 161.237 36.7604 161.461 36.6328C161.688 36.5052 161.875 36.3298 162.021 36.1064C162.167 35.8831 162.274 35.6234 162.342 35.3271C162.415 35.0309 162.452 34.7165 162.452 34.3838V34.2266C162.452 33.8984 162.415 33.5885 162.342 33.2969C162.274 33.0007 162.165 32.7386 162.014 32.5107C161.868 32.2829 161.682 32.1051 161.454 31.9775C161.23 31.8454 160.964 31.7793 160.654 31.7793C160.344 31.7793 160.075 31.8454 159.847 31.9775C159.624 32.1051 159.439 32.2829 159.294 32.5107C159.148 32.7386 159.041 33.0007 158.972 33.2969C158.904 33.5885 158.87 33.8984 158.87 34.2266ZM167.341 27.5V38H165.687V27.5H167.341ZM171.935 30.6035L168.715 34.1719L166.952 35.9766L166.521 34.582L167.854 32.9346L169.946 30.6035H171.935ZM170.301 38L167.902 34.5273L168.941 33.3721L172.208 38H170.301ZM182.91 34.7598H184.619C184.564 35.4115 184.382 35.9925 184.072 36.5029C183.762 37.0088 183.327 37.4076 182.767 37.6992C182.206 37.9909 181.525 38.1367 180.723 38.1367C180.107 38.1367 179.554 38.0273 179.062 37.8086C178.569 37.5853 178.148 37.2708 177.797 36.8652C177.446 36.4551 177.177 35.9606 176.99 35.3818C176.808 34.8031 176.717 34.1559 176.717 33.4404V32.6133C176.717 31.8978 176.81 31.2507 176.997 30.6719C177.188 30.0931 177.462 29.5986 177.817 29.1885C178.173 28.7738 178.599 28.457 179.096 28.2383C179.597 28.0195 180.16 27.9102 180.784 27.9102C181.577 27.9102 182.247 28.056 182.794 28.3477C183.341 28.6393 183.765 29.0426 184.065 29.5576C184.371 30.0726 184.558 30.6628 184.626 31.3281H182.917C182.871 30.8997 182.771 30.5329 182.616 30.2275C182.466 29.9222 182.243 29.6898 181.946 29.5303C181.65 29.3662 181.263 29.2842 180.784 29.2842C180.392 29.2842 180.05 29.3571 179.759 29.5029C179.467 29.6488 179.223 29.863 179.027 30.1455C178.831 30.4281 178.683 30.7767 178.583 31.1914C178.487 31.6016 178.439 32.071 178.439 32.5996V33.4404C178.439 33.9417 178.483 34.3975 178.569 34.8076C178.66 35.2132 178.797 35.5618 178.979 35.8535C179.166 36.1452 179.403 36.3708 179.69 36.5303C179.978 36.6898 180.322 36.7695 180.723 36.7695C181.21 36.7695 181.604 36.6921 181.905 36.5371C182.211 36.3822 182.441 36.1566 182.596 35.8604C182.755 35.5596 182.86 35.1927 182.91 34.7598ZM185.899 34.3838V34.2266C185.899 33.6934 185.977 33.1989 186.132 32.7432C186.287 32.2829 186.51 31.8841 186.802 31.5469C187.098 31.2051 187.458 30.9408 187.882 30.7539C188.31 30.5625 188.793 30.4668 189.331 30.4668C189.873 30.4668 190.356 30.5625 190.78 30.7539C191.208 30.9408 191.571 31.2051 191.867 31.5469C192.163 31.8841 192.389 32.2829 192.544 32.7432C192.699 33.1989 192.776 33.6934 192.776 34.2266V34.3838C192.776 34.917 192.699 35.4115 192.544 35.8672C192.389 36.3229 192.163 36.7217 191.867 37.0635C191.571 37.4007 191.211 37.665 190.787 37.8564C190.363 38.0433 189.882 38.1367 189.345 38.1367C188.802 38.1367 188.317 38.0433 187.888 37.8564C187.465 37.665 187.105 37.4007 186.808 37.0635C186.512 36.7217 186.287 36.3229 186.132 35.8672C185.977 35.4115 185.899 34.917 185.899 34.3838ZM187.547 34.2266V34.3838C187.547 34.7165 187.581 35.0309 187.649 35.3271C187.718 35.6234 187.825 35.8831 187.971 36.1064C188.116 36.3298 188.303 36.5052 188.531 36.6328C188.759 36.7604 189.03 36.8242 189.345 36.8242C189.65 36.8242 189.914 36.7604 190.138 36.6328C190.365 36.5052 190.552 36.3298 190.698 36.1064C190.844 35.8831 190.951 35.6234 191.019 35.3271C191.092 35.0309 191.129 34.7165 191.129 34.3838V34.2266C191.129 33.8984 191.092 33.5885 191.019 33.2969C190.951 33.0007 190.842 32.7386 190.691 32.5107C190.545 32.2829 190.359 32.1051 190.131 31.9775C189.907 31.8454 189.641 31.7793 189.331 31.7793C189.021 31.7793 188.752 31.8454 188.524 31.9775C188.301 32.1051 188.116 32.2829 187.971 32.5107C187.825 32.7386 187.718 33.0007 187.649 33.2969C187.581 33.5885 187.547 33.8984 187.547 34.2266ZM195.991 32.1826V38H194.343V30.6035H195.895L195.991 32.1826ZM195.697 34.0283L195.164 34.0215C195.168 33.4974 195.241 33.0166 195.382 32.5791C195.528 32.1416 195.729 31.7656 195.984 31.4512C196.244 31.1367 196.554 30.8952 196.914 30.7266C197.274 30.5534 197.675 30.4668 198.117 30.4668C198.472 30.4668 198.794 30.5169 199.081 30.6172C199.372 30.7129 199.621 30.8701 199.826 31.0889C200.035 31.3076 200.195 31.5924 200.304 31.9434C200.414 32.2897 200.468 32.7158 200.468 33.2217V38H198.814V33.2148C198.814 32.8594 198.762 32.5791 198.657 32.374C198.557 32.1644 198.408 32.0163 198.213 31.9297C198.021 31.8385 197.782 31.793 197.495 31.793C197.212 31.793 196.959 31.8522 196.736 31.9707C196.513 32.0892 196.324 32.251 196.169 32.4561C196.018 32.6611 195.902 32.8981 195.82 33.167C195.738 33.4359 195.697 33.723 195.697 34.0283ZM206.499 35.9971C206.499 35.833 206.458 35.6849 206.376 35.5527C206.294 35.416 206.137 35.293 205.905 35.1836C205.677 35.0742 205.34 34.974 204.893 34.8828C204.501 34.7962 204.141 34.6937 203.813 34.5752C203.489 34.4521 203.211 34.304 202.979 34.1309C202.746 33.9577 202.566 33.7526 202.439 33.5156C202.311 33.2786 202.247 33.0052 202.247 32.6953C202.247 32.3945 202.314 32.1097 202.446 31.8408C202.578 31.5719 202.767 31.335 203.013 31.1299C203.259 30.9248 203.558 30.763 203.909 30.6445C204.264 30.526 204.661 30.4668 205.098 30.4668C205.718 30.4668 206.249 30.5716 206.691 30.7812C207.137 30.9863 207.479 31.2666 207.716 31.6221C207.953 31.973 208.072 32.3695 208.072 32.8115H206.424C206.424 32.6156 206.374 32.4333 206.274 32.2646C206.178 32.0915 206.032 31.9525 205.836 31.8477C205.64 31.7383 205.394 31.6836 205.098 31.6836C204.815 31.6836 204.581 31.7292 204.394 31.8203C204.212 31.9069 204.075 32.0208 203.984 32.1621C203.897 32.3034 203.854 32.4583 203.854 32.627C203.854 32.75 203.877 32.8617 203.922 32.9619C203.972 33.0576 204.054 33.1465 204.168 33.2285C204.282 33.306 204.437 33.3789 204.633 33.4473C204.834 33.5156 205.084 33.5817 205.385 33.6455C205.95 33.764 206.436 33.9167 206.841 34.1035C207.251 34.2858 207.566 34.5228 207.785 34.8145C208.003 35.1016 208.113 35.4661 208.113 35.9082C208.113 36.2363 208.042 36.5371 207.901 36.8105C207.764 37.0794 207.564 37.3141 207.299 37.5146C207.035 37.7106 206.718 37.8633 206.349 37.9727C205.984 38.082 205.574 38.1367 205.119 38.1367C204.449 38.1367 203.881 38.0182 203.416 37.7812C202.952 37.5397 202.598 37.2321 202.357 36.8584C202.12 36.4801 202.001 36.0882 202.001 35.6826H203.594C203.612 35.988 203.697 36.2318 203.847 36.4141C204.002 36.5918 204.193 36.7217 204.421 36.8037C204.654 36.8812 204.893 36.9199 205.139 36.9199C205.435 36.9199 205.684 36.8812 205.884 36.8037C206.085 36.7217 206.237 36.6123 206.342 36.4756C206.447 36.3343 206.499 36.1748 206.499 35.9971ZM214.205 36.2568V30.6035H215.86V38H214.301L214.205 36.2568ZM214.438 34.7188L214.991 34.7051C214.991 35.2018 214.937 35.6598 214.827 36.0791C214.718 36.4938 214.549 36.8561 214.321 37.166C214.094 37.4714 213.802 37.7106 213.446 37.8838C213.091 38.0524 212.665 38.1367 212.168 38.1367C211.808 38.1367 211.478 38.0843 211.177 37.9795C210.876 37.8747 210.616 37.7129 210.398 37.4941C210.183 37.2754 210.017 36.9906 209.899 36.6396C209.78 36.2887 209.721 35.8695 209.721 35.3818V30.6035H211.368V35.3955C211.368 35.6644 211.4 35.89 211.464 36.0723C211.528 36.25 211.614 36.3936 211.724 36.5029C211.833 36.6123 211.961 36.6898 212.107 36.7354C212.252 36.7809 212.407 36.8037 212.571 36.8037C213.041 36.8037 213.41 36.7126 213.679 36.5303C213.952 36.3434 214.146 36.0928 214.26 35.7783C214.378 35.4639 214.438 35.1107 214.438 34.7188ZM219.512 27.5V38H217.857V27.5H219.512ZM224.907 30.6035V31.8066H220.737V30.6035H224.907ZM221.94 28.792H223.588V35.9561C223.588 36.1839 223.62 36.3594 223.683 36.4824C223.752 36.6009 223.845 36.6807 223.964 36.7217C224.082 36.7627 224.221 36.7832 224.381 36.7832C224.495 36.7832 224.604 36.7764 224.709 36.7627C224.814 36.749 224.898 36.7354 224.962 36.7217L224.969 37.9795C224.832 38.0205 224.672 38.057 224.49 38.0889C224.312 38.1208 224.107 38.1367 223.875 38.1367C223.497 38.1367 223.162 38.0706 222.87 37.9385C222.578 37.8018 222.35 37.5807 222.186 37.2754C222.022 36.9701 221.94 36.5645 221.94 36.0586V28.792ZM230.548 36.5166V32.9893C230.548 32.7249 230.501 32.4971 230.405 32.3057C230.309 32.1143 230.163 31.9661 229.967 31.8613C229.776 31.7565 229.534 31.7041 229.243 31.7041C228.974 31.7041 228.741 31.7497 228.546 31.8408C228.35 31.932 228.197 32.055 228.088 32.21C227.978 32.3649 227.923 32.5404 227.923 32.7363H226.283C226.283 32.4447 226.353 32.1621 226.495 31.8887C226.636 31.6152 226.841 31.3714 227.11 31.1572C227.379 30.943 227.7 30.7744 228.074 30.6514C228.448 30.5283 228.867 30.4668 229.332 30.4668C229.888 30.4668 230.38 30.5602 230.808 30.7471C231.241 30.9339 231.581 31.2165 231.827 31.5947C232.077 31.9684 232.203 32.4378 232.203 33.0029V36.291C232.203 36.6283 232.226 36.9313 232.271 37.2002C232.321 37.4645 232.392 37.6947 232.483 37.8906V38H230.795C230.717 37.8223 230.656 37.5967 230.61 37.3232C230.569 37.0452 230.548 36.7764 230.548 36.5166ZM230.788 33.502L230.801 34.5205H229.619C229.313 34.5205 229.045 34.5501 228.812 34.6094C228.58 34.6641 228.386 34.7461 228.231 34.8555C228.076 34.9648 227.96 35.097 227.882 35.252C227.805 35.4069 227.766 35.5824 227.766 35.7783C227.766 35.9743 227.812 36.1543 227.903 36.3184C227.994 36.4779 228.126 36.6032 228.299 36.6943C228.477 36.7855 228.691 36.8311 228.942 36.8311C229.279 36.8311 229.573 36.7627 229.824 36.626C230.079 36.4847 230.28 36.3138 230.425 36.1133C230.571 35.9082 230.649 35.7145 230.658 35.5322L231.191 36.2637C231.136 36.4505 231.043 36.651 230.911 36.8652C230.779 37.0794 230.605 37.2845 230.391 37.4805C230.182 37.6719 229.929 37.8291 229.632 37.9521C229.341 38.0752 229.004 38.1367 228.621 38.1367C228.138 38.1367 227.707 38.041 227.329 37.8496C226.95 37.6536 226.654 37.3916 226.44 37.0635C226.226 36.7308 226.119 36.3548 226.119 35.9355C226.119 35.5436 226.192 35.1973 226.338 34.8965C226.488 34.5911 226.707 34.3359 226.994 34.1309C227.285 33.9258 227.641 33.7708 228.06 33.666C228.479 33.5566 228.958 33.502 229.496 33.502H230.788ZM237.516 30.6035V31.8066H233.346V30.6035H237.516ZM234.549 28.792H236.197V35.9561C236.197 36.1839 236.229 36.3594 236.292 36.4824C236.361 36.6009 236.454 36.6807 236.573 36.7217C236.691 36.7627 236.83 36.7832 236.99 36.7832C237.104 36.7832 237.213 36.7764 237.318 36.7627C237.423 36.749 237.507 36.7354 237.571 36.7217L237.578 37.9795C237.441 38.0205 237.281 38.057 237.099 38.0889C236.921 38.1208 236.716 38.1367 236.484 38.1367C236.106 38.1367 235.771 38.0706 235.479 37.9385C235.187 37.8018 234.959 37.5807 234.795 37.2754C234.631 36.9701 234.549 36.5645 234.549 36.0586V28.792ZM240.751 30.6035V38H239.097V30.6035H240.751ZM238.988 28.6621C238.988 28.4115 239.07 28.2041 239.234 28.04C239.402 27.8714 239.635 27.7871 239.931 27.7871C240.223 27.7871 240.453 27.8714 240.621 28.04C240.79 28.2041 240.874 28.4115 240.874 28.6621C240.874 28.9082 240.79 29.1133 240.621 29.2773C240.453 29.4414 240.223 29.5234 239.931 29.5234C239.635 29.5234 239.402 29.4414 239.234 29.2773C239.07 29.1133 238.988 28.9082 238.988 28.6621ZM242.441 34.3838V34.2266C242.441 33.6934 242.519 33.1989 242.674 32.7432C242.829 32.2829 243.052 31.8841 243.344 31.5469C243.64 31.2051 244 30.9408 244.424 30.7539C244.852 30.5625 245.335 30.4668 245.873 30.4668C246.415 30.4668 246.898 30.5625 247.322 30.7539C247.751 30.9408 248.113 31.2051 248.409 31.5469C248.705 31.8841 248.931 32.2829 249.086 32.7432C249.241 33.1989 249.318 33.6934 249.318 34.2266V34.3838C249.318 34.917 249.241 35.4115 249.086 35.8672C248.931 36.3229 248.705 36.7217 248.409 37.0635C248.113 37.4007 247.753 37.665 247.329 37.8564C246.905 38.0433 246.424 38.1367 245.887 38.1367C245.344 38.1367 244.859 38.0433 244.431 37.8564C244.007 37.665 243.647 37.4007 243.351 37.0635C243.054 36.7217 242.829 36.3229 242.674 35.8672C242.519 35.4115 242.441 34.917 242.441 34.3838ZM244.089 34.2266V34.3838C244.089 34.7165 244.123 35.0309 244.191 35.3271C244.26 35.6234 244.367 35.8831 244.513 36.1064C244.659 36.3298 244.845 36.5052 245.073 36.6328C245.301 36.7604 245.572 36.8242 245.887 36.8242C246.192 36.8242 246.456 36.7604 246.68 36.6328C246.908 36.5052 247.094 36.3298 247.24 36.1064C247.386 35.8831 247.493 35.6234 247.562 35.3271C247.634 35.0309 247.671 34.7165 247.671 34.3838V34.2266C247.671 33.8984 247.634 33.5885 247.562 33.2969C247.493 33.0007 247.384 32.7386 247.233 32.5107C247.088 32.2829 246.901 32.1051 246.673 31.9775C246.45 31.8454 246.183 31.7793 245.873 31.7793C245.563 31.7793 245.294 31.8454 245.066 31.9775C244.843 32.1051 244.659 32.2829 244.513 32.5107C244.367 32.7386 244.26 33.0007 244.191 33.2969C244.123 33.5885 244.089 33.8984 244.089 34.2266ZM252.533 32.1826V38H250.886V30.6035H252.437L252.533 32.1826ZM252.239 34.0283L251.706 34.0215C251.71 33.4974 251.783 33.0166 251.925 32.5791C252.07 32.1416 252.271 31.7656 252.526 31.4512C252.786 31.1367 253.096 30.8952 253.456 30.7266C253.816 30.5534 254.217 30.4668 254.659 30.4668C255.014 30.4668 255.336 30.5169 255.623 30.6172C255.915 30.7129 256.163 30.8701 256.368 31.0889C256.578 31.3076 256.737 31.5924 256.846 31.9434C256.956 32.2897 257.011 32.7158 257.011 33.2217V38H255.356V33.2148C255.356 32.8594 255.304 32.5791 255.199 32.374C255.099 32.1644 254.951 32.0163 254.755 31.9297C254.563 31.8385 254.324 31.793 254.037 31.793C253.754 31.793 253.501 31.8522 253.278 31.9707C253.055 32.0892 252.866 32.251 252.711 32.4561C252.56 32.6611 252.444 32.8981 252.362 33.167C252.28 33.4359 252.239 33.723 252.239 34.0283Z" fill="black"/>
<rect x="341" y="0.5" width="19" height="19" rx="9.5" fill="white"/>
<rect x="341" y="0.5" width="19" height="19" rx="9.5" stroke="#D0D5DD"/>
<path d="M304.209 28.0469H305.74L308.618 35.7236L311.489 28.0469H313.021L309.22 38H308.003L304.209 28.0469ZM303.512 28.0469H304.968L305.221 34.6914V38H303.512V28.0469ZM312.262 28.0469H313.725V38H312.009V34.6914L312.262 28.0469ZM319.968 36.5166V32.9893C319.968 32.7249 319.92 32.4971 319.824 32.3057C319.728 32.1143 319.582 31.9661 319.387 31.8613C319.195 31.7565 318.954 31.7041 318.662 31.7041C318.393 31.7041 318.161 31.7497 317.965 31.8408C317.769 31.932 317.616 32.055 317.507 32.21C317.397 32.3649 317.343 32.5404 317.343 32.7363H315.702C315.702 32.4447 315.773 32.1621 315.914 31.8887C316.055 31.6152 316.26 31.3714 316.529 31.1572C316.798 30.943 317.119 30.7744 317.493 30.6514C317.867 30.5283 318.286 30.4668 318.751 30.4668C319.307 30.4668 319.799 30.5602 320.227 30.7471C320.66 30.9339 321 31.2165 321.246 31.5947C321.497 31.9684 321.622 32.4378 321.622 33.0029V36.291C321.622 36.6283 321.645 36.9313 321.69 37.2002C321.74 37.4645 321.811 37.6947 321.902 37.8906V38H320.214C320.136 37.8223 320.075 37.5967 320.029 37.3232C319.988 37.0452 319.968 36.7764 319.968 36.5166ZM320.207 33.502L320.221 34.5205H319.038C318.733 34.5205 318.464 34.5501 318.231 34.6094C317.999 34.6641 317.805 34.7461 317.65 34.8555C317.495 34.9648 317.379 35.097 317.302 35.252C317.224 35.4069 317.185 35.5824 317.185 35.7783C317.185 35.9743 317.231 36.1543 317.322 36.3184C317.413 36.4779 317.545 36.6032 317.719 36.6943C317.896 36.7855 318.11 36.8311 318.361 36.8311C318.698 36.8311 318.992 36.7627 319.243 36.626C319.498 36.4847 319.699 36.3138 319.845 36.1133C319.99 35.9082 320.068 35.7145 320.077 35.5322L320.61 36.2637C320.555 36.4505 320.462 36.651 320.33 36.8652C320.198 37.0794 320.025 37.2845 319.81 37.4805C319.601 37.6719 319.348 37.8291 319.052 37.9521C318.76 38.0752 318.423 38.1367 318.04 38.1367C317.557 38.1367 317.126 38.041 316.748 37.8496C316.37 37.6536 316.073 37.3916 315.859 37.0635C315.645 36.7308 315.538 36.3548 315.538 35.9355C315.538 35.5436 315.611 35.1973 315.757 34.8965C315.907 34.5911 316.126 34.3359 316.413 34.1309C316.705 33.9258 317.06 33.7708 317.479 33.666C317.899 33.5566 318.377 33.502 318.915 33.502H320.207ZM325.206 27.5V38H323.551V27.5H325.206ZM329.799 30.6035L326.58 34.1719L324.816 35.9766L324.385 34.582L325.718 32.9346L327.81 30.6035H329.799ZM328.166 38L325.766 34.5273L326.805 33.3721L330.073 38H328.166ZM334.169 38.1367C333.622 38.1367 333.128 38.0479 332.686 37.8701C332.248 37.6878 331.875 37.4349 331.565 37.1113C331.26 36.7878 331.025 36.4072 330.861 35.9697C330.697 35.5322 330.615 35.0605 330.615 34.5547V34.2812C330.615 33.7025 330.699 33.1784 330.868 32.709C331.036 32.2396 331.271 31.8385 331.572 31.5059C331.872 31.1686 332.228 30.9111 332.638 30.7334C333.048 30.5557 333.493 30.4668 333.971 30.4668C334.5 30.4668 334.962 30.5557 335.359 30.7334C335.755 30.9111 336.083 31.1618 336.343 31.4854C336.607 31.8044 336.803 32.1849 336.931 32.627C337.063 33.069 337.129 33.5566 337.129 34.0898V34.7939H331.414V33.6113H335.502V33.4814C335.493 33.1852 335.434 32.9072 335.325 32.6475C335.22 32.3877 335.058 32.1781 334.839 32.0186C334.621 31.859 334.329 31.7793 333.964 31.7793C333.691 31.7793 333.447 31.8385 333.233 31.957C333.023 32.071 332.848 32.2373 332.706 32.4561C332.565 32.6748 332.456 32.9391 332.378 33.249C332.305 33.5544 332.269 33.8984 332.269 34.2812V34.5547C332.269 34.8783 332.312 35.179 332.399 35.457C332.49 35.7305 332.622 35.9697 332.795 36.1748C332.968 36.3799 333.178 36.5417 333.424 36.6602C333.67 36.7741 333.951 36.8311 334.265 36.8311C334.662 36.8311 335.015 36.7513 335.325 36.5918C335.635 36.4323 335.903 36.2067 336.131 35.915L336.999 36.7559C336.84 36.9883 336.633 37.2116 336.377 37.4258C336.122 37.6354 335.81 37.8063 335.441 37.9385C335.076 38.0706 334.652 38.1367 334.169 38.1367ZM346.245 34.2881H343.654V32.9277H346.245C346.696 32.9277 347.061 32.8548 347.339 32.709C347.617 32.5632 347.82 32.3626 347.947 32.1074C348.079 31.8477 348.146 31.5514 348.146 31.2188C348.146 30.9043 348.079 30.6104 347.947 30.3369C347.82 30.0589 347.617 29.8356 347.339 29.667C347.061 29.4984 346.696 29.4141 346.245 29.4141H344.181V38H342.465V28.0469H346.245C347.015 28.0469 347.669 28.1836 348.207 28.457C348.749 28.7259 349.162 29.0996 349.444 29.5781C349.727 30.0521 349.868 30.5944 349.868 31.2051C349.868 31.8477 349.727 32.3991 349.444 32.8594C349.162 33.3197 348.749 33.6729 348.207 33.9189C347.669 34.165 347.015 34.2881 346.245 34.2881ZM355.53 36.5166V32.9893C355.53 32.7249 355.482 32.4971 355.387 32.3057C355.291 32.1143 355.145 31.9661 354.949 31.8613C354.758 31.7565 354.516 31.7041 354.224 31.7041C353.956 31.7041 353.723 31.7497 353.527 31.8408C353.331 31.932 353.179 32.055 353.069 32.21C352.96 32.3649 352.905 32.5404 352.905 32.7363H351.264C351.264 32.4447 351.335 32.1621 351.476 31.8887C351.618 31.6152 351.823 31.3714 352.092 31.1572C352.36 30.943 352.682 30.7744 353.055 30.6514C353.429 30.5283 353.848 30.4668 354.313 30.4668C354.869 30.4668 355.361 30.5602 355.79 30.7471C356.223 30.9339 356.562 31.2165 356.808 31.5947C357.059 31.9684 357.184 32.4378 357.184 33.0029V36.291C357.184 36.6283 357.207 36.9313 357.253 37.2002C357.303 37.4645 357.374 37.6947 357.465 37.8906V38H355.776C355.699 37.8223 355.637 37.5967 355.592 37.3232C355.551 37.0452 355.53 36.7764 355.53 36.5166ZM355.769 33.502L355.783 34.5205H354.6C354.295 34.5205 354.026 34.5501 353.794 34.6094C353.561 34.6641 353.368 34.7461 353.213 34.8555C353.058 34.9648 352.942 35.097 352.864 35.252C352.787 35.4069 352.748 35.5824 352.748 35.7783C352.748 35.9743 352.793 36.1543 352.885 36.3184C352.976 36.4779 353.108 36.6032 353.281 36.6943C353.459 36.7855 353.673 36.8311 353.924 36.8311C354.261 36.8311 354.555 36.7627 354.805 36.626C355.061 36.4847 355.261 36.3138 355.407 36.1133C355.553 35.9082 355.63 35.7145 355.639 35.5322L356.173 36.2637C356.118 36.4505 356.025 36.651 355.892 36.8652C355.76 37.0794 355.587 37.2845 355.373 37.4805C355.163 37.6719 354.91 37.8291 354.614 37.9521C354.322 38.0752 353.985 38.1367 353.602 38.1367C353.119 38.1367 352.689 38.041 352.31 37.8496C351.932 37.6536 351.636 37.3916 351.422 37.0635C351.207 36.7308 351.1 36.3548 351.1 35.9355C351.1 35.5436 351.173 35.1973 351.319 34.8965C351.47 34.5911 351.688 34.3359 351.975 34.1309C352.267 33.9258 352.623 33.7708 353.042 33.666C353.461 33.5566 353.94 33.502 354.477 33.502H355.769ZM361.144 37.1934L363.154 30.6035H364.918L361.951 39.1279C361.882 39.3102 361.794 39.5085 361.684 39.7227C361.575 39.9368 361.431 40.1396 361.254 40.3311C361.08 40.527 360.864 40.6842 360.604 40.8027C360.344 40.9258 360.03 40.9873 359.661 40.9873C359.515 40.9873 359.374 40.9736 359.237 40.9463C359.105 40.9235 358.979 40.8984 358.861 40.8711L358.854 39.6133C358.9 39.6178 358.954 39.6224 359.018 39.627C359.087 39.6315 359.141 39.6338 359.182 39.6338C359.456 39.6338 359.684 39.5996 359.866 39.5312C360.048 39.4674 360.196 39.3626 360.31 39.2168C360.429 39.071 360.529 38.875 360.611 38.6289L361.144 37.1934ZM360.009 30.6035L361.766 36.1406L362.06 37.877L360.919 38.1709L358.232 30.6035H360.009ZM367.708 32.1074V38H366.061V30.6035H367.613L367.708 32.1074ZM367.442 34.0283L366.881 34.0215C366.881 33.5111 366.945 33.0394 367.073 32.6064C367.2 32.1735 367.387 31.7975 367.633 31.4785C367.879 31.1549 368.185 30.9066 368.549 30.7334C368.918 30.5557 369.344 30.4668 369.828 30.4668C370.165 30.4668 370.472 30.5169 370.75 30.6172C371.033 30.7129 371.277 30.8656 371.482 31.0752C371.691 31.2848 371.851 31.5537 371.96 31.8818C372.074 32.21 372.131 32.6064 372.131 33.0713V38H370.484V33.2148C370.484 32.8548 370.429 32.5723 370.32 32.3672C370.215 32.1621 370.062 32.0163 369.862 31.9297C369.666 31.8385 369.431 31.793 369.158 31.793C368.848 31.793 368.583 31.8522 368.365 31.9707C368.15 32.0892 367.975 32.251 367.838 32.4561C367.702 32.6611 367.601 32.8981 367.537 33.167C367.474 33.4359 367.442 33.723 367.442 34.0283ZM372.029 33.5908L371.256 33.7617C371.256 33.3151 371.318 32.8936 371.441 32.4971C371.568 32.096 371.753 31.7451 371.995 31.4443C372.241 31.139 372.544 30.8997 372.904 30.7266C373.264 30.5534 373.676 30.4668 374.141 30.4668C374.519 30.4668 374.857 30.5192 375.153 30.624C375.454 30.7243 375.709 30.8838 375.918 31.1025C376.128 31.3213 376.287 31.6061 376.397 31.957C376.506 32.3034 376.561 32.7227 376.561 33.2148V38H374.907V33.208C374.907 32.8343 374.852 32.5449 374.743 32.3398C374.638 32.1348 374.487 31.9935 374.291 31.916C374.095 31.834 373.861 31.793 373.587 31.793C373.332 31.793 373.107 31.8408 372.911 31.9365C372.719 32.0277 372.557 32.1576 372.425 32.3262C372.293 32.4902 372.193 32.6794 372.124 32.8936C372.061 33.1077 372.029 33.3402 372.029 33.5908ZM381.717 38.1367C381.17 38.1367 380.676 38.0479 380.234 37.8701C379.796 37.6878 379.422 37.4349 379.113 37.1113C378.807 36.7878 378.572 36.4072 378.408 35.9697C378.244 35.5322 378.162 35.0605 378.162 34.5547V34.2812C378.162 33.7025 378.247 33.1784 378.415 32.709C378.584 32.2396 378.819 31.8385 379.119 31.5059C379.42 31.1686 379.776 30.9111 380.186 30.7334C380.596 30.5557 381.04 30.4668 381.519 30.4668C382.047 30.4668 382.51 30.5557 382.906 30.7334C383.303 30.9111 383.631 31.1618 383.891 31.4854C384.155 31.8044 384.351 32.1849 384.479 32.627C384.611 33.069 384.677 33.5566 384.677 34.0898V34.7939H378.962V33.6113H383.05V33.4814C383.041 33.1852 382.982 32.9072 382.872 32.6475C382.767 32.3877 382.606 32.1781 382.387 32.0186C382.168 31.859 381.877 31.7793 381.512 31.7793C381.238 31.7793 380.995 31.8385 380.78 31.957C380.571 32.071 380.395 32.2373 380.254 32.4561C380.113 32.6748 380.003 32.9391 379.926 33.249C379.853 33.5544 379.817 33.8984 379.817 34.2812V34.5547C379.817 34.8783 379.86 35.179 379.946 35.457C380.038 35.7305 380.17 35.9697 380.343 36.1748C380.516 36.3799 380.726 36.5417 380.972 36.6602C381.218 36.7741 381.498 36.8311 381.813 36.8311C382.209 36.8311 382.562 36.7513 382.872 36.5918C383.182 36.4323 383.451 36.2067 383.679 35.915L384.547 36.7559C384.388 36.9883 384.18 37.2116 383.925 37.4258C383.67 37.6354 383.358 37.8063 382.988 37.9385C382.624 38.0706 382.2 38.1367 381.717 38.1367ZM387.796 32.1826V38H386.148V30.6035H387.7L387.796 32.1826ZM387.502 34.0283L386.969 34.0215C386.973 33.4974 387.046 33.0166 387.188 32.5791C387.333 32.1416 387.534 31.7656 387.789 31.4512C388.049 31.1367 388.359 30.8952 388.719 30.7266C389.079 30.5534 389.48 30.4668 389.922 30.4668C390.277 30.4668 390.599 30.5169 390.886 30.6172C391.177 30.7129 391.426 30.8701 391.631 31.0889C391.84 31.3076 392 31.5924 392.109 31.9434C392.219 32.2897 392.273 32.7158 392.273 33.2217V38H390.619V33.2148C390.619 32.8594 390.567 32.5791 390.462 32.374C390.362 32.1644 390.214 32.0163 390.018 31.9297C389.826 31.8385 389.587 31.793 389.3 31.793C389.017 31.793 388.764 31.8522 388.541 31.9707C388.318 32.0892 388.129 32.251 387.974 32.4561C387.823 32.6611 387.707 32.8981 387.625 33.167C387.543 33.4359 387.502 33.723 387.502 34.0283ZM397.546 30.6035V31.8066H393.376V30.6035H397.546ZM394.579 28.792H396.226V35.9561C396.226 36.1839 396.258 36.3594 396.322 36.4824C396.39 36.6009 396.484 36.6807 396.602 36.7217C396.721 36.7627 396.86 36.7832 397.019 36.7832C397.133 36.7832 397.243 36.7764 397.347 36.7627C397.452 36.749 397.537 36.7354 397.6 36.7217L397.607 37.9795C397.471 38.0205 397.311 38.057 397.129 38.0889C396.951 38.1208 396.746 38.1367 396.513 38.1367C396.135 38.1367 395.8 38.0706 395.509 37.9385C395.217 37.8018 394.989 37.5807 394.825 37.2754C394.661 36.9701 394.579 36.5645 394.579 36.0586V28.792Z" fill="black"/>
</svg>
