<svg width="200" height="200" viewBox="0 0 200 200" fill="none" xmlns="http://www.w3.org/2000/svg">
<path d="M170.002 44.4231C165.983 44.4231 30.6554 44.4231 26.1558 44.4231C19.5431 44.4231 14.1161 49.4769 13.52 55.9339C13.4104 57.0312 13.4881 51.9454 13.4635 144.423H182.694V57.1154C182.694 50.1589 177.061 44.4231 170.002 44.4231Z" fill="#ECF0F1"/>
<path d="M100.002 13.6538C103.187 13.6538 105.771 16.2384 105.771 19.423C105.771 22.6077 103.187 25.1923 100.002 25.1923C96.8177 25.1923 94.2327 22.6077 94.2327 19.423C94.2327 16.2384 96.8177 13.6538 100.002 13.6538Z" fill="#74829C"/>
<path d="M36.5404 25.1924C40.7904 25.1924 44.2327 28.6347 44.2327 32.8847C44.2327 37.1347 40.7904 40.577 36.5404 40.577C32.2904 40.577 28.8481 37.1347 28.8481 32.8847C28.8481 28.6347 32.2904 25.1924 36.5404 25.1924Z" fill="#74829C"/>
<path d="M75.0019 63.6538V109.808H74.9096C73.9404 99.0273 64.8831 90.5769 53.8481 90.5769C58.0981 90.5769 61.5404 87.1346 61.5404 82.8846C61.5404 78.6346 58.0981 75.1923 53.8481 75.1923C49.5981 75.1923 46.1558 78.6346 46.1558 82.8846C46.1558 87.1346 49.5981 90.5769 53.8481 90.5769C42.8138 90.5769 33.7558 99.0273 32.7865 109.808H32.6942V63.6538H75.0019Z" fill="#313A52"/>
<path d="M53.8481 90.5769C64.8827 90.5769 73.9404 99.0273 74.9096 109.808H32.7865C33.7558 99.0273 42.8135 90.5769 53.8481 90.5769Z" fill="#65B2FE"/>
<path d="M53.8481 75.1924C58.0981 75.1924 61.5404 78.6347 61.5404 82.8847C61.5404 87.1347 58.0981 90.577 53.8481 90.577C49.5981 90.577 46.1558 87.1347 46.1558 82.8847C46.1558 78.6347 49.5981 75.1924 53.8481 75.1924Z" fill="#FFD8A8"/>
<path d="M182.597 54.8142C177.847 62.4411 169.385 67.518 159.736 67.518C146.174 67.518 134.951 57.4873 133.089 44.4411C132.905 43.1834 132.812 41.9026 132.812 40.595C132.812 25.7257 144.866 13.6719 159.736 13.6719C174.605 13.6719 186.659 25.7257 186.659 40.595C186.659 45.8142 185.17 50.6873 182.597 54.8142Z" fill="#80AF52"/>
<path fill-rule="evenodd" clip-rule="evenodd" d="M159.766 22.2656C161.492 22.2656 162.891 23.6647 162.891 25.3906V37.4023H175.391C177.117 37.4023 178.516 38.8015 178.516 40.5273C178.516 42.2532 177.117 43.6523 175.391 43.6523H162.891V55.6641C162.891 57.39 161.492 58.7891 159.766 58.7891C158.04 58.7891 156.641 57.39 156.641 55.6641V43.6523H144.141C142.415 43.6523 141.016 42.2532 141.016 40.5273C141.016 38.8015 142.415 37.4023 144.141 37.4023H156.641V25.3906C156.641 23.6647 158.04 22.2656 159.766 22.2656Z" fill="white"/>
<path d="M70.0288 18.6269C70.725 19.3231 71.1557 20.2846 71.1557 21.3462C71.1557 22.4077 70.725 23.3692 70.0288 24.0654C69.3323 24.7615 68.3707 25.1923 67.3096 25.1923C65.1865 25.1923 63.4634 23.4692 63.4634 21.3462C63.4634 20.2846 63.8942 19.3231 64.5907 18.6269C65.2869 17.9308 66.2484 17.5 67.3096 17.5C68.3707 17.5 69.3327 17.9308 70.0288 18.6269Z" fill="#74829C"/>
<path d="M125.002 75.1923H90.3866C88.2627 75.1923 86.5404 73.4704 86.5404 71.3462C86.5404 69.2219 88.2627 67.5 90.3866 67.5H125.002C127.126 67.5 128.848 69.2219 128.848 71.3462C128.848 73.4704 127.126 75.1923 125.002 75.1923Z" fill="#B3B3B3"/>
<path d="M136.54 86.7309H90.3866C88.2627 86.7309 86.5404 85.009 86.5404 82.8847C86.5404 80.7605 88.2627 79.0386 90.3866 79.0386H136.54C138.664 79.0386 140.387 80.7605 140.387 82.8847C140.387 85.009 138.664 86.7309 136.54 86.7309Z" fill="#B3B3B3"/>
<path d="M148.079 98.2692H90.3866C88.2627 98.2692 86.5404 96.5473 86.5404 94.4231C86.5404 92.2988 88.2627 90.5769 90.3866 90.5769H148.079C150.203 90.5769 151.925 92.2988 151.925 94.4231C151.925 96.5473 150.203 98.2692 148.079 98.2692Z" fill="#B3B3B3"/>
<path d="M148.079 109.808H90.3866C88.2627 109.808 86.5404 108.085 86.5404 105.962C86.5404 103.838 88.2627 102.115 90.3866 102.115H148.079C150.203 102.115 151.925 103.838 151.925 105.962C151.925 108.085 150.203 109.808 148.079 109.808Z" fill="#B3B3B3"/>
<path d="M117.31 184.038H78.8481C76.7242 184.038 75.0019 182.316 75.0019 180.192V163.269C75.0019 161.145 76.7242 159.423 78.8481 159.423C80.9723 159.423 82.6942 161.145 82.6942 163.269V176.346H113.463V163.269C113.463 161.145 115.186 159.423 117.31 159.423C119.433 159.423 121.156 161.145 121.156 163.269V180.192C121.156 182.316 119.433 184.038 117.31 184.038Z" fill="#414A56"/>
<path d="M130.771 174.808C133.956 174.808 136.54 177.392 136.54 180.577C136.54 182.169 135.894 183.611 134.848 184.654C133.806 185.7 132.363 186.346 130.771 186.346H65.3865C62.2023 186.346 59.6173 183.761 59.6173 180.577C59.6173 178.985 60.2638 177.542 61.3096 176.5C62.3519 175.453 63.7942 174.808 65.3865 174.808H78.8481H117.31H130.771Z" fill="#57606F"/>
<path d="M182.694 144.038V150.577C182.694 157.588 177.013 163.269 170.002 163.269H117.31H78.8481H26.1558C19.1446 163.269 13.4635 157.588 13.4635 150.577V144.038H182.694Z" fill="#57606F"/>
<path d="M158.49 175.935C159.187 176.631 159.617 177.593 159.617 178.654C159.617 179.715 159.187 180.677 158.49 181.373C157.794 182.069 156.832 182.5 155.771 182.5C153.648 182.5 151.925 180.777 151.925 178.654C151.925 177.592 152.356 176.631 153.052 175.935C153.748 175.238 154.71 174.808 155.771 174.808C156.832 174.808 157.794 175.238 158.49 175.935Z" fill="#74829C"/>
<path d="M35.4135 175.935C36.1096 176.631 36.5404 177.593 36.5404 178.654C36.5404 179.715 36.1096 180.677 35.4135 181.373C34.7169 182.069 33.7554 182.5 32.6942 182.5C30.5712 182.5 28.8481 180.777 28.8481 178.654C28.8481 177.592 29.2789 176.631 29.9754 175.935C30.6715 175.238 31.6331 174.808 32.6942 174.808C33.7554 174.808 34.7173 175.238 35.4135 175.935Z" fill="#74829C"/>
</svg>
