<svg width="118" height="102" viewBox="0 0 118 102" fill="none" xmlns="http://www.w3.org/2000/svg">
<path d="M93.9999 30H87.3332V23.3333C87.3341 22.6765 87.2054 22.0259 86.9544 21.4189C86.7035 20.8119 86.3352 20.2603 85.8707 19.7958C85.4062 19.3314 84.8547 18.9631 84.2477 18.7121C83.6407 18.4612 82.9901 18.3325 82.3332 18.3333H56.9166C56.1724 18.3335 55.4376 18.1675 54.7657 17.8474C54.0939 17.5274 53.502 17.0613 53.0332 16.4833L49.7666 12.4667C49.1439 11.6962 48.3567 11.0748 47.4627 10.648C46.5687 10.2212 45.5905 9.99976 44.5999 10H25.6666C25.0097 9.99912 24.3591 10.1278 23.7521 10.3788C23.1451 10.6298 22.5935 10.998 22.1291 11.4625C21.6646 11.927 21.2963 12.4785 21.0454 13.0855C20.7944 13.6926 20.6657 14.3431 20.6666 15V64.2833C20.6631 65.034 20.8103 65.7778 21.0995 66.4706C21.3886 67.1634 21.8138 67.7911 22.3499 68.3167C22.8754 68.8528 23.5032 69.278 24.196 69.5671C24.8888 69.8563 25.6325 70.0035 26.3832 70H82.4832C83.7216 69.9996 84.9265 69.5984 85.9179 68.8563C86.9092 68.1143 87.6338 67.0713 87.9832 65.8833L97.1999 34.2667C97.3437 33.7699 97.3701 33.2466 97.2771 32.7379C97.1841 32.2292 96.9742 31.749 96.6639 31.3353C96.3536 30.9216 95.9515 30.5857 95.4892 30.3539C95.0269 30.1222 94.517 30.001 93.9999 30Z" fill="#407FFC"/>
<path d="M93.9977 30H46.6207C45.3838 30.0002 44.1803 30.4015 43.1908 31.1438C42.2014 31.886 41.4794 32.9292 41.1332 34.1167L31.8665 65.8857C31.5203 67.0726 30.7985 68.1152 29.8094 68.8571C28.8203 69.5989 27.6173 70 26.3809 70H82.4872C83.7243 70.0001 84.9281 69.5989 85.9179 68.8567C86.9076 68.1144 87.6298 67.071 87.976 65.8833L97.1979 34.2667C97.3428 33.7699 97.37 33.2462 97.2774 32.737C97.1848 32.2279 96.975 31.7473 96.6645 31.3333C96.354 30.9193 95.9513 30.5833 95.4885 30.3519C95.0256 30.1204 94.5152 30 93.9977 30Z" fill="#94B8FF"/>
<circle cx="53.0001" cy="48.4" r="4.4" fill="#407FFC"/>
<circle cx="53.0001" cy="47.6" r="4.4" fill="#132740"/>
<circle cx="54.2001" cy="46.4" r="1.6" fill="white"/>
<circle cx="79.4" cy="48.4" r="4.4" fill="#407FFC"/>
<circle cx="79.4" cy="47.6" r="4.4" fill="#132740"/>
<circle cx="80.6" cy="46.4" r="1.6" fill="white"/>
<path d="M70.2002 52.8C70.2002 50.5909 68.4093 48.8 66.2002 48.8C63.9911 48.8 62.2002 50.5909 62.2002 52.8" stroke="#132740" stroke-width="2" stroke-linecap="round"/>
<path d="M9.80682 88.8182V99H8.61364L3.06534 91.0057H2.96591V99H1.73295V88.8182H2.92614L8.49432 96.8324H8.59375V88.8182H9.80682ZM15.2172 99.1591C14.5278 99.1591 13.9229 98.995 13.4025 98.6669C12.8855 98.3388 12.4811 97.8797 12.1895 97.2898C11.9011 96.6998 11.7569 96.0104 11.7569 95.2216C11.7569 94.4261 11.9011 93.7318 12.1895 93.1385C12.4811 92.5452 12.8855 92.0845 13.4025 91.7564C13.9229 91.4283 14.5278 91.2642 15.2172 91.2642C15.9065 91.2642 16.5098 91.4283 17.0268 91.7564C17.5472 92.0845 17.9515 92.5452 18.2399 93.1385C18.5315 93.7318 18.6774 94.4261 18.6774 95.2216C18.6774 96.0104 18.5315 96.6998 18.2399 97.2898C17.9515 97.8797 17.5472 98.3388 17.0268 98.6669C16.5098 98.995 15.9065 99.1591 15.2172 99.1591ZM15.2172 98.1051C15.7408 98.1051 16.1717 97.9709 16.5098 97.7024C16.8478 97.4339 17.0981 97.081 17.2605 96.6435C17.4229 96.206 17.5041 95.732 17.5041 95.2216C17.5041 94.7112 17.4229 94.2356 17.2605 93.7947C17.0981 93.3539 16.8478 92.9976 16.5098 92.7259C16.1717 92.4541 15.7408 92.3182 15.2172 92.3182C14.6935 92.3182 14.2626 92.4541 13.9245 92.7259C13.5865 92.9976 13.3362 93.3539 13.1738 93.7947C13.0114 94.2356 12.9302 94.7112 12.9302 95.2216C12.9302 95.732 13.0114 96.206 13.1738 96.6435C13.3362 97.081 13.5865 97.4339 13.9245 97.7024C14.2626 97.9709 14.6935 98.1051 15.2172 98.1051ZM27.707 99H24.565V88.8182H27.8462C28.8339 88.8182 29.6791 89.022 30.3817 89.4297C31.0844 89.834 31.623 90.4157 31.9975 91.1747C32.372 91.9304 32.5593 92.8352 32.5593 93.8892C32.5593 94.9498 32.3704 95.8629 31.9925 96.6286C31.6147 97.3909 31.0645 97.9775 30.342 98.3885C29.6194 98.7962 28.7411 99 27.707 99ZM25.7979 97.9062H27.6275C28.4693 97.9062 29.167 97.7438 29.7205 97.419C30.274 97.0942 30.6867 96.6319 30.9585 96.032C31.2302 95.4321 31.3661 94.7178 31.3661 93.8892C31.3661 93.0672 31.2319 92.3596 30.9634 91.7663C30.695 91.1697 30.2939 90.7124 29.7603 90.3942C29.2267 90.0727 28.5621 89.9119 27.7667 89.9119H25.7979V97.9062ZM36.7156 99.179C36.2317 99.179 35.7925 99.0878 35.3981 98.9055C35.0037 98.7199 34.6905 98.4531 34.4585 98.1051C34.2264 97.7538 34.1104 97.3295 34.1104 96.8324C34.1104 96.3949 34.1966 96.0402 34.369 95.7685C34.5413 95.4934 34.7717 95.2779 35.06 95.1222C35.3484 94.9664 35.6665 94.8504 36.0146 94.7741C36.3659 94.6946 36.7189 94.6316 37.0735 94.5852C37.5375 94.5256 37.9137 94.4808 38.2021 94.451C38.4937 94.4179 38.7058 94.3632 38.8384 94.2869C38.9743 94.2107 39.0423 94.0781 39.0423 93.8892V93.8494C39.0423 93.3589 38.908 92.9777 38.6396 92.706C38.3744 92.4342 37.9717 92.2983 37.4315 92.2983C36.8713 92.2983 36.4322 92.4209 36.114 92.6662C35.7958 92.9115 35.5721 93.1733 35.4428 93.4517L34.3292 93.054C34.5281 92.59 34.7932 92.2287 35.1246 91.9702C35.4594 91.7083 35.824 91.526 36.2184 91.4233C36.6161 91.3172 37.0072 91.2642 37.3917 91.2642C37.637 91.2642 37.9187 91.294 38.2369 91.3537C38.5584 91.41 38.8683 91.5277 39.1665 91.7067C39.4682 91.8857 39.7184 92.1558 39.9173 92.517C40.1161 92.8783 40.2156 93.3622 40.2156 93.9688V99H39.0423V97.9659H38.9826C38.9031 98.1316 38.7705 98.3089 38.5849 98.4979C38.3993 98.6868 38.1523 98.8475 37.8441 98.9801C37.5359 99.1127 37.1597 99.179 36.7156 99.179ZM36.8945 98.125C37.3585 98.125 37.7496 98.0339 38.0678 97.8516C38.3893 97.6693 38.6313 97.4339 38.7937 97.1456C38.9594 96.8572 39.0423 96.554 39.0423 96.2358V95.1619C38.9925 95.2216 38.8832 95.2763 38.7141 95.326C38.5484 95.3724 38.3562 95.4138 38.1374 95.4503C37.922 95.4834 37.7115 95.5133 37.506 95.5398C37.3039 95.563 37.1398 95.5829 37.0138 95.5994C36.7089 95.6392 36.4239 95.7038 36.1587 95.7933C35.8969 95.8795 35.6848 96.0104 35.5224 96.1861C35.3633 96.3584 35.2837 96.5937 35.2837 96.892C35.2837 97.2997 35.4345 97.608 35.7362 97.8168C36.0411 98.0223 36.4272 98.125 36.8945 98.125ZM45.6781 91.3636V92.358H41.7207V91.3636H45.6781ZM42.8741 89.5341H44.0474V96.8125C44.0474 97.1439 44.0955 97.3925 44.1916 97.5582C44.291 97.7206 44.417 97.83 44.5694 97.8864C44.7252 97.9394 44.8893 97.9659 45.0616 97.9659C45.1909 97.9659 45.2969 97.9593 45.3798 97.946C45.4627 97.9295 45.5289 97.9162 45.5787 97.9062L45.8173 98.9602C45.7377 98.9901 45.6267 99.0199 45.4842 99.0497C45.3417 99.0829 45.161 99.0994 44.9423 99.0994C44.6109 99.0994 44.286 99.0282 43.9679 98.8857C43.653 98.7431 43.3912 98.526 43.1824 98.2344C42.9769 97.9427 42.8741 97.5748 42.8741 97.1307V89.5341ZM49.6902 99.179C49.2063 99.179 48.7671 99.0878 48.3727 98.9055C47.9783 98.7199 47.6651 98.4531 47.4331 98.1051C47.2011 97.7538 47.085 97.3295 47.085 96.8324C47.085 96.3949 47.1712 96.0402 47.3436 95.7685C47.5159 95.4934 47.7463 95.2779 48.0346 95.1222C48.323 94.9664 48.6412 94.8504 48.9892 94.7741C49.3405 94.6946 49.6935 94.6316 50.0481 94.5852C50.5121 94.5256 50.8883 94.4808 51.1767 94.451C51.4683 94.4179 51.6805 94.3632 51.813 94.2869C51.9489 94.2107 52.0169 94.0781 52.0169 93.8892V93.8494C52.0169 93.3589 51.8826 92.9777 51.6142 92.706C51.349 92.4342 50.9463 92.2983 50.4061 92.2983C49.8459 92.2983 49.4068 92.4209 49.0886 92.6662C48.7704 92.9115 48.5467 93.1733 48.4174 93.4517L47.3038 93.054C47.5027 92.59 47.7678 92.2287 48.0993 91.9702C48.434 91.7083 48.7986 91.526 49.193 91.4233C49.5907 91.3172 49.9818 91.2642 50.3663 91.2642C50.6116 91.2642 50.8933 91.294 51.2115 91.3537C51.533 91.41 51.8429 91.5277 52.1412 91.7067C52.4428 91.8857 52.693 92.1558 52.8919 92.517C53.0907 92.8783 53.1902 93.3622 53.1902 93.9688V99H52.0169V97.9659H51.9572C51.8777 98.1316 51.7451 98.3089 51.5595 98.4979C51.3739 98.6868 51.127 98.8475 50.8187 98.9801C50.5105 99.1127 50.1343 99.179 49.6902 99.179ZM49.8691 98.125C50.3332 98.125 50.7243 98.0339 51.0424 97.8516C51.3639 97.6693 51.6059 97.4339 51.7683 97.1456C51.934 96.8572 52.0169 96.554 52.0169 96.2358V95.1619C51.9672 95.2216 51.8578 95.2763 51.6887 95.326C51.523 95.3724 51.3308 95.4138 51.112 95.4503C50.8966 95.4834 50.6861 95.5133 50.4806 95.5398C50.2785 95.563 50.1144 95.5829 49.9885 95.5994C49.6835 95.6392 49.3985 95.7038 49.1333 95.7933C48.8715 95.8795 48.6594 96.0104 48.497 96.1861C48.3379 96.3584 48.2583 96.5937 48.2583 96.892C48.2583 97.2997 48.4092 97.608 48.7108 97.8168C49.0157 98.0223 49.4018 98.125 49.8691 98.125ZM59.8459 99H58.5533L62.2919 88.8182H63.5646L67.3033 99H66.0107L62.968 90.429H62.8885L59.8459 99ZM60.3232 95.0227H65.5334V96.1165H60.3232V95.0227ZM74.0174 91.3636L71.1935 99H70.0004L67.1765 91.3636H68.4492L70.5572 97.4489H70.6367L72.7447 91.3636H74.0174ZM77.5808 99.179C77.0969 99.179 76.6577 99.0878 76.2633 98.9055C75.8689 98.7199 75.5557 98.4531 75.3237 98.1051C75.0917 97.7538 74.9757 97.3295 74.9757 96.8324C74.9757 96.3949 75.0618 96.0402 75.2342 95.7685C75.4065 95.4934 75.6369 95.2779 75.9252 95.1222C76.2136 94.9664 76.5318 94.8504 76.8798 94.7741C77.2311 94.6946 77.5841 94.6316 77.9387 94.5852C78.4028 94.5256 78.7789 94.4808 79.0673 94.451C79.359 94.4179 79.5711 94.3632 79.7037 94.2869C79.8395 94.2107 79.9075 94.0781 79.9075 93.8892V93.8494C79.9075 93.3589 79.7733 92.9777 79.5048 92.706C79.2396 92.4342 78.8369 92.2983 78.2967 92.2983C77.7366 92.2983 77.2974 92.4209 76.9792 92.6662C76.661 92.9115 76.4373 93.1733 76.3081 93.4517L75.1944 93.054C75.3933 92.59 75.6584 92.2287 75.9899 91.9702C76.3246 91.7083 76.6892 91.526 77.0836 91.4233C77.4814 91.3172 77.8725 91.2642 78.2569 91.2642C78.5022 91.2642 78.7839 91.294 79.1021 91.3537C79.4236 91.41 79.7335 91.5277 80.0318 91.7067C80.3334 91.8857 80.5836 92.1558 80.7825 92.517C80.9814 92.8783 81.0808 93.3622 81.0808 93.9688V99H79.9075V97.9659H79.8478C79.7683 98.1316 79.6357 98.3089 79.4501 98.4979C79.2645 98.6868 79.0176 98.8475 78.7093 98.9801C78.4011 99.1127 78.0249 99.179 77.5808 99.179ZM77.7598 98.125C78.2238 98.125 78.6149 98.0339 78.9331 97.8516C79.2546 97.6693 79.4965 97.4339 79.6589 97.1456C79.8246 96.8572 79.9075 96.554 79.9075 96.2358V95.1619C79.8578 95.2216 79.7484 95.2763 79.5794 95.326C79.4136 95.3724 79.2214 95.4138 79.0027 95.4503C78.7872 95.4834 78.5768 95.5133 78.3713 95.5398C78.1691 95.563 78.005 95.5829 77.8791 95.5994C77.5742 95.6392 77.2891 95.7038 77.024 95.7933C76.7621 95.8795 76.55 96.0104 76.3876 96.1861C76.2285 96.3584 76.149 96.5937 76.149 96.892C76.149 97.2997 76.2998 97.608 76.6014 97.8168C76.9063 98.0223 77.2924 98.125 77.7598 98.125ZM83.2223 99V91.3636H84.3956V99H83.2223ZM83.8189 90.0909C83.5902 90.0909 83.393 90.013 83.2273 89.8572C83.0649 89.7015 82.9837 89.5142 82.9837 89.2955C82.9837 89.0767 83.0649 88.8894 83.2273 88.7337C83.393 88.5779 83.5902 88.5 83.8189 88.5C84.0476 88.5 84.2431 88.5779 84.4055 88.7337C84.5713 88.8894 84.6541 89.0767 84.6541 89.2955C84.6541 89.5142 84.5713 89.7015 84.4055 89.8572C84.2431 90.013 84.0476 90.0909 83.8189 90.0909ZM87.7179 88.8182V99H86.5446V88.8182H87.7179ZM92.114 99.179C91.6301 99.179 91.1909 99.0878 90.7965 98.9055C90.4021 98.7199 90.0889 98.4531 89.8569 98.1051C89.6249 97.7538 89.5089 97.3295 89.5089 96.8324C89.5089 96.3949 89.5951 96.0402 89.7674 95.7685C89.9397 95.4934 90.1701 95.2779 90.4585 95.1222C90.7468 94.9664 91.065 94.8504 91.413 94.7741C91.7643 94.6946 92.1173 94.6316 92.4719 94.5852C92.936 94.5256 93.3121 94.4808 93.6005 94.451C93.8922 94.4179 94.1043 94.3632 94.2369 94.2869C94.3728 94.2107 94.4407 94.0781 94.4407 93.8892V93.8494C94.4407 93.3589 94.3065 92.9777 94.038 92.706C93.7728 92.4342 93.3701 92.2983 92.8299 92.2983C92.2698 92.2983 91.8306 92.4209 91.5124 92.6662C91.1942 92.9115 90.9705 93.1733 90.8413 93.4517L89.7276 93.054C89.9265 92.59 90.1916 92.2287 90.5231 91.9702C90.8578 91.7083 91.2224 91.526 91.6168 91.4233C92.0146 91.3172 92.4057 91.2642 92.7901 91.2642C93.0354 91.2642 93.3171 91.294 93.6353 91.3537C93.9568 91.41 94.2667 91.5277 94.565 91.7067C94.8666 91.8857 95.1168 92.1558 95.3157 92.517C95.5146 92.8783 95.614 93.3622 95.614 93.9688V99H94.4407V97.9659H94.381C94.3015 98.1316 94.1689 98.3089 93.9833 98.4979C93.7977 98.6868 93.5508 98.8475 93.2425 98.9801C92.9343 99.1127 92.5581 99.179 92.114 99.179ZM92.293 98.125C92.757 98.125 93.1481 98.0339 93.4663 97.8516C93.7878 97.6693 94.0297 97.4339 94.1921 97.1456C94.3578 96.8572 94.4407 96.554 94.4407 96.2358V95.1619C94.391 95.2216 94.2816 95.2763 94.1126 95.326C93.9469 95.3724 93.7546 95.4138 93.5359 95.4503C93.3204 95.4834 93.11 95.5133 92.9045 95.5398C92.7023 95.563 92.5382 95.5829 92.4123 95.5994C92.1074 95.6392 91.8223 95.7038 91.5572 95.7933C91.2953 95.8795 91.0832 96.0104 90.9208 96.1861C90.7617 96.3584 90.6822 96.5937 90.6822 96.892C90.6822 97.2997 90.833 97.608 91.1346 97.8168C91.4395 98.0223 91.8256 98.125 92.293 98.125ZM97.9146 99V88.8182H99.0879V92.5767H99.1873C99.2735 92.4441 99.3928 92.2751 99.5453 92.0696C99.7011 91.8608 99.9231 91.6752 100.211 91.5128C100.503 91.3471 100.898 91.2642 101.395 91.2642C102.038 91.2642 102.604 91.425 103.095 91.7464C103.586 92.0679 103.968 92.5237 104.243 93.1136C104.519 93.7036 104.656 94.3996 104.656 95.2017C104.656 96.0104 104.519 96.7114 104.243 97.3047C103.968 97.8946 103.587 98.352 103.1 98.6768C102.613 98.9983 102.051 99.1591 101.415 99.1591C100.924 99.1591 100.531 99.0779 100.236 98.9155C99.9413 98.7498 99.7143 98.5625 99.5552 98.3537C99.3961 98.1416 99.2735 97.9659 99.1873 97.8267H99.0481V99H97.9146ZM99.068 95.1818C99.068 95.7585 99.1525 96.2673 99.3216 96.7081C99.4906 97.1456 99.7375 97.4886 100.062 97.7372C100.387 97.9825 100.785 98.1051 101.256 98.1051C101.746 98.1051 102.155 97.9759 102.483 97.7173C102.815 97.4555 103.064 97.1042 103.229 96.6634C103.398 96.2192 103.483 95.7254 103.483 95.1818C103.483 94.6449 103.4 94.161 103.234 93.7301C103.072 93.2959 102.825 92.9529 102.493 92.701C102.165 92.4458 101.753 92.3182 101.256 92.3182C100.778 92.3182 100.377 92.4392 100.052 92.6811C99.7276 92.9197 99.4823 93.2545 99.3166 93.6854C99.1509 94.1129 99.068 94.6117 99.068 95.1818ZM107.624 88.8182V99H106.451V88.8182H107.624ZM112.975 99.1591C112.239 99.1591 111.604 98.9967 111.071 98.6719C110.54 98.3438 110.131 97.8864 109.843 97.2997C109.558 96.7098 109.415 96.0237 109.415 95.2415C109.415 94.4593 109.558 93.7699 109.843 93.1733C110.131 92.5734 110.532 92.1061 111.046 91.7713C111.563 91.4332 112.166 91.2642 112.855 91.2642C113.253 91.2642 113.646 91.3305 114.034 91.4631C114.422 91.5956 114.775 91.8111 115.093 92.1094C115.411 92.4044 115.664 92.7955 115.853 93.2827C116.042 93.7699 116.137 94.3698 116.137 95.0824V95.5795H110.25V94.5653H114.944C114.944 94.1345 114.857 93.75 114.685 93.4119C114.516 93.0739 114.274 92.8071 113.959 92.6115C113.648 92.416 113.28 92.3182 112.855 92.3182C112.388 92.3182 111.984 92.4342 111.642 92.6662C111.304 92.8949 111.044 93.1932 110.862 93.5611C110.68 93.929 110.588 94.3234 110.588 94.7443V95.4205C110.588 95.9972 110.688 96.486 110.887 96.8871C111.089 97.2848 111.369 97.5881 111.727 97.7969C112.085 98.0024 112.501 98.1051 112.975 98.1051C113.283 98.1051 113.561 98.062 113.81 97.9759C114.062 97.8864 114.279 97.7538 114.461 97.5781C114.644 97.3991 114.784 97.1771 114.884 96.9119L116.017 97.2301C115.898 97.6146 115.698 97.9527 115.416 98.2443C115.134 98.5327 114.786 98.758 114.372 98.9205C113.958 99.0795 113.492 99.1591 112.975 99.1591Z" fill="#535F75"/>
</svg>
