<svg width="120" height="120" viewBox="0 0 120 120" fill="none" xmlns="http://www.w3.org/2000/svg">
<g clip-path="url(#clip0_410_3470)">
<mask id="mask0_410_3470" style="mask-type:luminance" maskUnits="userSpaceOnUse" x="0" y="0" width="120" height="120">
<path d="M0 1.52588e-05H120V120H0V1.52588e-05Z" fill="white"/>
</mask>
<g mask="url(#mask0_410_3470)">
<path d="M42.4132 21.5811H22.7367V13.6079C22.7367 11.2596 24.6403 9.35606 26.9885 9.35606H38.1611C40.5096 9.35606 42.4132 11.2596 42.4132 13.6079V21.5811Z" fill="#355F7F"/>
<path d="M38.1612 9.35606H31.13C33.4784 9.35606 35.382 11.2597 35.382 13.6081V21.5811H42.4133V13.6081C42.4133 11.2597 40.5097 9.35606 38.1612 9.35606Z" fill="#305972"/>
<path d="M52.8211 64.4121V50.6845C52.8211 46.9233 50.2043 43.669 46.5307 42.8616L36.6959 40.7002C35.4717 40.4309 34.5994 39.3462 34.5994 38.0925V29.9602H27.0349V38.0925C27.0349 39.3462 26.1626 40.4309 24.9382 40.7002L15.1034 42.8616C11.4298 43.669 8.81299 46.9233 8.81299 50.6845V64.4121H52.8211Z" fill="#82AEE3"/>
<path d="M50.0464 42.8616L40.2118 40.7002C38.9872 40.4309 38.1148 39.3462 38.1148 38.0925V29.9604H32.5749V40.7845C32.5749 42.0382 33.4472 43.1231 34.6716 43.3922L44.5065 45.5536C48.1798 46.361 50.7966 49.6155 50.7966 53.3766V64.4121H56.3368V50.6845C56.3368 46.9235 53.72 43.669 50.0464 42.8616Z" fill="#528FD8"/>
<path d="M32.5749 45.5322L38.5512 39.5554C38.2737 39.1321 34.5994 38.6278 34.5994 38.0925V29.9604H27.0347V38.0925C27.0347 38.6278 26.8761 39.1321 26.5986 39.5554L32.5749 45.5322Z" fill="#FFCEBF"/>
<path d="M38.2805 39.0164C38.1717 38.7225 38.1155 38.4087 38.115 38.0951C38.115 38.0944 38.1148 38.0937 38.1148 38.093V29.9606H32.5749V40.785C32.5749 42.0387 33.4472 43.1236 34.6718 43.3927L34.707 43.4004L38.5512 39.5557C38.4413 39.3872 38.3503 39.2053 38.2805 39.0164Z" fill="#FFB09E"/>
<path d="M22.7367 20.7218V26.4966C22.7367 31.9301 27.1415 36.335 32.575 36.335C38.0083 36.335 42.4131 31.9301 42.4131 26.4966V20.7218L37.6349 18.6469C36.2833 18.06 34.7786 17.9234 33.3433 18.2569L22.7367 20.7218Z" fill="#FFCEBF"/>
<path d="M35.3819 18.0971V26.4968C35.4293 27 35.643 29.7933 33.607 32.1336C31.0929 35.0227 27.3724 34.666 27.0351 34.6278C27.7762 35.1272 29.0266 35.8318 30.7136 36.1578C30.7136 36.1578 31.6502 36.335 32.5748 36.335C38.0086 36.335 42.4132 31.9304 42.4132 26.4968V20.7221L37.635 18.6471C37.3221 18.5112 36.9375 18.3715 36.4877 18.2649C36.0757 18.1674 35.7009 18.1191 35.3819 18.0971Z" fill="#FFB09E"/>
<path d="M5.27344 117.656V68.9351H114.727V117.656C114.727 118.951 113.677 120 112.383 120H7.61719C6.32297 120 5.27344 118.951 5.27344 117.656Z" fill="#EAF6FF"/>
<path d="M109.711 72.0654H5.27335C3.33178 72.0654 1.75772 70.4914 1.75772 68.5498V61.4302C1.75772 59.4884 3.33178 57.9146 5.27335 57.9146H109.711C111.653 57.9146 113.227 59.4884 113.227 61.4302V68.5498C113.227 70.4914 111.653 72.0654 109.711 72.0654Z" fill="#355F7F"/>
<path d="M70.7059 72.7822V44.8522C70.7059 41.0186 73.0398 37.5714 76.5993 36.1475L85.3375 32.6523C87.1171 31.9405 88.2841 30.2169 88.2841 28.3V24.4424H100.664V28.3C100.664 30.2169 101.831 31.9405 103.611 32.6523L112.349 36.1475C115.908 37.5714 118.242 41.0186 118.242 44.8522V72.7822C118.242 75.2092 116.275 77.1768 113.848 77.1768C111.421 77.1768 109.453 75.2092 109.453 72.7822V70.1455H79.495V72.7822C79.495 75.2092 77.5274 77.1768 75.1005 77.1768C72.6735 77.1768 70.7059 75.2092 70.7059 72.7822Z" fill="#F58A97"/>
<path d="M118.242 70.1455V44.8522C118.242 41.0186 115.908 37.5714 112.349 36.1475L103.611 32.6523C101.831 31.9405 100.664 30.2169 100.664 28.3V24.4424H94.5494V31.8156C94.5494 33.7325 95.7164 35.4561 97.4958 36.1679L106.234 39.6632C109.794 41.087 112.128 44.5342 112.128 48.3679V70.1455H118.242Z" fill="#F07281"/>
<path d="M88.2841 24.4424V28.2999C88.2841 30.2167 87.1171 31.9403 85.3375 32.6523C87.7886 33.2513 91.0755 33.8003 94.9644 33.7508C98.4051 33.707 101.342 33.2071 103.611 32.6523C101.831 31.9403 97.1484 30.2167 97.1484 28.2999L100.664 24.4424H88.2841Z" fill="#FFCEBF"/>
<path d="M94.9702 33.751C98.4082 33.7067 101.343 33.207 103.611 32.6525C103.416 32.5746 103.23 32.4825 103.051 32.3815C101.587 31.5565 100.663 29.9815 100.664 28.3004V24.4428H94.5492V31.816C94.5492 32.4982 94.6997 33.1547 94.9702 33.751Z" fill="#FFB09E"/>
<path d="M75.1005 77.1768C77.5274 77.1768 79.495 75.2092 79.495 72.7822V70.1455H70.7059V72.7822C70.7059 75.2092 72.6735 77.1768 75.1005 77.1768Z" fill="#FFCEBF"/>
<path d="M113.848 73.6617C116.275 73.6617 117.609 75.105 117.609 72.6778L118.242 70.1461H109.453V72.7828C109.453 74.5866 110.54 76.1365 112.094 76.8136C112.631 77.0475 113.224 73.6617 113.848 73.6617Z" fill="#FFCEBF"/>
<path d="M112.128 76.2979C112.128 76.4718 112.115 76.6426 112.095 76.8111L112.096 76.8116C112.643 77.0495 113.247 77.1768 113.848 77.1768C115.516 77.1768 116.968 76.2468 117.712 74.8771C118.05 74.2543 118.242 73.5407 118.242 72.7822V70.1455H112.128V76.2979Z" fill="#FFB09E"/>
<path d="M105.937 114.727H83.0107L79.4951 77.1771V70.1459H109.453V77.1771L105.937 114.727Z" fill="#82AEE3"/>
<path d="M102.422 70.1459V77.1771L98.9062 114.727H105.937L109.453 77.1771V70.1459H102.422Z" fill="#528FD8"/>
<path d="M79.4951 73.6611H109.453V52.5674H79.4951V73.6611Z" fill="#F58A97"/>
<path d="M107.571 118.242H96.3557C95.3165 118.242 94.4739 117.4 94.4739 116.36C94.4739 113.516 96.7795 111.211 99.6234 111.211H104.304C107.148 111.211 109.453 113.516 109.453 116.36C109.453 117.4 108.611 118.242 107.571 118.242Z" fill="#554E56"/>
<path d="M104.304 111.211H99.6235C99.219 111.211 98.8257 111.259 98.4481 111.347C100.725 111.879 102.422 113.921 102.422 116.36C102.422 117.4 101.579 118.242 100.54 118.242H107.571C108.611 118.242 109.453 117.4 109.453 116.36C109.453 113.516 107.148 111.211 104.304 111.211Z" fill="#433F43"/>
<path d="M92.5921 118.242H81.3768C80.3375 118.242 79.495 117.4 79.495 116.36C79.495 113.516 81.8005 111.211 84.6444 111.211H89.3247C92.1686 111.211 94.4739 113.516 94.4739 116.36C94.4739 117.4 93.6315 118.242 92.5921 118.242Z" fill="#554E56"/>
<path d="M89.3246 111.211H84.6443C84.2398 111.211 83.8467 111.259 83.4689 111.347C85.7459 111.879 87.4428 113.921 87.4428 116.36C87.4428 117.4 86.6002 118.242 85.561 118.242H92.5922C93.6314 118.242 94.474 117.4 94.474 116.36C94.474 113.516 92.1687 111.211 89.3246 111.211Z" fill="#433F43"/>
<path d="M94.4739 27.7725C88.9607 27.7725 84.4912 23.3029 84.4912 17.7897V7.61738C84.4912 4.38137 87.1148 1.75801 90.3506 1.75801H98.5975C101.833 1.75801 104.457 4.38137 104.457 7.61738V17.7897C104.457 23.3029 99.9871 27.7725 94.4739 27.7725Z" fill="#FFCEBF"/>
<path d="M98.5975 1.75801H91.5662C94.8022 1.75801 97.4256 4.38137 97.4256 7.61738V17.7895C97.4764 18.262 97.7436 21.195 95.6089 23.5317C93.8087 25.5021 90.9868 26.2975 88.284 25.6218C89.1079 26.261 90.5022 27.1537 92.4156 27.5587C93.1797 27.7204 93.8774 27.7729 94.4739 27.7725C99.9873 27.7725 104.457 23.3029 104.457 17.7895V7.61738C104.457 4.38137 101.833 1.75801 98.5975 1.75801Z" fill="#FFB09E"/>
<path d="M98.5975 1.75781H90.3505C87.1147 1.75781 84.4911 4.38117 84.4911 7.61719V11.9531L85.8433 15.1739C86.8124 17.4825 89.0715 18.9844 91.5751 18.9844H97.3726C99.8765 18.9844 102.136 17.4825 103.105 15.1739L104.457 11.9531V7.61719C104.457 4.38117 101.833 1.75781 98.5975 1.75781Z" fill="#355F7F"/>
<path d="M98.5975 1.7577H91.5662C94.8022 1.7577 97.4256 4.38106 97.4256 7.61707V17.7892C97.4425 17.9479 97.4837 18.3843 97.4504 18.9814C99.9229 18.9505 102.146 17.4582 103.105 15.1738L104.457 11.953V7.61707C104.457 4.38106 101.833 1.7577 98.5975 1.7577Z" fill="#305972"/>
<path d="M37.928 48.7442L44.9342 41.738L40.2118 44.2158C39.5098 44.0616 38.925 40.1232 38.5524 39.5548L32.5749 45.5323L35.7868 48.7442C36.3781 49.3353 37.3369 49.3353 37.928 48.7442Z" fill="#EAF6FF"/>
<path d="M39.0454 40.1162C38.8553 39.9528 38.6896 39.7641 38.5525 39.5548L38.5522 39.5546L34.7071 43.4L41.7287 44.9434L44.934 41.738L40.2119 40.7002C40.1289 40.682 40.048 40.6592 39.9686 40.6339C39.6892 40.5446 39.399 40.4204 39.0454 40.1162Z" fill="#D8ECFE"/>
<path d="M20.2158 41.738L27.2219 48.7442C27.813 49.3353 28.7719 49.3353 29.3629 48.7442L32.5748 45.5321L26.5976 39.5548C26.2249 40.1229 25.6401 40.546 24.9379 40.7002L20.2158 41.738Z" fill="#EAF6FF"/>
<path d="M94.4739 26.0142C90.2657 26.0142 86.7878 22.837 86.3076 18.7559C87.7331 20.0109 89.5898 20.7422 91.5752 20.7422H97.3727C99.358 20.7422 101.215 20.0109 102.64 18.7559C102.16 22.837 98.6821 26.0142 94.4739 26.0142ZM94.942 31.9934C93.0009 32.0191 91.0565 31.8879 89.1325 31.6045C89.6556 30.7254 89.9716 29.7188 90.0288 28.6535C91.401 29.217 92.9013 29.5299 94.4739 29.5299C96.0468 29.5299 97.5473 29.2167 98.9195 28.6533C98.9765 29.7178 99.2922 30.7235 99.8144 31.602C98.2002 31.8394 96.5711 31.9727 94.942 31.9934ZM86.249 7.6172C86.249 5.35548 88.0891 3.51564 90.3506 3.51564H98.5975C100.859 3.51564 102.699 5.35548 102.699 7.6172V11.5992L101.484 14.4935C100.787 16.1538 99.1734 17.2266 97.3727 17.2266H91.5752C89.7747 17.2266 88.161 16.1538 87.464 14.4935L86.249 11.5992V7.6172ZM77.7372 71.9037C77.9467 73.597 77.0064 75.4195 75.1007 75.4195C73.1809 75.4195 72.2917 73.6076 72.464 71.9037H77.7372ZM84.6445 112.969H89.3245C91.1948 112.969 92.7161 114.49 92.7161 116.36C92.7161 116.429 92.6606 116.484 92.5921 116.484H81.3768C81.3084 116.484 81.2528 116.429 81.2528 116.36C81.2528 114.49 82.7741 112.969 84.6445 112.969ZM81.2531 75.4195H107.695V77.0953L104.664 109.463C104.349 109.442 99.9644 109.453 99.6234 109.453C98.3913 109.453 97.2344 109.779 96.2317 110.347V85.5052C96.2317 84.5344 95.4449 83.7473 94.4739 83.7473C93.5031 83.7473 92.7161 84.5344 92.7161 85.5052V110.347C91.7134 109.779 90.5566 109.453 89.3245 109.453C88.7381 109.453 84.7427 109.44 84.2847 109.463L81.2531 77.0953V75.4195ZM107.571 116.484H96.3557C96.2873 116.484 96.2317 116.429 96.2317 116.36C96.2317 114.49 97.753 112.969 99.6234 112.969H104.304C106.174 112.969 107.695 114.49 107.695 116.36C107.695 116.429 107.64 116.484 107.571 116.484ZM111.211 71.9037H116.484C116.693 73.5975 115.754 75.4195 113.848 75.4195C111.931 75.4195 111.036 73.6078 111.211 71.9037ZM54.5788 56.1563H10.5703V50.6836C10.5703 47.771 12.6351 45.2039 15.4809 44.5791L19.653 43.6615L25.9788 49.987C26.5968 50.6051 27.4185 50.9454 28.2925 50.9454C29.1665 50.9454 29.988 50.6051 30.606 49.987L32.575 48.0183L34.5438 49.987C35.1618 50.6051 35.9835 50.9454 36.8573 50.9454C37.7315 50.9454 38.553 50.6051 39.171 49.987L45.4966 43.6615L49.6692 44.5793C52.5142 45.2039 54.5788 47.771 54.5788 50.6836V56.1563ZM25.312 42.4165C25.7409 42.323 26.1428 42.1638 26.5131 41.9564L30.089 45.5323L28.2923 47.329L23.7283 42.765L25.312 42.4165ZM24.4945 26.4966V22.118L33.7413 19.969C34.8013 19.7227 35.936 19.8256 36.9349 20.2594L40.6553 21.8749V26.4966C40.6553 30.952 37.0305 34.5769 32.575 34.5769C28.1193 34.5769 24.4945 30.952 24.4945 26.4966ZM24.4945 13.6081C24.4945 12.233 25.6131 11.1141 26.9887 11.1141H38.1613C39.5367 11.1141 40.6553 12.233 40.6553 13.6081V18.0422L38.3352 17.0346C36.6499 16.3027 34.7352 16.1285 32.9456 16.5445L24.4945 18.5086V13.6081ZM36.4856 39.1355L32.575 43.0463L28.6635 39.135C28.7465 38.7987 28.7929 38.4499 28.7929 38.0927V37.4559C29.9791 37.8666 31.2508 38.0925 32.575 38.0925C33.8988 38.0925 35.1702 37.8666 36.3562 37.4562V38.0927C36.3562 38.4499 36.4028 38.7989 36.4856 39.1355ZM41.4213 42.765L36.8575 47.329L35.0608 45.5323L38.6364 41.9569C39.0056 42.1638 39.4063 42.3225 39.8341 42.4158L41.4213 42.765ZM118.242 55.4213C119.213 55.4213 120 54.6342 120 53.6634V44.8524C120 40.2755 117.254 36.2182 113.003 34.5155L104.264 31.0212C103.145 30.5731 102.422 29.5052 102.422 28.3008V26.4211C104.752 24.2742 106.215 21.1999 106.215 17.7893V7.6172C106.215 3.41697 102.798 1.52588e-05 98.5975 1.52588e-05H90.3506C86.1503 1.52588e-05 82.7334 3.41697 82.7334 7.6172V17.7893C82.7334 21.1999 84.1966 24.2745 86.5265 26.4213V28.3008C86.5265 29.5052 85.8037 30.5731 84.6857 31.0209L75.9449 34.5157C71.6948 36.218 68.9484 40.2752 68.9484 44.8524V56.1563H58.0945V50.6836C58.0945 46.1327 54.8683 42.1212 50.4238 41.1457L40.5869 38.9817C40.1727 38.8913 39.8718 38.5174 39.8718 38.0927V35.5001C42.4924 33.3724 44.171 30.1275 44.171 26.4966V13.6081C44.171 10.2945 41.4749 7.59846 38.1613 7.59846H26.9887C23.6749 7.59846 20.9788 10.2945 20.9788 13.6081V26.4966C20.9788 30.127 22.657 33.3717 25.2773 35.4996V38.0927C25.2766 38.5186 24.981 38.8903 24.5599 38.9824L14.7262 41.1455C10.281 42.1212 7.05463 46.1325 7.05463 50.6836V56.1563H5.27338C2.36572 56.1563 -6.10352e-05 58.5218 -6.10352e-05 61.4297V68.55C-6.10352e-05 70.8415 1.4697 72.7952 3.51556 73.5211V118.242C3.51556 119.213 4.30259 120 5.27338 120C6.24439 120 7.03119 119.213 7.03119 118.242V73.8234H50.1562C51.1272 73.8234 51.914 73.0364 51.914 72.0656C51.914 71.0949 51.1272 70.3078 50.1562 70.3078H5.27338C4.30424 70.3078 3.51556 69.5191 3.51556 68.55V61.4297C3.51556 60.4603 4.30424 59.6719 5.27338 59.6719H68.9484C68.9484 59.6763 68.9477 70.3024 68.9484 70.3078H58.5475C57.5765 70.3078 56.7897 71.0949 56.7897 72.0656C56.7897 73.0364 57.5765 73.8234 58.5475 73.8234H69.0377C69.5151 76.7121 72.138 78.9352 75.1007 78.9352C76.082 78.9352 77.0099 78.7029 77.834 78.2925L80.8586 110.587C78.9806 111.823 77.7372 113.949 77.7372 116.36C77.7372 118.367 79.3701 120 81.3768 120H92.5921C93.2812 120 93.9238 119.804 94.4739 119.47C95.024 119.804 95.6666 120 96.3557 120H107.571C109.578 120 111.211 118.367 111.211 116.36C111.211 113.949 109.968 111.823 108.09 110.587L111.114 78.2963C111.695 78.5848 112.32 78.7774 112.969 78.8702V118.242C112.969 119.213 113.756 120 114.726 120C115.698 120 116.484 119.213 116.484 118.242V78.3403C118.561 77.351 120 75.232 120 72.7828V61.875C120 60.9042 119.213 60.1172 118.242 60.1172C117.271 60.1172 116.484 60.9042 116.484 61.875V68.3881H111.211V52.5677C111.211 51.597 110.424 50.8099 109.453 50.8099C108.482 50.8099 107.695 51.597 107.695 52.5677V71.9039H81.2531L81.2528 52.5677C81.2528 51.597 80.466 50.8099 79.495 50.8099C78.524 50.8099 77.7372 51.597 77.7372 52.5677V68.3881H72.464V44.8524C72.464 41.7206 74.3432 38.9442 77.2511 37.7799L85.4824 34.4888C88.5995 35.2034 91.7931 35.5495 94.987 35.5088C97.8365 35.4724 100.686 35.127 103.467 34.4888L111.696 37.7794C114.605 38.9445 116.484 41.7206 116.484 44.8524V53.6634C116.484 54.6342 117.271 55.4213 118.242 55.4213Z" fill="#27272A"/>
</g>
</g>
<defs>
<clipPath id="clip0_410_3470">
<rect width="120" height="120" fill="white"/>
</clipPath>
</defs>
</svg>
