<svg width="96" height="67" viewBox="0 0 96 67" fill="none" xmlns="http://www.w3.org/2000/svg">
<path d="M4.08398 7.95898H1.91016V6.58789H4.08398C4.41992 6.58789 4.69336 6.5332 4.9043 6.42383C5.11523 6.31055 5.26953 6.1543 5.36719 5.95508C5.46484 5.75586 5.51367 5.53125 5.51367 5.28125C5.51367 5.02734 5.46484 4.79102 5.36719 4.57227C5.26953 4.35352 5.11523 4.17773 4.9043 4.04492C4.69336 3.91211 4.41992 3.8457 4.08398 3.8457H2.51953V11H0.761719V2.46875H4.08398C4.75195 2.46875 5.32422 2.58984 5.80078 2.83203C6.28125 3.07031 6.64844 3.40039 6.90234 3.82227C7.15625 4.24414 7.2832 4.72656 7.2832 5.26953C7.2832 5.82031 7.15625 6.29688 6.90234 6.69922C6.64844 7.10156 6.28125 7.41211 5.80078 7.63086C5.32422 7.84961 4.75195 7.95898 4.08398 7.95898ZM8.03906 7.89453V7.77148C8.03906 7.30664 8.10547 6.87891 8.23828 6.48828C8.37109 6.09375 8.56445 5.75195 8.81836 5.46289C9.07227 5.17383 9.38477 4.94922 9.75586 4.78906C10.127 4.625 10.5527 4.54297 11.0332 4.54297C11.5137 4.54297 11.9414 4.625 12.3164 4.78906C12.6914 4.94922 13.0059 5.17383 13.2598 5.46289C13.5176 5.75195 13.7129 6.09375 13.8457 6.48828C13.9785 6.87891 14.0449 7.30664 14.0449 7.77148V7.89453C14.0449 8.35547 13.9785 8.7832 13.8457 9.17773C13.7129 9.56836 13.5176 9.91016 13.2598 10.2031C13.0059 10.4922 12.6934 10.7168 12.3223 10.877C11.9512 11.0371 11.5254 11.1172 11.0449 11.1172C10.5645 11.1172 10.1367 11.0371 9.76172 10.877C9.39062 10.7168 9.07617 10.4922 8.81836 10.2031C8.56445 9.91016 8.37109 9.56836 8.23828 9.17773C8.10547 8.7832 8.03906 8.35547 8.03906 7.89453ZM9.72656 7.77148V7.89453C9.72656 8.16016 9.75 8.4082 9.79688 8.63867C9.84375 8.86914 9.91797 9.07227 10.0195 9.24805C10.125 9.41992 10.2617 9.55469 10.4297 9.65234C10.5977 9.75 10.8027 9.79883 11.0449 9.79883C11.2793 9.79883 11.4805 9.75 11.6484 9.65234C11.8164 9.55469 11.9512 9.41992 12.0527 9.24805C12.1543 9.07227 12.2285 8.86914 12.2754 8.63867C12.3262 8.4082 12.3516 8.16016 12.3516 7.89453V7.77148C12.3516 7.51367 12.3262 7.27148 12.2754 7.04492C12.2285 6.81445 12.1523 6.61133 12.0469 6.43555C11.9453 6.25586 11.8105 6.11523 11.6426 6.01367C11.4746 5.91211 11.2715 5.86133 11.0332 5.86133C10.7949 5.86133 10.5918 5.91211 10.4238 6.01367C10.2598 6.11523 10.125 6.25586 10.0195 6.43555C9.91797 6.61133 9.84375 6.81445 9.79688 7.04492C9.75 7.27148 9.72656 7.51367 9.72656 7.77148ZM16.8926 9.35938L18.2109 4.66016H19.2832L18.9375 6.50586L17.6191 11H16.7227L16.8926 9.35938ZM16.2246 4.66016L17.168 9.35352L17.2559 11H16.2012L14.5957 4.66016H16.2246ZM20.4902 9.27734L21.4102 4.66016H23.0449L21.4395 11H20.3906L20.4902 9.27734ZM19.4297 4.66016L20.7422 9.32422L20.9238 11H20.0215L18.7031 6.51172L18.3691 4.66016H19.4297ZM26.8125 11.1172C26.3203 11.1172 25.8789 11.0391 25.4883 10.8828C25.0977 10.7227 24.7656 10.502 24.4922 10.2207C24.2227 9.93945 24.0156 9.61328 23.8711 9.24219C23.7266 8.86719 23.6543 8.46875 23.6543 8.04688V7.8125C23.6543 7.33203 23.7227 6.89258 23.8594 6.49414C23.9961 6.0957 24.1914 5.75 24.4453 5.45703C24.7031 5.16406 25.0156 4.93945 25.3828 4.7832C25.75 4.62305 26.1641 4.54297 26.625 4.54297C27.0742 4.54297 27.4727 4.61719 27.8203 4.76562C28.168 4.91406 28.459 5.125 28.6934 5.39844C28.9316 5.67188 29.1113 6 29.2324 6.38281C29.3535 6.76172 29.4141 7.18359 29.4141 7.64844V8.35156H24.375V7.22656H27.7559V7.09766C27.7559 6.86328 27.7129 6.6543 27.627 6.4707C27.5449 6.2832 27.4199 6.13477 27.252 6.02539C27.084 5.91602 26.8691 5.86133 26.6074 5.86133C26.3848 5.86133 26.1934 5.91016 26.0332 6.00781C25.873 6.10547 25.7422 6.24219 25.6406 6.41797C25.543 6.59375 25.4688 6.80078 25.418 7.03906C25.3711 7.27344 25.3477 7.53125 25.3477 7.8125V8.04688C25.3477 8.30078 25.3828 8.53516 25.4531 8.75C25.5273 8.96484 25.6309 9.15039 25.7637 9.30664C25.9004 9.46289 26.0645 9.58398 26.2559 9.66992C26.4512 9.75586 26.6719 9.79883 26.918 9.79883C27.2227 9.79883 27.5059 9.74023 27.7676 9.62305C28.0332 9.50195 28.2617 9.32031 28.4531 9.07812L29.2734 9.96875C29.1406 10.1602 28.959 10.3438 28.7285 10.5195C28.502 10.6953 28.2285 10.8398 27.9082 10.9531C27.5879 11.0625 27.2227 11.1172 26.8125 11.1172ZM32.0625 6.04297V11H30.375V4.66016H31.9629L32.0625 6.04297ZM33.9727 4.61914L33.9434 6.18359C33.8613 6.17188 33.7617 6.16211 33.6445 6.1543C33.5312 6.14258 33.4277 6.13672 33.334 6.13672C33.0957 6.13672 32.8887 6.16797 32.7129 6.23047C32.541 6.28906 32.3965 6.37695 32.2793 6.49414C32.166 6.61133 32.0801 6.75391 32.0215 6.92188C31.9668 7.08984 31.9355 7.28125 31.9277 7.49609L31.5879 7.39062C31.5879 6.98047 31.6289 6.60352 31.7109 6.25977C31.793 5.91211 31.9121 5.60938 32.0684 5.35156C32.2285 5.09375 32.4238 4.89453 32.6543 4.75391C32.8848 4.61328 33.1484 4.54297 33.4453 4.54297C33.5391 4.54297 33.6348 4.55078 33.7324 4.56641C33.8301 4.57812 33.9102 4.5957 33.9727 4.61914ZM37.5703 11.1172C37.0781 11.1172 36.6367 11.0391 36.2461 10.8828C35.8555 10.7227 35.5234 10.502 35.25 10.2207C34.9805 9.93945 34.7734 9.61328 34.6289 9.24219C34.4844 8.86719 34.4121 8.46875 34.4121 8.04688V7.8125C34.4121 7.33203 34.4805 6.89258 34.6172 6.49414C34.7539 6.0957 34.9492 5.75 35.2031 5.45703C35.4609 5.16406 35.7734 4.93945 36.1406 4.7832C36.5078 4.62305 36.9219 4.54297 37.3828 4.54297C37.832 4.54297 38.2305 4.61719 38.5781 4.76562C38.9258 4.91406 39.2168 5.125 39.4512 5.39844C39.6895 5.67188 39.8691 6 39.9902 6.38281C40.1113 6.76172 40.1719 7.18359 40.1719 7.64844V8.35156H35.1328V7.22656H38.5137V7.09766C38.5137 6.86328 38.4707 6.6543 38.3848 6.4707C38.3027 6.2832 38.1777 6.13477 38.0098 6.02539C37.8418 5.91602 37.627 5.86133 37.3652 5.86133C37.1426 5.86133 36.9512 5.91016 36.791 6.00781C36.6309 6.10547 36.5 6.24219 36.3984 6.41797C36.3008 6.59375 36.2266 6.80078 36.1758 7.03906C36.1289 7.27344 36.1055 7.53125 36.1055 7.8125V8.04688C36.1055 8.30078 36.1406 8.53516 36.2109 8.75C36.2852 8.96484 36.3887 9.15039 36.5215 9.30664C36.6582 9.46289 36.8223 9.58398 37.0137 9.66992C37.209 9.75586 37.4297 9.79883 37.6758 9.79883C37.9805 9.79883 38.2637 9.74023 38.5254 9.62305C38.791 9.50195 39.0195 9.32031 39.2109 9.07812L40.0312 9.96875C39.8984 10.1602 39.7168 10.3438 39.4863 10.5195C39.2598 10.6953 38.9863 10.8398 38.666 10.9531C38.3457 11.0625 37.9805 11.1172 37.5703 11.1172ZM44.877 9.61719V2H46.5762V11H45.0469L44.877 9.61719ZM40.8691 7.90625V7.7832C40.8691 7.29883 40.9238 6.85938 41.0332 6.46484C41.1426 6.06641 41.3027 5.72461 41.5137 5.43945C41.7246 5.1543 41.9844 4.93359 42.293 4.77734C42.6016 4.62109 42.9531 4.54297 43.3477 4.54297C43.7188 4.54297 44.043 4.62109 44.3203 4.77734C44.6016 4.93359 44.8398 5.15625 45.0352 5.44531C45.2344 5.73047 45.3945 6.06836 45.5156 6.45898C45.6367 6.8457 45.7246 7.26953 45.7793 7.73047V8C45.7246 8.44141 45.6367 8.85156 45.5156 9.23047C45.3945 9.60938 45.2344 9.94141 45.0352 10.2266C44.8398 10.5078 44.6016 10.7266 44.3203 10.8828C44.0391 11.0391 43.7109 11.1172 43.3359 11.1172C42.9414 11.1172 42.5898 11.0371 42.2812 10.877C41.9766 10.7168 41.7188 10.4922 41.5078 10.2031C41.3008 9.91406 41.1426 9.57422 41.0332 9.18359C40.9238 8.79297 40.8691 8.36719 40.8691 7.90625ZM42.5566 7.7832V7.90625C42.5566 8.16797 42.5762 8.41211 42.6152 8.63867C42.6582 8.86523 42.7266 9.06641 42.8203 9.24219C42.918 9.41406 43.043 9.54883 43.1953 9.64648C43.3516 9.74023 43.541 9.78711 43.7637 9.78711C44.0527 9.78711 44.291 9.72266 44.4785 9.59375C44.666 9.46094 44.8086 9.2793 44.9062 9.04883C45.0078 8.81836 45.0664 8.55273 45.082 8.25195V7.48438C45.0703 7.23828 45.0352 7.01758 44.9766 6.82227C44.9219 6.62305 44.8398 6.45312 44.7305 6.3125C44.625 6.17188 44.4922 6.0625 44.332 5.98438C44.1758 5.90625 43.9902 5.86719 43.7754 5.86719C43.5566 5.86719 43.3691 5.91797 43.2129 6.01953C43.0566 6.11719 42.9297 6.25195 42.832 6.42383C42.7383 6.5957 42.668 6.79883 42.6211 7.0332C42.5781 7.26367 42.5566 7.51367 42.5566 7.7832ZM50.8828 2H52.5703V9.54688L52.4004 11H50.8828V2ZM56.584 7.76562V7.88867C56.584 8.36133 56.5332 8.79492 56.4316 9.18945C56.334 9.58398 56.1816 9.92578 55.9746 10.2148C55.7676 10.5 55.5098 10.7227 55.2012 10.8828C54.8965 11.0391 54.5371 11.1172 54.123 11.1172C53.7363 11.1172 53.4004 11.0391 53.1152 10.8828C52.834 10.7266 52.5977 10.5059 52.4062 10.2207C52.2148 9.93555 52.0605 9.60156 51.9434 9.21875C51.8262 8.83594 51.7383 8.41797 51.6797 7.96484V7.69531C51.7383 7.24219 51.8262 6.82422 51.9434 6.44141C52.0605 6.05859 52.2148 5.72461 52.4062 5.43945C52.5977 5.1543 52.834 4.93359 53.1152 4.77734C53.3965 4.62109 53.7285 4.54297 54.1113 4.54297C54.5293 4.54297 54.8926 4.62305 55.2012 4.7832C55.5137 4.93945 55.7715 5.16211 55.9746 5.45117C56.1816 5.73633 56.334 6.07617 56.4316 6.4707C56.5332 6.86133 56.584 7.29297 56.584 7.76562ZM54.8965 7.88867V7.76562C54.8965 7.50781 54.877 7.26562 54.8379 7.03906C54.8027 6.80859 54.7402 6.60742 54.6504 6.43555C54.5605 6.25977 54.4375 6.12109 54.2812 6.01953C54.1289 5.91797 53.9316 5.86719 53.6895 5.86719C53.459 5.86719 53.2637 5.90625 53.1035 5.98438C52.9434 6.0625 52.8105 6.17188 52.7051 6.3125C52.6035 6.45312 52.5273 6.62109 52.4766 6.81641C52.4258 7.00781 52.3945 7.21875 52.3828 7.44922V8.2168C52.3945 8.52539 52.4453 8.79883 52.5352 9.03711C52.6289 9.27148 52.7695 9.45703 52.957 9.59375C53.1484 9.72656 53.3965 9.79297 53.7012 9.79297C53.9395 9.79297 54.1367 9.74609 54.293 9.65234C54.4492 9.55859 54.5703 9.42578 54.6562 9.25391C54.7461 9.08203 54.8086 8.88086 54.8438 8.65039C54.8789 8.41602 54.8965 8.16211 54.8965 7.88867ZM59.4434 10.2852L61.125 4.66016H62.9355L60.3867 11.9551C60.332 12.1152 60.2578 12.2871 60.1641 12.4707C60.0742 12.6543 59.9512 12.8281 59.7949 12.9922C59.6426 13.1602 59.4492 13.2969 59.2148 13.4023C58.9844 13.5078 58.7012 13.5605 58.3652 13.5605C58.2051 13.5605 58.0742 13.5508 57.9727 13.5312C57.8711 13.5117 57.75 13.4844 57.6094 13.4492V12.2129C57.6523 12.2129 57.6973 12.2129 57.7441 12.2129C57.791 12.2168 57.8359 12.2188 57.8789 12.2188C58.1016 12.2188 58.2832 12.1934 58.4238 12.1426C58.5645 12.0918 58.6777 12.0137 58.7637 11.9082C58.8496 11.8066 58.918 11.6738 58.9688 11.5098L59.4434 10.2852ZM58.7402 4.66016L60.1172 9.25391L60.3574 11.041L59.209 11.1641L56.9297 4.66016H58.7402Z" fill="black"/>
<g clip-path="url(#clip0_403_2855)">
<path fill-rule="evenodd" clip-rule="evenodd" d="M24.9737 19.778C13.1325 19.778 3.45628 29.0554 2.80551 40.7439L0 41.4938C0.269341 27.9204 11.3473 17 24.9737 17C37.5603 17 47.9724 26.3173 49.7007 38.4365L46.997 39.1592C45.6034 28.2279 36.2746 19.778 24.9737 19.778ZM47.1751 42.272C47.0295 54.4195 37.1454 64.222 24.9737 64.222C12.9854 64.222 3.21614 54.7125 2.78545 42.8193L0.0423682 43.5525C0.843375 56.6365 11.6993 67 24.9737 67C38.769 67 49.9525 55.807 49.9525 42C49.9525 41.8433 49.951 41.6868 49.9482 41.5308L47.1751 42.272Z" fill="#0070C0"/>
<path fill-rule="evenodd" clip-rule="evenodd" d="M22.2733 25.7035C23.037 25.3965 23.5763 24.6484 23.5763 23.7742C23.5763 22.6265 22.6467 21.696 21.4999 21.696C20.3532 21.696 19.4235 22.6265 19.4235 23.7742C19.4235 24.4115 19.7101 24.9817 20.1613 25.363L19.8589 26.7095L16.695 26.2272L13.8494 22.2551L12.1143 23.5003L14.9113 27.4047L14.7987 28.088L15.4816 28.2008L15.4841 28.2042L15.7192 28.24L16.8779 28.4314L16.8803 28.417L24.0802 29.5146L26.7525 33.1231L24.084 35.5001H27.2955L28.8904 34.0793L31.3856 31.8672L38.8944 33.0364L38.4798 35.5001H40.6452L41.0041 33.3649L45.6077 34.0818L46.3878 34.2174L45.9359 31.9703L31.771 29.7646L31.7717 29.7597L29.6925 29.4163L29.4807 30.7012L28.3554 31.6989L25.2715 27.5346L21.9749 27.032L22.2733 25.7035ZM35.9954 50.7501H31.1365L38.1805 60.3131L39.8991 59.0451L34.5833 51.8286L35.9954 50.7501ZM28.3024 50.7501H17.8166L26.7283 52.2081L29.8729 56.3261L25.847 58.4646C25.5455 58.2936 25.1968 58.1961 24.8254 58.1961C23.6786 58.1961 22.749 59.1266 22.749 60.2743C22.749 61.4221 23.6786 62.3523 24.8254 62.3523C25.9557 62.3523 26.8749 61.4486 26.9011 60.3238L31.187 58.0473L34.5938 62.5093L36.2904 61.2118L28.3024 50.7501ZM16.7272 50.7501H14.549L13.2443 57.2833L18.3489 58.1076L17.4897 63.2676L19.5958 63.6188L20.8077 56.3398L15.7726 55.5271L16.7272 50.7501ZM7.3775 50.7501H11.5274C11.4862 51.8616 10.573 52.7498 9.45243 52.7498C8.33191 52.7498 7.41869 51.8616 7.3775 50.7501ZM5.19963 35.5001H7.78733L5.14073 31.6316L3.37903 32.8389L5.19963 35.5001ZM13.5739 35.5001H15.7518L15.9208 34.6595L13.4641 31.2788L13.398 31.3269C13.5281 31.0553 13.601 30.751 13.601 30.4297C13.601 29.2819 12.6714 28.3515 11.5246 28.3515C10.3778 28.3515 9.44821 29.2819 9.44821 30.4297C9.44821 31.5774 10.3778 32.5078 11.5246 32.5078C11.6182 32.5078 11.7104 32.5016 11.8008 32.4896L11.7374 32.5357L13.6427 35.1577L13.5739 35.5001ZM17.5946 35.5001H19.7744L19.9165 34.7893L19.9638 34.5499C20.7385 34.2482 21.2876 33.4945 21.2876 32.6125C21.2876 31.4647 20.3579 30.5343 19.2112 30.5343C18.0644 30.5343 17.1347 31.4647 17.1347 32.6125C17.1347 33.2422 17.4146 33.8065 17.8567 34.1876L17.5946 35.5001ZM33.8065 35.5001C33.4368 35.1606 32.944 34.9534 32.403 34.9534C31.8617 34.9534 31.3688 35.1606 30.9994 35.5001H33.8065ZM28.0964 26.9977C28.7266 26.9977 29.2914 26.7167 29.672 26.273L37.9894 27.4495L38.4136 22.5609L36.2864 22.3761L36.0571 25.018L30.032 24.1657C29.7305 23.3906 28.9776 22.8413 28.0964 22.8413C26.9496 22.8413 26.0201 23.7718 26.0201 24.9195C26.0201 26.0672 26.9496 26.9977 28.0964 26.9977ZM48.2122 40.2915C49.5896 40.2915 50.7061 39.1741 50.7061 37.7956C50.7061 36.4171 49.5896 35.2996 48.2122 35.2996C46.8349 35.2996 45.7186 36.4171 45.7186 37.7956C45.7186 39.1741 46.8349 40.2915 48.2122 40.2915Z" fill="#0070C0"/>
<path d="M12.139 45.9938C12.139 46.5063 12.0358 46.9653 11.8294 47.3705C11.6231 47.776 11.3479 48.1203 11.004 48.4033C10.6677 48.6863 10.2779 48.9045 9.83457 49.0573C9.39127 49.2103 8.93266 49.2868 8.45879 49.2868C8.14543 49.2868 7.83204 49.2485 7.51866 49.172C7.2053 49.1033 6.90721 49.0268 6.62442 48.9428C6.34926 48.8585 6.09702 48.782 5.86774 48.7133C5.63844 48.6368 5.45117 48.5985 5.30594 48.5985C5.21425 48.5985 5.13399 48.6213 5.0652 48.6673C5.00405 48.7055 4.95055 48.759 4.90469 48.828C4.86647 48.8968 4.83589 48.9695 4.81296 49.046C4.79768 49.13 4.78239 49.2103 4.7671 49.2868H4.45757V45.2363H4.7671C4.82825 45.7335 4.94673 46.1888 5.12253 46.6018C5.2983 47.015 5.53143 47.3705 5.82188 47.669C6.11231 47.9598 6.46009 48.1893 6.86517 48.3575C7.27792 48.518 7.74414 48.5985 8.26388 48.5985C8.54669 48.5985 8.82567 48.5603 9.10081 48.4838C9.38362 48.3995 9.63201 48.277 9.84603 48.1165C10.0677 47.9558 10.2473 47.757 10.3849 47.5198C10.5225 47.275 10.5912 46.992 10.5912 46.6708C10.5912 46.334 10.4995 46.032 10.3161 45.7643C10.1403 45.4888 9.90718 45.2363 9.61675 45.0068C9.3263 44.7698 8.99381 44.5478 8.6193 44.3413C8.24477 44.127 7.86262 43.913 7.4728 43.6988C7.09065 43.4845 6.7123 43.2588 6.33779 43.0218C5.96326 42.7845 5.63079 42.5245 5.34034 42.2415C5.04991 41.9508 4.81296 41.6333 4.62952 41.2891C4.45374 40.9372 4.36584 40.5394 4.36584 40.0957C4.36584 39.6138 4.45757 39.1816 4.64099 38.7991C4.83207 38.4166 5.08431 38.0953 5.39767 37.8352C5.71105 37.5675 6.07027 37.3648 6.47537 37.2271C6.8881 37.0894 7.31996 37.0205 7.7709 37.0205C8.03842 37.0205 8.30209 37.0549 8.56197 37.1238C8.8295 37.1926 9.08171 37.2691 9.31865 37.3533C9.56325 37.4298 9.78488 37.5025 9.98361 37.5713C10.1823 37.6401 10.3467 37.6746 10.4766 37.6746C10.5683 37.6746 10.6448 37.6516 10.7059 37.6057C10.767 37.5598 10.8206 37.5063 10.8664 37.4451C10.9123 37.3762 10.9467 37.3036 10.9696 37.2271C11.0002 37.1506 11.0231 37.0817 11.0384 37.0205H11.3709V41.0596H11.0384C11.0002 40.6006 10.9008 40.1684 10.7403 39.763C10.5798 39.3499 10.3619 38.9942 10.0868 38.6958C9.81928 38.3898 9.49445 38.1489 9.11228 37.9729C8.73013 37.7893 8.29063 37.6975 7.79383 37.6975C7.53395 37.6975 7.28174 37.7396 7.03715 37.8237C6.79255 37.9079 6.57092 38.0303 6.37219 38.1909C6.1811 38.3439 6.02441 38.5313 5.90214 38.7532C5.78748 38.9674 5.73016 39.2122 5.73016 39.4876C5.73016 39.8089 5.82188 40.0995 6.0053 40.3596C6.18874 40.6197 6.42951 40.8607 6.72758 41.0825C7.03332 41.3044 7.37728 41.5186 7.75943 41.7251C8.14161 41.924 8.5314 42.1305 8.92884 42.3448C9.33394 42.5513 9.72756 42.773 10.1097 43.0103C10.4919 43.2475 10.832 43.5113 11.1301 43.802C11.4358 44.0928 11.6804 44.4178 11.8638 44.7773C12.0473 45.1293 12.139 45.5348 12.139 45.9938Z" fill="#0070C0"/>
<path d="M24.2353 43.079C24.2353 43.913 24.0978 44.7048 23.8226 45.4543C23.5474 46.204 23.1576 46.8658 22.6532 47.4395C22.1564 48.0055 21.5526 48.4568 20.8417 48.7935C20.1386 49.1225 19.3513 49.2868 18.48 49.2868C17.6086 49.2868 16.8176 49.1225 16.1067 48.7935C15.4036 48.4645 14.7998 48.0208 14.2953 47.4625C13.7985 46.8963 13.4163 46.2385 13.1488 45.4888C12.8813 44.739 12.7476 43.9435 12.7476 43.102C12.7476 42.253 12.889 41.4612 13.1717 40.7268C13.4622 39.9848 13.8673 39.3422 14.387 38.7991C14.9068 38.2483 15.5259 37.8161 16.2443 37.5025C16.9628 37.1812 17.7539 37.0205 18.6176 37.0205C19.466 37.0205 20.2341 37.185 20.922 37.5139C21.6099 37.8352 22.1984 38.2751 22.6876 38.8335C23.1844 39.3843 23.5665 40.0269 23.8341 40.7612C24.1016 41.4956 24.2353 42.2683 24.2353 43.079ZM22.2634 43.1938C22.2634 42.7655 22.2405 42.3295 22.1946 41.8858C22.1564 41.4421 22.0838 41.0137 21.9768 40.6006C21.8698 40.1875 21.7245 39.8012 21.5411 39.4417C21.3577 39.0821 21.1246 38.7685 20.8417 38.5007C20.5589 38.233 20.2188 38.0226 19.8214 37.8696C19.4316 37.709 18.9691 37.6287 18.4341 37.6287C17.945 37.6287 17.5131 37.709 17.1386 37.8696C16.7717 38.0226 16.4507 38.233 16.1755 38.5007C15.9004 38.7685 15.6711 39.0821 15.4877 39.4417C15.3042 39.8012 15.1552 40.1837 15.0405 40.5891C14.9335 40.9869 14.8571 41.4 14.8112 41.8284C14.7654 42.249 14.7424 42.6583 14.7424 43.0563C14.7424 43.4463 14.7654 43.8555 14.8112 44.284C14.8571 44.7123 14.9373 45.133 15.052 45.5463C15.1666 45.9593 15.3157 46.3533 15.4991 46.728C15.6826 47.1028 15.9119 47.4318 16.187 47.7148C16.4622 47.998 16.787 48.2235 17.1615 48.3918C17.536 48.5603 17.9679 48.6443 18.457 48.6443C18.9691 48.6443 19.4163 48.5678 19.7984 48.4148C20.1883 48.2618 20.5245 48.0553 20.8073 47.7953C21.0902 47.5275 21.3233 47.2175 21.5067 46.8658C21.6978 46.5063 21.8468 46.1275 21.9538 45.7298C22.0685 45.3243 22.1487 44.9075 22.1946 44.479C22.2405 44.043 22.2634 43.6145 22.2634 43.1938Z" fill="#0070C0"/>
<path d="M36.5839 37.5828C36.2322 37.5828 35.9457 37.6134 35.7241 37.6745C35.5023 37.7357 35.3304 37.839 35.208 37.9844C35.0859 38.1297 35.0017 38.321 34.9558 38.5581C34.91 38.7876 34.8871 39.0706 34.8871 39.4072V44.1808C34.8871 44.984 34.8106 45.703 34.6578 46.338C34.5126 46.9653 34.2641 47.4968 33.9126 47.9328C33.5687 48.369 33.1061 48.7055 32.5253 48.9428C31.9443 49.172 31.2222 49.2868 30.3584 49.2868C29.403 49.2868 28.6234 49.1683 28.0197 48.9313C27.4234 48.694 26.9573 48.3498 26.6209 47.8985C26.2846 47.4395 26.0553 46.881 25.9329 46.2233C25.8183 45.5575 25.7611 44.8003 25.7611 43.9513V39.3384C25.7611 39.0171 25.7458 38.7455 25.7151 38.5237C25.6846 38.3019 25.6157 38.1221 25.5088 37.9844C25.4094 37.839 25.2565 37.7357 25.0502 37.6745C24.8515 37.6134 24.5802 37.5828 24.2362 37.5828V37.2729H28.9484V37.5828C28.6119 37.5828 28.3444 37.6134 28.1458 37.6745C27.947 37.7357 27.7941 37.839 27.6872 37.9844C27.58 38.1221 27.5076 38.3019 27.4694 38.5237C27.4387 38.7455 27.4234 39.0171 27.4234 39.3384V44.4675C27.4234 45.0108 27.4579 45.5308 27.5266 46.028C27.603 46.5178 27.7484 46.9498 27.9622 47.3248C28.184 47.692 28.4935 47.9865 28.8909 48.2083C29.2961 48.4225 29.8234 48.5295 30.4731 48.5295C31.0004 48.5295 31.5049 48.4455 31.9865 48.277C32.4679 48.1088 32.9038 47.841 33.2934 47.474C33.4845 47.298 33.6336 47.0685 33.7405 46.7855C33.8474 46.4948 33.9279 46.1925 33.9813 45.879C34.0348 45.5575 34.0655 45.2403 34.073 44.9265C34.0882 44.6053 34.096 44.326 34.096 44.0888V39.3384C34.096 38.9712 34.0768 38.6767 34.0385 38.4548C34.0081 38.2253 33.9316 38.0456 33.8095 37.9155C33.6948 37.7855 33.5265 37.6975 33.3049 37.6516C33.0833 37.6057 32.7891 37.5828 32.4222 37.5828V37.2729H36.5839V37.5828Z" fill="#0070C0"/>
<path d="M45.2407 49H36.1377V48.6672C36.4127 48.6672 36.6573 48.652 36.8713 48.6212C37.0854 48.583 37.2612 48.5142 37.3986 48.4147C37.544 48.3077 37.6547 48.1585 37.7311 47.9672C37.8075 47.776 37.8457 47.5235 37.8457 47.21V39.063C37.8457 38.757 37.8075 38.5084 37.7311 38.3171C37.6547 38.1259 37.544 37.9805 37.3986 37.8811C37.2612 37.774 37.0854 37.7013 36.8713 37.6631C36.6573 37.6248 36.4127 37.6057 36.1377 37.6057V37.2729H41.2279V37.6057C40.9451 37.6057 40.6968 37.6248 40.4827 37.6631C40.2687 37.7013 40.0891 37.774 39.944 37.8811C39.7986 37.9805 39.6879 38.1259 39.6115 38.3171C39.5351 38.5084 39.4968 38.757 39.4968 39.063V46.7855C39.4968 47.076 39.5198 47.317 39.5655 47.5082C39.6115 47.692 39.6879 47.841 39.7948 47.9557C39.9095 48.063 40.0624 48.1395 40.2534 48.1852C40.4445 48.2235 40.6853 48.2427 40.9758 48.2427H42.1451C42.7109 48.2427 43.1847 48.212 43.5669 48.151C43.949 48.082 44.2775 47.9598 44.5528 47.7837C44.8355 47.6 45.0841 47.3478 45.2979 47.0262C45.512 46.6975 45.7298 46.2727 45.9516 45.7527L46.2496 45.7985L45.2407 49Z" fill="#0070C0"/>
<path d="M62.2658 46.2755C61.744 47.2137 61.0861 47.9517 60.2922 48.4893C59.5057 49.019 58.568 49.2837 57.4791 49.2837C56.6171 49.2837 55.838 49.1325 55.1424 48.8298C54.4467 48.527 53.8532 48.1107 53.3616 47.581C52.8701 47.0512 52.4919 46.4268 52.2274 45.7078C51.9626 44.9888 51.8304 44.2092 51.8304 43.3692C51.8304 42.5062 51.9703 41.7003 52.2501 40.951C52.5373 40.1942 52.9383 39.5358 53.4523 38.9757C53.9741 38.4081 54.5941 37.9616 55.3125 37.6361C56.0386 37.3107 56.8439 37.1479 57.7287 37.1479C58.0237 37.1479 58.2957 37.1707 58.5452 37.2161C58.8025 37.2539 59.0483 37.3069 59.2826 37.375C59.5246 37.4431 59.7627 37.5264 59.9972 37.6248C60.2315 37.7156 60.4773 37.8177 60.7346 37.9313C60.848 37.9313 60.9462 37.9048 61.0294 37.8518C61.1125 37.7988 61.1807 37.7345 61.2337 37.6588C61.2864 37.5831 61.3281 37.4999 61.3583 37.409C61.3961 37.3107 61.4265 37.2236 61.449 37.1479H61.7552L62.0048 41.0759H61.7552C61.6116 40.5916 61.4265 40.1488 61.1995 39.7477C60.9802 39.339 60.7119 38.9871 60.3942 38.6919C60.0842 38.3967 59.7212 38.1659 59.3053 37.9994C58.8894 37.8329 58.4131 37.7496 57.876 37.7496C57.3468 37.7496 56.8779 37.8291 56.4695 37.988C56.0688 38.1394 55.7134 38.3513 55.4034 38.6238C55.1009 38.8963 54.8439 39.2141 54.6321 39.5774C54.4277 39.9407 54.2614 40.3342 54.133 40.7581C54.0118 41.1743 53.9212 41.6095 53.8607 42.0635C53.8078 42.5102 53.7813 42.953 53.7813 43.3918C53.7813 44.0805 53.8645 44.7352 54.0308 45.3557C54.1972 45.9765 54.4542 46.5212 54.8022 46.9905C55.1576 47.4597 55.6075 47.8308 56.152 48.1033C56.704 48.3755 57.362 48.5117 58.1256 48.5117C58.6097 48.5117 59.0331 48.455 59.396 48.3415C59.7667 48.228 60.0994 48.069 60.3942 47.8647C60.6966 47.6528 60.9764 47.3993 61.2337 47.1042C61.4907 46.8015 61.7478 46.4645 62.0048 46.0938L62.2658 46.2755ZM70.0647 49V48.6707C70.1933 48.6707 70.3257 48.6633 70.4616 48.648C70.5977 48.6253 70.7226 48.5875 70.836 48.5345C70.9494 48.4815 71.0441 48.4097 71.1195 48.3188C71.1952 48.2205 71.2329 48.0918 71.2329 47.9328C71.2329 47.7815 71.1877 47.5695 71.0968 47.297C71.0061 47.0248 70.904 46.7448 70.7906 46.457C70.6772 46.1695 70.5637 45.9007 70.4503 45.651C70.3369 45.4012 70.2575 45.2235 70.2121 45.1175H65.7204C65.6902 45.178 65.6409 45.2802 65.573 45.424C65.5123 45.5602 65.4406 45.719 65.3574 45.9007C65.2743 46.0747 65.1911 46.2603 65.1079 46.457C65.0247 46.6538 64.9453 46.8467 64.8696 47.036C64.8017 47.2252 64.745 47.3993 64.6995 47.5583C64.654 47.7173 64.6315 47.842 64.6315 47.9328C64.6315 48.0843 64.6805 48.209 64.7789 48.3075C64.8773 48.3983 64.9982 48.4703 65.1419 48.5233C65.2855 48.5763 65.4331 48.614 65.5842 48.6367C65.7356 48.6517 65.8677 48.6632 65.9811 48.6707V49H62.3288V48.6707C62.601 48.6632 62.8356 48.599 63.0322 48.4778C63.2287 48.3568 63.3988 48.2015 63.5425 48.0123C63.6938 47.823 63.8222 47.615 63.9281 47.388C64.0341 47.1533 64.1362 46.9225 64.2344 46.6955L68.3292 37.1479H68.6242L72.651 46.7635C72.7644 47.0285 72.8703 47.2745 72.9685 47.5015C73.0744 47.721 73.199 47.9177 73.3429 48.0917C73.4865 48.2582 73.6604 48.3945 73.8647 48.5005C74.0688 48.599 74.3295 48.6557 74.6473 48.6707V49H70.0647ZM68.0002 39.7704L65.9811 44.493H69.974L68.0002 39.7704ZM82.8206 49L78.8959 43.5847C78.7673 43.6 78.6311 43.6075 78.4875 43.6075C78.3514 43.6075 78.2115 43.6075 78.0679 43.6075C77.9997 43.6075 77.9317 43.6075 77.8635 43.6075C77.7956 43.6 77.7274 43.5925 77.6595 43.5847V46.9565C77.6595 47.3122 77.6784 47.6037 77.7162 47.8307C77.7616 48.0502 77.8448 48.2243 77.9657 48.353C78.0866 48.474 78.257 48.5573 78.476 48.6028C78.7031 48.648 78.9978 48.6707 79.3608 48.6707V49H74.3927V48.6707C74.7632 48.6707 75.0582 48.648 75.2775 48.6028C75.4968 48.5573 75.6632 48.474 75.7766 48.353C75.89 48.2243 75.9619 48.0502 75.9921 47.8307C76.0224 47.6037 76.0373 47.3122 76.0373 46.9565V39.4412C76.0373 39.0779 76.0224 38.7865 75.9921 38.567C75.9619 38.34 75.89 38.1621 75.7766 38.0334C75.6632 37.9048 75.4968 37.8178 75.2775 37.7724C75.0582 37.7269 74.7632 37.7042 74.3927 37.7042V37.3977H78.7598C79.1 37.3977 79.4479 37.409 79.8031 37.4318C80.1663 37.4545 80.5178 37.5036 80.8582 37.5793C81.2059 37.655 81.5349 37.761 81.8449 37.8972C82.1549 38.0259 82.4272 38.2037 82.6617 38.4308C82.896 38.6503 83.0814 38.919 83.2175 39.2368C83.3536 39.5547 83.4216 39.9331 83.4216 40.3721C83.4216 40.811 83.3499 41.2008 83.206 41.5414C83.0624 41.8744 82.862 42.162 82.605 42.4042C82.3555 42.6387 82.0567 42.8355 81.7088 42.9945C81.3611 43.1457 80.9866 43.2633 80.586 43.3465L82.9565 46.6955C83.1683 46.9905 83.3726 47.2517 83.5692 47.4788C83.7658 47.7058 83.9773 47.9025 84.2044 48.069C84.4312 48.2355 84.6807 48.368 84.953 48.4665C85.2328 48.5647 85.558 48.633 85.9284 48.6707V49H82.8206ZM81.5159 40.5083C81.5159 40.1375 81.4555 39.8006 81.3346 39.4979C81.2134 39.1952 81.0396 38.9379 80.8128 38.726C80.5935 38.5065 80.3287 38.34 80.0187 38.2264C79.7162 38.1053 79.3797 38.0448 79.0093 38.0448C78.79 38.0448 78.5669 38.0599 78.3401 38.0902C78.1208 38.1205 77.8938 38.1546 77.6595 38.1924V43.0285H78.1473C78.5632 43.0285 78.9713 42.987 79.3723 42.9037C79.7729 42.8205 80.1321 42.6843 80.4498 42.495C80.7673 42.2983 81.0246 42.041 81.2212 41.723C81.4178 41.3976 81.5159 40.9927 81.5159 40.5083ZM94.3625 49H85.4471V48.6707C85.81 48.6707 86.0973 48.648 86.3091 48.6028C86.5284 48.5573 86.6948 48.474 86.8082 48.353C86.9216 48.2243 86.9973 48.0502 87.035 47.8307C87.0729 47.6037 87.0917 47.3122 87.0917 46.9565V39.3958C87.0917 39.0325 87.0767 38.7411 87.0465 38.5216C87.016 38.3021 86.9443 38.1318 86.8309 38.0107C86.7175 37.8896 86.5511 37.8102 86.3318 37.7724C86.1125 37.7269 85.8175 37.7042 85.4471 37.7042V37.3977H94.3625L94.4986 39.9293H94.1812C94.0827 39.5585 93.9883 39.252 93.8974 39.0098C93.8142 38.76 93.6971 38.5632 93.5459 38.4194C93.4021 38.2756 93.2017 38.1734 92.9447 38.1129C92.6952 38.0524 92.355 38.0221 91.9238 38.0221H88.725V42.6085H91.2774C91.6326 42.6085 91.9163 42.5858 92.1279 42.5405C92.3472 42.4875 92.5213 42.4005 92.6497 42.2792C92.7858 42.1507 92.8843 41.9804 92.9447 41.7684C93.0126 41.549 93.0693 41.2689 93.1148 40.9284H93.4323V44.9813H93.1148C93.0693 44.6405 93.0126 44.3605 92.9447 44.141C92.8843 43.9218 92.7896 43.7475 92.6612 43.619C92.5326 43.4827 92.3587 43.388 92.1394 43.335C91.9276 43.282 91.6403 43.2555 91.2774 43.2555H88.725V47.07C88.725 47.282 88.7288 47.4713 88.7365 47.6378C88.7515 47.7968 88.7895 47.9327 88.8499 48.0465C88.9104 48.1522 89.0048 48.2355 89.1334 48.2962C89.2696 48.349 89.4587 48.3755 89.7007 48.3755H91.6516C92.1581 48.3755 92.574 48.334 92.8992 48.2507C93.2245 48.1675 93.5042 48.035 93.7388 47.8535C93.9806 47.6718 94.1961 47.4373 94.3852 47.1495C94.5743 46.8542 94.7859 46.5025 95.0204 46.0938H95.3834L94.3625 49Z" fill="#0070C0"/>
</g>
<defs>
<clipPath id="clip0_403_2855">
<rect width="95.9184" height="50" fill="white" transform="translate(0 17)"/>
</clipPath>
</defs>
</svg>
