<svg width="328" height="24" viewBox="0 0 328 24" fill="none" xmlns="http://www.w3.org/2000/svg">
<rect width="24" height="24" rx="4" fill="white"/>
<path d="M37.5312 6.63281L33.7656 17H32.2266L36.5625 5.625H37.5547L37.5312 6.63281ZM40.6875 17L36.9141 6.63281L36.8906 5.625H37.8828L42.2344 17H40.6875ZM40.4922 12.7891V14.0234H34.1016V12.7891H40.4922ZM45.9187 15.6953L48.2312 8.54688H49.7078L46.6687 17H45.7L45.9187 15.6953ZM43.9891 8.54688L46.3719 15.7344L46.5359 17H45.5672L42.5047 8.54688H43.9891ZM56.1578 15.5547V11.2031C56.1578 10.8698 56.0901 10.5807 55.9547 10.3359C55.8245 10.0859 55.6266 9.89323 55.3609 9.75781C55.0953 9.6224 54.7672 9.55469 54.3766 9.55469C54.012 9.55469 53.6917 9.61719 53.4156 9.74219C53.1448 9.86719 52.9312 10.0312 52.775 10.2344C52.624 10.4375 52.5484 10.6562 52.5484 10.8906H51.1031C51.1031 10.5885 51.1812 10.2891 51.3375 9.99219C51.4937 9.69531 51.7177 9.42708 52.0094 9.1875C52.3062 8.94271 52.6604 8.75 53.0719 8.60938C53.4885 8.46354 53.9521 8.39062 54.4625 8.39062C55.0771 8.39062 55.6187 8.49479 56.0875 8.70312C56.5615 8.91146 56.9312 9.22656 57.1969 9.64844C57.4677 10.0651 57.6031 10.5885 57.6031 11.2188V15.1562C57.6031 15.4375 57.6266 15.737 57.6734 16.0547C57.7255 16.3724 57.801 16.6458 57.9 16.875V17H56.3922C56.3193 16.8333 56.262 16.612 56.2203 16.3359C56.1786 16.0547 56.1578 15.7943 56.1578 15.5547ZM56.4078 11.875L56.4234 12.8906H54.9625C54.551 12.8906 54.1839 12.9245 53.8609 12.9922C53.538 13.0547 53.2672 13.151 53.0484 13.2812C52.8297 13.4115 52.663 13.5755 52.5484 13.7734C52.4339 13.9661 52.3766 14.1927 52.3766 14.4531C52.3766 14.7188 52.4365 14.9609 52.5562 15.1797C52.676 15.3984 52.8557 15.5729 53.0953 15.7031C53.3401 15.8281 53.6396 15.8906 53.9937 15.8906C54.4365 15.8906 54.8271 15.7969 55.1656 15.6094C55.5042 15.4219 55.7724 15.1927 55.9703 14.9219C56.1734 14.651 56.2828 14.388 56.2984 14.1328L56.9156 14.8281C56.8792 15.0469 56.7802 15.2891 56.6187 15.5547C56.4573 15.8203 56.2411 16.0755 55.9703 16.3203C55.7047 16.5599 55.387 16.7604 55.0172 16.9219C54.6526 17.0781 54.2411 17.1562 53.7828 17.1562C53.2099 17.1562 52.7073 17.0443 52.275 16.8203C51.8479 16.5964 51.5146 16.2969 51.275 15.9219C51.0406 15.5417 50.9234 15.1172 50.9234 14.6484C50.9234 14.1953 51.012 13.7969 51.1891 13.4531C51.3661 13.1042 51.6214 12.8151 51.9547 12.5859C52.288 12.3516 52.6891 12.1745 53.1578 12.0547C53.6266 11.9349 54.15 11.875 54.7281 11.875H56.4078ZM61.6469 8.54688V17H60.1938V8.54688H61.6469ZM60.0844 6.30469C60.0844 6.07031 60.1547 5.8724 60.2953 5.71094C60.4411 5.54948 60.6547 5.46875 60.9359 5.46875C61.212 5.46875 61.4229 5.54948 61.5688 5.71094C61.7198 5.8724 61.7953 6.07031 61.7953 6.30469C61.7953 6.52865 61.7198 6.72135 61.5688 6.88281C61.4229 7.03906 61.212 7.11719 60.9359 7.11719C60.6547 7.11719 60.4411 7.03906 60.2953 6.88281C60.1547 6.72135 60.0844 6.52865 60.0844 6.30469ZM65.7375 5V17H64.2844V5H65.7375ZM73.2422 15.5547V11.2031C73.2422 10.8698 73.1745 10.5807 73.0391 10.3359C72.9089 10.0859 72.7109 9.89323 72.4453 9.75781C72.1797 9.6224 71.8516 9.55469 71.4609 9.55469C71.0964 9.55469 70.776 9.61719 70.5 9.74219C70.2292 9.86719 70.0156 10.0312 69.8594 10.2344C69.7083 10.4375 69.6328 10.6562 69.6328 10.8906H68.1875C68.1875 10.5885 68.2656 10.2891 68.4219 9.99219C68.5781 9.69531 68.8021 9.42708 69.0938 9.1875C69.3906 8.94271 69.7448 8.75 70.1562 8.60938C70.5729 8.46354 71.0365 8.39062 71.5469 8.39062C72.1615 8.39062 72.7031 8.49479 73.1719 8.70312C73.6458 8.91146 74.0156 9.22656 74.2812 9.64844C74.5521 10.0651 74.6875 10.5885 74.6875 11.2188V15.1562C74.6875 15.4375 74.7109 15.737 74.7578 16.0547C74.8099 16.3724 74.8854 16.6458 74.9844 16.875V17H73.4766C73.4036 16.8333 73.3464 16.612 73.3047 16.3359C73.263 16.0547 73.2422 15.7943 73.2422 15.5547ZM73.4922 11.875L73.5078 12.8906H72.0469C71.6354 12.8906 71.2682 12.9245 70.9453 12.9922C70.6224 13.0547 70.3516 13.151 70.1328 13.2812C69.9141 13.4115 69.7474 13.5755 69.6328 13.7734C69.5182 13.9661 69.4609 14.1927 69.4609 14.4531C69.4609 14.7188 69.5208 14.9609 69.6406 15.1797C69.7604 15.3984 69.9401 15.5729 70.1797 15.7031C70.4245 15.8281 70.724 15.8906 71.0781 15.8906C71.5208 15.8906 71.9115 15.7969 72.25 15.6094C72.5885 15.4219 72.8568 15.1927 73.0547 14.9219C73.2578 14.651 73.3672 14.388 73.3828 14.1328L74 14.8281C73.9635 15.0469 73.8646 15.2891 73.7031 15.5547C73.5417 15.8203 73.3255 16.0755 73.0547 16.3203C72.7891 16.5599 72.4714 16.7604 72.1016 16.9219C71.737 17.0781 71.3255 17.1562 70.8672 17.1562C70.2943 17.1562 69.7917 17.0443 69.3594 16.8203C68.9323 16.5964 68.599 16.2969 68.3594 15.9219C68.125 15.5417 68.0078 15.1172 68.0078 14.6484C68.0078 14.1953 68.0964 13.7969 68.2734 13.4531C68.4505 13.1042 68.7057 12.8151 69.0391 12.5859C69.3724 12.3516 69.7734 12.1745 70.2422 12.0547C70.7109 11.9349 71.2344 11.875 71.8125 11.875H73.4922ZM77.1531 5H78.6063V15.3594L78.4813 17H77.1531V5ZM84.3172 12.7031V12.8672C84.3172 13.4818 84.2443 14.0521 84.0984 14.5781C83.9526 15.099 83.7391 15.5521 83.4578 15.9375C83.1766 16.3229 82.8328 16.6224 82.4266 16.8359C82.0203 17.0495 81.5542 17.1562 81.0281 17.1562C80.4917 17.1562 80.0203 17.0651 79.6141 16.8828C79.213 16.6953 78.8745 16.4271 78.5984 16.0781C78.3224 15.7292 78.101 15.3073 77.9344 14.8125C77.7729 14.3177 77.6609 13.7604 77.5984 13.1406V12.4219C77.6609 11.7969 77.7729 11.237 77.9344 10.7422C78.101 10.2474 78.3224 9.82552 78.5984 9.47656C78.8745 9.1224 79.213 8.85417 79.6141 8.67188C80.0151 8.48438 80.4813 8.39062 81.0125 8.39062C81.5438 8.39062 82.0151 8.49479 82.4266 8.70312C82.838 8.90625 83.1818 9.19792 83.4578 9.57812C83.7391 9.95833 83.9526 10.4141 84.0984 10.9453C84.2443 11.4714 84.3172 12.0573 84.3172 12.7031ZM82.8641 12.8672V12.7031C82.8641 12.2812 82.825 11.8854 82.7469 11.5156C82.6688 11.1406 82.5438 10.8125 82.3719 10.5312C82.2 10.2448 81.9734 10.0208 81.6922 9.85938C81.4109 9.69271 81.0646 9.60938 80.6531 9.60938C80.2885 9.60938 79.9708 9.67188 79.7 9.79688C79.4344 9.92188 79.2078 10.0911 79.0203 10.3047C78.8328 10.513 78.6792 10.7526 78.5594 11.0234C78.4448 11.2891 78.3589 11.5651 78.3016 11.8516V13.7344C78.3849 14.099 78.5203 14.4505 78.7078 14.7891C78.9005 15.1224 79.1557 15.3958 79.4734 15.6094C79.7964 15.8229 80.1948 15.9297 80.6688 15.9297C81.0594 15.9297 81.3927 15.8516 81.6688 15.6953C81.95 15.5339 82.1766 15.3125 82.3484 15.0312C82.5255 14.75 82.6557 14.4245 82.7391 14.0547C82.8224 13.6849 82.8641 13.2891 82.8641 12.8672ZM87.9156 5V17H86.4625V5H87.9156ZM93.9437 17.1562C93.3552 17.1562 92.8214 17.0573 92.3422 16.8594C91.8682 16.6562 91.4594 16.3724 91.1156 16.0078C90.7771 15.6432 90.5167 15.2109 90.3344 14.7109C90.1521 14.2109 90.0609 13.6641 90.0609 13.0703V12.7422C90.0609 12.0547 90.1625 11.4427 90.3656 10.9062C90.5687 10.3646 90.8448 9.90625 91.1937 9.53125C91.5427 9.15625 91.9385 8.8724 92.3812 8.67969C92.824 8.48698 93.2823 8.39062 93.7562 8.39062C94.3604 8.39062 94.8812 8.49479 95.3187 8.70312C95.7615 8.91146 96.1234 9.20312 96.4047 9.57812C96.6859 9.94792 96.8943 10.3854 97.0297 10.8906C97.1651 11.3906 97.2328 11.9375 97.2328 12.5312V13.1797H90.9203V12H95.7875V11.8906C95.7667 11.5156 95.6885 11.151 95.5531 10.7969C95.4229 10.4427 95.2146 10.151 94.9281 9.92188C94.6417 9.69271 94.251 9.57812 93.7562 9.57812C93.4281 9.57812 93.126 9.64844 92.85 9.78906C92.574 9.92448 92.337 10.1276 92.1391 10.3984C91.9411 10.6693 91.7875 11 91.6781 11.3906C91.5687 11.7812 91.5141 12.2318 91.5141 12.7422V13.0703C91.5141 13.4714 91.5687 13.849 91.6781 14.2031C91.7927 14.5521 91.9568 14.8594 92.1703 15.125C92.3891 15.3906 92.6521 15.599 92.9594 15.75C93.2719 15.901 93.626 15.9766 94.0219 15.9766C94.5323 15.9766 94.9646 15.8724 95.3187 15.6641C95.6729 15.4557 95.9828 15.1771 96.2484 14.8281L97.1234 15.5234C96.9411 15.7995 96.7094 16.0625 96.4281 16.3125C96.1469 16.5625 95.8005 16.7656 95.3891 16.9219C94.9828 17.0781 94.501 17.1562 93.9437 17.1562Z" fill="black"/>
<rect x="122" width="24" height="24" rx="4" fill="#D9D9DE"/>
<path d="M159.375 11.6797H156.492L156.477 10.4688H159.094C159.526 10.4688 159.904 10.3958 160.227 10.25C160.549 10.1042 160.799 9.89583 160.977 9.625C161.159 9.34896 161.25 9.02083 161.25 8.64062C161.25 8.22396 161.169 7.88542 161.008 7.625C160.852 7.35938 160.609 7.16667 160.281 7.04688C159.958 6.92188 159.547 6.85938 159.047 6.85938H156.828V17H155.32V5.625H159.047C159.63 5.625 160.151 5.6849 160.609 5.80469C161.068 5.91927 161.456 6.10156 161.773 6.35156C162.096 6.59635 162.341 6.90885 162.508 7.28906C162.674 7.66927 162.758 8.125 162.758 8.65625C162.758 9.125 162.638 9.54948 162.398 9.92969C162.159 10.3047 161.826 10.612 161.398 10.8516C160.977 11.0911 160.482 11.2448 159.914 11.3125L159.375 11.6797ZM159.305 17H155.898L156.75 15.7734H159.305C159.784 15.7734 160.19 15.6901 160.523 15.5234C160.862 15.3568 161.12 15.1224 161.297 14.8203C161.474 14.513 161.562 14.151 161.562 13.7344C161.562 13.3125 161.487 12.9479 161.336 12.6406C161.185 12.3333 160.948 12.0964 160.625 11.9297C160.302 11.763 159.885 11.6797 159.375 11.6797H157.227L157.242 10.4688H160.18L160.5 10.9062C161.047 10.9531 161.51 11.1094 161.891 11.375C162.271 11.6354 162.56 11.9688 162.758 12.375C162.961 12.7812 163.062 13.2292 163.062 13.7188C163.062 14.4271 162.906 15.026 162.594 15.5156C162.286 16 161.852 16.3698 161.289 16.625C160.727 16.875 160.065 17 159.305 17ZM164.887 12.8672V12.6875C164.887 12.0781 164.976 11.513 165.153 10.9922C165.33 10.4661 165.585 10.0104 165.919 9.625C166.252 9.23438 166.656 8.93229 167.13 8.71875C167.604 8.5 168.135 8.39062 168.723 8.39062C169.317 8.39062 169.851 8.5 170.325 8.71875C170.804 8.93229 171.21 9.23438 171.544 9.625C171.882 10.0104 172.14 10.4661 172.317 10.9922C172.494 11.513 172.583 12.0781 172.583 12.6875V12.8672C172.583 13.4766 172.494 14.0417 172.317 14.5625C172.14 15.0833 171.882 15.5391 171.544 15.9297C171.21 16.3151 170.807 16.6172 170.333 16.8359C169.864 17.0495 169.333 17.1562 168.739 17.1562C168.145 17.1562 167.611 17.0495 167.137 16.8359C166.664 16.6172 166.257 16.3151 165.919 15.9297C165.585 15.5391 165.33 15.0833 165.153 14.5625C164.976 14.0417 164.887 13.4766 164.887 12.8672ZM166.333 12.6875V12.8672C166.333 13.2891 166.382 13.6875 166.481 14.0625C166.58 14.4323 166.729 14.7604 166.927 15.0469C167.13 15.3333 167.382 15.5599 167.684 15.7266C167.986 15.888 168.338 15.9688 168.739 15.9688C169.135 15.9688 169.481 15.888 169.778 15.7266C170.08 15.5599 170.33 15.3333 170.528 15.0469C170.726 14.7604 170.874 14.4323 170.973 14.0625C171.078 13.6875 171.13 13.2891 171.13 12.8672V12.6875C171.13 12.2708 171.078 11.8776 170.973 11.5078C170.874 11.1328 170.723 10.8021 170.52 10.5156C170.322 10.224 170.072 9.99479 169.77 9.82812C169.473 9.66146 169.124 9.57812 168.723 9.57812C168.328 9.57812 167.979 9.66146 167.677 9.82812C167.38 9.99479 167.13 10.224 166.927 10.5156C166.729 10.8021 166.58 11.1328 166.481 11.5078C166.382 11.8776 166.333 12.2708 166.333 12.6875ZM174.212 12.8672V12.6875C174.212 12.0781 174.301 11.513 174.478 10.9922C174.655 10.4661 174.91 10.0104 175.244 9.625C175.577 9.23438 175.981 8.93229 176.455 8.71875C176.929 8.5 177.46 8.39062 178.048 8.39062C178.642 8.39062 179.176 8.5 179.65 8.71875C180.129 8.93229 180.535 9.23438 180.869 9.625C181.207 10.0104 181.465 10.4661 181.642 10.9922C181.819 11.513 181.908 12.0781 181.908 12.6875V12.8672C181.908 13.4766 181.819 14.0417 181.642 14.5625C181.465 15.0833 181.207 15.5391 180.869 15.9297C180.535 16.3151 180.132 16.6172 179.658 16.8359C179.189 17.0495 178.658 17.1562 178.064 17.1562C177.47 17.1562 176.936 17.0495 176.462 16.8359C175.989 16.6172 175.582 16.3151 175.244 15.9297C174.91 15.5391 174.655 15.0833 174.478 14.5625C174.301 14.0417 174.212 13.4766 174.212 12.8672ZM175.658 12.6875V12.8672C175.658 13.2891 175.707 13.6875 175.806 14.0625C175.905 14.4323 176.054 14.7604 176.252 15.0469C176.455 15.3333 176.707 15.5599 177.009 15.7266C177.311 15.888 177.663 15.9688 178.064 15.9688C178.46 15.9688 178.806 15.888 179.103 15.7266C179.405 15.5599 179.655 15.3333 179.853 15.0469C180.051 14.7604 180.199 14.4323 180.298 14.0625C180.403 13.6875 180.455 13.2891 180.455 12.8672V12.6875C180.455 12.2708 180.403 11.8776 180.298 11.5078C180.199 11.1328 180.048 10.8021 179.845 10.5156C179.647 10.224 179.397 9.99479 179.095 9.82812C178.798 9.66146 178.449 9.57812 178.048 9.57812C177.653 9.57812 177.304 9.66146 177.002 9.82812C176.705 9.99479 176.455 10.224 176.252 10.5156C176.054 10.8021 175.905 11.1328 175.806 11.5078C175.707 11.8776 175.658 12.2708 175.658 12.6875ZM185.373 5V17H183.92V5H185.373ZM190.538 8.54688L186.85 12.4922L184.788 14.6328L184.67 13.0938L186.147 11.3281L188.772 8.54688H190.538ZM189.217 17L186.202 12.9688L186.952 11.6797L190.92 17H189.217ZM195.581 17.1562C194.993 17.1562 194.459 17.0573 193.98 16.8594C193.506 16.6562 193.097 16.3724 192.753 16.0078C192.415 15.6432 192.154 15.2109 191.972 14.7109C191.79 14.2109 191.698 13.6641 191.698 13.0703V12.7422C191.698 12.0547 191.8 11.4427 192.003 10.9062C192.206 10.3646 192.482 9.90625 192.831 9.53125C193.18 9.15625 193.576 8.8724 194.019 8.67969C194.461 8.48698 194.92 8.39062 195.394 8.39062C195.998 8.39062 196.519 8.49479 196.956 8.70312C197.399 8.91146 197.761 9.20312 198.042 9.57812C198.323 9.94792 198.532 10.3854 198.667 10.8906C198.803 11.3906 198.87 11.9375 198.87 12.5312V13.1797H192.558V12H197.425V11.8906C197.404 11.5156 197.326 11.151 197.191 10.7969C197.06 10.4427 196.852 10.151 196.566 9.92188C196.279 9.69271 195.889 9.57812 195.394 9.57812C195.066 9.57812 194.764 9.64844 194.487 9.78906C194.211 9.92448 193.974 10.1276 193.777 10.3984C193.579 10.6693 193.425 11 193.316 11.3906C193.206 11.7812 193.152 12.2318 193.152 12.7422V13.0703C193.152 13.4714 193.206 13.849 193.316 14.2031C193.43 14.5521 193.594 14.8594 193.808 15.125C194.027 15.3906 194.29 15.599 194.597 15.75C194.909 15.901 195.264 15.9766 195.659 15.9766C196.17 15.9766 196.602 15.8724 196.956 15.6641C197.31 15.4557 197.62 15.1771 197.886 14.8281L198.761 15.5234C198.579 15.7995 198.347 16.0625 198.066 16.3125C197.784 16.5625 197.438 16.7656 197.027 16.9219C196.62 17.0781 196.139 17.1562 195.581 17.1562ZM206.086 15.3594V5H207.539V17H206.211L206.086 15.3594ZM200.398 12.8672V12.7031C200.398 12.0573 200.477 11.4714 200.633 10.9453C200.794 10.4141 201.021 9.95833 201.312 9.57812C201.609 9.19792 201.961 8.90625 202.367 8.70312C202.779 8.49479 203.237 8.39062 203.742 8.39062C204.273 8.39062 204.737 8.48438 205.133 8.67188C205.534 8.85417 205.872 9.1224 206.148 9.47656C206.43 9.82552 206.651 10.2474 206.812 10.7422C206.974 11.237 207.086 11.7969 207.148 12.4219V13.1406C207.091 13.7604 206.979 14.3177 206.812 14.8125C206.651 15.3073 206.43 15.7292 206.148 16.0781C205.872 16.4271 205.534 16.6953 205.133 16.8828C204.732 17.0651 204.263 17.1562 203.727 17.1562C203.232 17.1562 202.779 17.0495 202.367 16.8359C201.961 16.6224 201.609 16.3229 201.312 15.9375C201.021 15.5521 200.794 15.099 200.633 14.5781C200.477 14.0521 200.398 13.4818 200.398 12.8672ZM201.852 12.7031V12.8672C201.852 13.2891 201.893 13.6849 201.977 14.0547C202.065 14.4245 202.201 14.75 202.383 15.0312C202.565 15.3125 202.797 15.5339 203.078 15.6953C203.359 15.8516 203.695 15.9297 204.086 15.9297C204.565 15.9297 204.958 15.8281 205.266 15.625C205.578 15.4219 205.828 15.1536 206.016 14.8203C206.203 14.487 206.349 14.125 206.453 13.7344V11.8516C206.391 11.5651 206.299 11.2891 206.18 11.0234C206.065 10.7526 205.914 10.513 205.727 10.3047C205.544 10.0911 205.318 9.92188 205.047 9.79688C204.781 9.67188 204.466 9.60938 204.102 9.60938C203.706 9.60938 203.365 9.69271 203.078 9.85938C202.797 10.0208 202.565 10.2448 202.383 10.5312C202.201 10.8125 202.065 11.1406 201.977 11.5156C201.893 11.8854 201.852 12.2812 201.852 12.7031Z" fill="black"/>
<rect x="233" width="24" height="24" rx="4" fill="#0FA968"/>
<path d="M272.383 14.125C272.383 13.8594 272.341 13.625 272.258 13.4219C272.18 13.2135 272.039 13.026 271.836 12.8594C271.638 12.6927 271.362 12.5339 271.008 12.3828C270.659 12.2318 270.216 12.0781 269.68 11.9219C269.117 11.7552 268.609 11.5703 268.156 11.3672C267.703 11.1589 267.315 10.9219 266.992 10.6562C266.669 10.3906 266.422 10.0859 266.25 9.74219C266.078 9.39844 265.992 9.00521 265.992 8.5625C265.992 8.11979 266.083 7.71094 266.266 7.33594C266.448 6.96094 266.708 6.63542 267.047 6.35938C267.391 6.07812 267.799 5.85938 268.273 5.70312C268.747 5.54688 269.276 5.46875 269.859 5.46875C270.714 5.46875 271.438 5.63281 272.031 5.96094C272.63 6.28385 273.086 6.70833 273.398 7.23438C273.711 7.75521 273.867 8.3125 273.867 8.90625H272.367C272.367 8.47917 272.276 8.10156 272.094 7.77344C271.911 7.4401 271.635 7.17969 271.266 6.99219C270.896 6.79948 270.427 6.70312 269.859 6.70312C269.323 6.70312 268.88 6.78385 268.531 6.94531C268.182 7.10677 267.922 7.32552 267.75 7.60156C267.583 7.8776 267.5 8.19271 267.5 8.54688C267.5 8.78646 267.549 9.00521 267.648 9.20312C267.753 9.39583 267.911 9.57552 268.125 9.74219C268.344 9.90885 268.62 10.0625 268.953 10.2031C269.292 10.3438 269.695 10.4792 270.164 10.6094C270.81 10.7917 271.367 10.9948 271.836 11.2188C272.305 11.4427 272.69 11.6953 272.992 11.9766C273.299 12.2526 273.526 12.5677 273.672 12.9219C273.823 13.2708 273.898 13.6667 273.898 14.1094C273.898 14.5729 273.805 14.9922 273.617 15.3672C273.43 15.7422 273.161 16.0625 272.812 16.3281C272.464 16.5938 272.044 16.7995 271.555 16.9453C271.07 17.0859 270.529 17.1562 269.93 17.1562C269.404 17.1562 268.885 17.0833 268.375 16.9375C267.87 16.7917 267.409 16.5729 266.992 16.2812C266.581 15.9896 266.25 15.6302 266 15.2031C265.755 14.7708 265.633 14.2708 265.633 13.7031H267.133C267.133 14.0938 267.208 14.4297 267.359 14.7109C267.51 14.987 267.716 15.2161 267.977 15.3984C268.242 15.5807 268.542 15.7161 268.875 15.8047C269.214 15.888 269.565 15.9297 269.93 15.9297C270.456 15.9297 270.901 15.8568 271.266 15.7109C271.63 15.5651 271.906 15.3568 272.094 15.0859C272.286 14.8151 272.383 14.4948 272.383 14.125ZM279.309 17.1562C278.721 17.1562 278.187 17.0573 277.708 16.8594C277.234 16.6562 276.825 16.3724 276.481 16.0078C276.143 15.6432 275.882 15.2109 275.7 14.7109C275.518 14.2109 275.427 13.6641 275.427 13.0703V12.7422C275.427 12.0547 275.528 11.4427 275.731 10.9062C275.934 10.3646 276.21 9.90625 276.559 9.53125C276.908 9.15625 277.304 8.8724 277.747 8.67969C278.19 8.48698 278.648 8.39062 279.122 8.39062C279.726 8.39062 280.247 8.49479 280.684 8.70312C281.127 8.91146 281.489 9.20312 281.77 9.57812C282.052 9.94792 282.26 10.3854 282.395 10.8906C282.531 11.3906 282.598 11.9375 282.598 12.5312V13.1797H276.286V12H281.153V11.8906C281.132 11.5156 281.054 11.151 280.919 10.7969C280.789 10.4427 280.58 10.151 280.294 9.92188C280.007 9.69271 279.617 9.57812 279.122 9.57812C278.794 9.57812 278.492 9.64844 278.216 9.78906C277.94 9.92448 277.703 10.1276 277.505 10.3984C277.307 10.6693 277.153 11 277.044 11.3906C276.934 11.7812 276.88 12.2318 276.88 12.7422V13.0703C276.88 13.4714 276.934 13.849 277.044 14.2031C277.158 14.5521 277.322 14.8594 277.536 15.125C277.755 15.3906 278.018 15.599 278.325 15.75C278.637 15.901 278.992 15.9766 279.387 15.9766C279.898 15.9766 280.33 15.8724 280.684 15.6641C281.039 15.4557 281.348 15.1771 281.614 14.8281L282.489 15.5234C282.307 15.7995 282.075 16.0625 281.794 16.3125C281.512 16.5625 281.166 16.7656 280.755 16.9219C280.348 17.0781 279.867 17.1562 279.309 17.1562ZM286.056 5V17H284.603V5H286.056ZM292.084 17.1562C291.496 17.1562 290.962 17.0573 290.483 16.8594C290.009 16.6562 289.6 16.3724 289.256 16.0078C288.918 15.6432 288.657 15.2109 288.475 14.7109C288.293 14.2109 288.202 13.6641 288.202 13.0703V12.7422C288.202 12.0547 288.303 11.4427 288.506 10.9062C288.709 10.3646 288.985 9.90625 289.334 9.53125C289.683 9.15625 290.079 8.8724 290.522 8.67969C290.965 8.48698 291.423 8.39062 291.897 8.39062C292.501 8.39062 293.022 8.49479 293.459 8.70312C293.902 8.91146 294.264 9.20312 294.545 9.57812C294.827 9.94792 295.035 10.3854 295.17 10.8906C295.306 11.3906 295.373 11.9375 295.373 12.5312V13.1797H289.061V12H293.928V11.8906C293.907 11.5156 293.829 11.151 293.694 10.7969C293.564 10.4427 293.355 10.151 293.069 9.92188C292.782 9.69271 292.392 9.57812 291.897 9.57812C291.569 9.57812 291.267 9.64844 290.991 9.78906C290.715 9.92448 290.478 10.1276 290.28 10.3984C290.082 10.6693 289.928 11 289.819 11.3906C289.709 11.7812 289.655 12.2318 289.655 12.7422V13.0703C289.655 13.4714 289.709 13.849 289.819 14.2031C289.933 14.5521 290.097 14.8594 290.311 15.125C290.53 15.3906 290.793 15.599 291.1 15.75C291.413 15.901 291.767 15.9766 292.163 15.9766C292.673 15.9766 293.105 15.8724 293.459 15.6641C293.814 15.4557 294.123 15.1771 294.389 14.8281L295.264 15.5234C295.082 15.7995 294.85 16.0625 294.569 16.3125C294.288 16.5625 293.941 16.7656 293.53 16.9219C293.123 17.0781 292.642 17.1562 292.084 17.1562ZM300.644 15.9688C300.987 15.9688 301.305 15.8984 301.597 15.7578C301.889 15.6172 302.128 15.4245 302.316 15.1797C302.503 14.9297 302.61 14.6458 302.636 14.3281H304.011C303.985 14.8281 303.816 15.2943 303.503 15.7266C303.196 16.1536 302.792 16.5 302.292 16.7656C301.792 17.026 301.243 17.1562 300.644 17.1562C300.008 17.1562 299.454 17.0443 298.98 16.8203C298.511 16.5964 298.12 16.2891 297.808 15.8984C297.501 15.5078 297.269 15.0599 297.112 14.5547C296.961 14.0443 296.886 13.5052 296.886 12.9375V12.6094C296.886 12.0417 296.961 11.5052 297.112 11C297.269 10.4896 297.501 10.0391 297.808 9.64844C298.12 9.25781 298.511 8.95052 298.98 8.72656C299.454 8.5026 300.008 8.39062 300.644 8.39062C301.305 8.39062 301.883 8.52604 302.378 8.79688C302.873 9.0625 303.261 9.42708 303.542 9.89062C303.829 10.349 303.985 10.8698 304.011 11.4531H302.636C302.61 11.1042 302.511 10.7891 302.339 10.5078C302.172 10.2266 301.943 10.0026 301.652 9.83594C301.365 9.66406 301.029 9.57812 300.644 9.57812C300.201 9.57812 299.829 9.66667 299.527 9.84375C299.23 10.0156 298.993 10.25 298.816 10.5469C298.644 10.8385 298.519 11.1641 298.441 11.5234C298.368 11.8776 298.331 12.2396 298.331 12.6094V12.9375C298.331 13.3073 298.368 13.6719 298.441 14.0312C298.514 14.3906 298.636 14.7161 298.808 15.0078C298.985 15.2995 299.222 15.5339 299.519 15.7109C299.821 15.8828 300.196 15.9688 300.644 15.9688ZM309.375 8.54688V9.65625H304.805V8.54688H309.375ZM306.352 6.49219H307.797V14.9062C307.797 15.1927 307.841 15.4089 307.93 15.5547C308.018 15.7005 308.133 15.7969 308.273 15.8438C308.414 15.8906 308.565 15.9141 308.727 15.9141C308.846 15.9141 308.971 15.9036 309.102 15.8828C309.237 15.8568 309.339 15.8359 309.406 15.8203L309.414 17C309.299 17.0365 309.148 17.0703 308.961 17.1016C308.779 17.138 308.557 17.1562 308.297 17.1562C307.943 17.1562 307.617 17.0859 307.32 16.9453C307.023 16.8047 306.786 16.5703 306.609 16.2422C306.438 15.9089 306.352 15.4609 306.352 14.8984V6.49219ZM314.778 17.1562C314.19 17.1562 313.656 17.0573 313.177 16.8594C312.703 16.6562 312.294 16.3724 311.95 16.0078C311.611 15.6432 311.351 15.2109 311.169 14.7109C310.986 14.2109 310.895 13.6641 310.895 13.0703V12.7422C310.895 12.0547 310.997 11.4427 311.2 10.9062C311.403 10.3646 311.679 9.90625 312.028 9.53125C312.377 9.15625 312.773 8.8724 313.216 8.67969C313.658 8.48698 314.117 8.39062 314.591 8.39062C315.195 8.39062 315.716 8.49479 316.153 8.70312C316.596 8.91146 316.958 9.20312 317.239 9.57812C317.52 9.94792 317.729 10.3854 317.864 10.8906C317.999 11.3906 318.067 11.9375 318.067 12.5312V13.1797H311.755V12H316.622V11.8906C316.601 11.5156 316.523 11.151 316.388 10.7969C316.257 10.4427 316.049 10.151 315.763 9.92188C315.476 9.69271 315.085 9.57812 314.591 9.57812C314.263 9.57812 313.96 9.64844 313.684 9.78906C313.408 9.92448 313.171 10.1276 312.973 10.3984C312.776 10.6693 312.622 11 312.513 11.3906C312.403 11.7812 312.348 12.2318 312.348 12.7422V13.0703C312.348 13.4714 312.403 13.849 312.513 14.2031C312.627 14.5521 312.791 14.8594 313.005 15.125C313.223 15.3906 313.486 15.599 313.794 15.75C314.106 15.901 314.46 15.9766 314.856 15.9766C315.367 15.9766 315.799 15.8724 316.153 15.6641C316.507 15.4557 316.817 15.1771 317.083 14.8281L317.958 15.5234C317.776 15.7995 317.544 16.0625 317.263 16.3125C316.981 16.5625 316.635 16.7656 316.223 16.9219C315.817 17.0781 315.335 17.1562 314.778 17.1562ZM325.283 15.3594V5H326.736V17H325.408L325.283 15.3594ZM319.595 12.8672V12.7031C319.595 12.0573 319.673 11.4714 319.83 10.9453C319.991 10.4141 320.218 9.95833 320.509 9.57812C320.806 9.19792 321.158 8.90625 321.564 8.70312C321.976 8.49479 322.434 8.39062 322.939 8.39062C323.47 8.39062 323.934 8.48438 324.33 8.67188C324.731 8.85417 325.069 9.1224 325.345 9.47656C325.627 9.82552 325.848 10.2474 326.009 10.7422C326.171 11.237 326.283 11.7969 326.345 12.4219V13.1406C326.288 13.7604 326.176 14.3177 326.009 14.8125C325.848 15.3073 325.627 15.7292 325.345 16.0781C325.069 16.4271 324.731 16.6953 324.33 16.8828C323.929 17.0651 323.46 17.1562 322.923 17.1562C322.429 17.1562 321.976 17.0495 321.564 16.8359C321.158 16.6224 320.806 16.3229 320.509 15.9375C320.218 15.5521 319.991 15.099 319.83 14.5781C319.673 14.0521 319.595 13.4818 319.595 12.8672ZM321.048 12.7031V12.8672C321.048 13.2891 321.09 13.6849 321.173 14.0547C321.262 14.4245 321.397 14.75 321.58 15.0312C321.762 15.3125 321.994 15.5339 322.275 15.6953C322.556 15.8516 322.892 15.9297 323.283 15.9297C323.762 15.9297 324.155 15.8281 324.463 15.625C324.775 15.4219 325.025 15.1536 325.213 14.8203C325.4 14.487 325.546 14.125 325.65 13.7344V11.8516C325.588 11.5651 325.496 11.2891 325.377 11.0234C325.262 10.7526 325.111 10.513 324.923 10.3047C324.741 10.0911 324.515 9.92188 324.244 9.79688C323.978 9.67188 323.663 9.60938 323.298 9.60938C322.903 9.60938 322.561 9.69271 322.275 9.85938C321.994 10.0208 321.762 10.2448 321.58 10.5312C321.397 10.8125 321.262 11.1406 321.173 11.5156C321.09 11.8854 321.048 12.2812 321.048 12.7031Z" fill="black"/>
</svg>
