<svg width="96" height="50" viewBox="0 0 96 50" fill="none" xmlns="http://www.w3.org/2000/svg">
<g clip-path="url(#clip0_403_2843)">
<path fill-rule="evenodd" clip-rule="evenodd" d="M24.9737 2.77802C13.1325 2.77802 3.45628 12.0554 2.80551 23.7439L0 24.4938C0.269341 10.9204 11.3473 0 24.9737 0C37.5603 0 47.9724 9.31728 49.7007 21.4365L46.997 22.1592C45.6034 11.2279 36.2746 2.77802 24.9737 2.77802ZM47.1751 25.272C47.0295 37.4195 37.1454 47.222 24.9737 47.222C12.9854 47.222 3.21614 37.7125 2.78545 25.8193L0.0423682 26.5525C0.843375 39.6365 11.6993 50 24.9737 50C38.769 50 49.9525 38.807 49.9525 25C49.9525 24.8433 49.951 24.6868 49.9482 24.5308L47.1751 25.272Z" fill="#0070C0"/>
<path fill-rule="evenodd" clip-rule="evenodd" d="M22.2733 8.70347C23.037 8.39652 23.5763 7.64842 23.5763 6.77422C23.5763 5.62647 22.6467 4.69604 21.4999 4.69604C20.3532 4.69604 19.4235 5.62647 19.4235 6.77422C19.4235 7.41147 19.7101 7.98174 20.1613 8.36297L19.8589 9.70952L16.695 9.22722L13.8494 5.25515L12.1143 6.50032L14.9113 10.4047L14.7987 11.088L15.4816 11.2008L15.4841 11.2042L15.7192 11.24L16.8779 11.4314L16.8803 11.417L24.0802 12.5146L26.7525 16.1231L24.084 18.5001H27.2955L28.8904 17.0793L31.3856 14.8672L38.8944 16.0364L38.4798 18.5001H40.6452L41.0041 16.3649L45.6077 17.0818L46.3878 17.2174L45.9359 14.9703L31.771 12.7646L31.7717 12.7597L29.6925 12.4163L29.4807 13.7012L28.3554 14.6989L25.2715 10.5346L21.9749 10.032L22.2733 8.70347ZM35.9954 33.7501H31.1365L38.1805 43.3131L39.8991 42.0451L34.5833 34.8286L35.9954 33.7501ZM28.3024 33.7501H17.8166L26.7283 35.2081L29.8729 39.3261L25.847 41.4646C25.5455 41.2936 25.1968 41.1961 24.8254 41.1961C23.6786 41.1961 22.749 42.1266 22.749 43.2743C22.749 44.4221 23.6786 45.3523 24.8254 45.3523C25.9557 45.3523 26.8749 44.4486 26.9011 43.3238L31.187 41.0473L34.5938 45.5093L36.2904 44.2118L28.3024 33.7501ZM16.7272 33.7501H14.549L13.2443 40.2833L18.3489 41.1076L17.4897 46.2676L19.5958 46.6188L20.8077 39.3398L15.7726 38.5271L16.7272 33.7501ZM7.3775 33.7501H11.5274C11.4862 34.8616 10.573 35.7498 9.45243 35.7498C8.33191 35.7498 7.41869 34.8616 7.3775 33.7501ZM5.19963 18.5001H7.78733L5.14073 14.6316L3.37903 15.8389L5.19963 18.5001ZM13.5739 18.5001H15.7518L15.9208 17.6595L13.4641 14.2788L13.398 14.3269C13.5281 14.0553 13.601 13.751 13.601 13.4297C13.601 12.2819 12.6714 11.3515 11.5246 11.3515C10.3778 11.3515 9.44821 12.2819 9.44821 13.4297C9.44821 14.5774 10.3778 15.5078 11.5246 15.5078C11.6182 15.5078 11.7104 15.5016 11.8008 15.4896L11.7374 15.5357L13.6427 18.1577L13.5739 18.5001ZM17.5946 18.5001H19.7744L19.9165 17.7893L19.9638 17.5499C20.7385 17.2482 21.2876 16.4945 21.2876 15.6125C21.2876 14.4647 20.3579 13.5343 19.2112 13.5343C18.0644 13.5343 17.1347 14.4647 17.1347 15.6125C17.1347 16.2422 17.4146 16.8065 17.8567 17.1876L17.5946 18.5001ZM33.8065 18.5001C33.4368 18.1606 32.944 17.9534 32.403 17.9534C31.8617 17.9534 31.3688 18.1606 30.9994 18.5001H33.8065ZM28.0964 9.99767C28.7266 9.99767 29.2914 9.71667 29.672 9.273L37.9894 10.4495L38.4136 5.56095L36.2864 5.37607L36.0571 8.01804L30.032 7.16575C29.7305 6.39062 28.9776 5.84135 28.0964 5.84135C26.9496 5.84135 26.0201 6.77177 26.0201 7.9195C26.0201 9.06725 26.9496 9.99767 28.0964 9.99767ZM48.2122 23.2915C49.5896 23.2915 50.7061 22.1741 50.7061 20.7956C50.7061 19.4171 49.5896 18.2996 48.2122 18.2996C46.8349 18.2996 45.7186 19.4171 45.7186 20.7956C45.7186 22.1741 46.8349 23.2915 48.2122 23.2915Z" fill="#0070C0"/>
<path d="M12.139 28.9938C12.139 29.5063 12.0358 29.9653 11.8294 30.3705C11.6231 30.776 11.3479 31.1203 11.004 31.4033C10.6677 31.6863 10.2779 31.9045 9.83457 32.0573C9.39127 32.2103 8.93266 32.2868 8.45879 32.2868C8.14543 32.2868 7.83204 32.2485 7.51866 32.172C7.2053 32.1033 6.90721 32.0268 6.62442 31.9428C6.34926 31.8585 6.09702 31.782 5.86774 31.7133C5.63844 31.6368 5.45117 31.5985 5.30594 31.5985C5.21425 31.5985 5.13399 31.6213 5.0652 31.6673C5.00405 31.7055 4.95055 31.759 4.90469 31.828C4.86647 31.8968 4.83589 31.9695 4.81296 32.046C4.79768 32.13 4.78239 32.2103 4.7671 32.2868H4.45757V28.2363H4.7671C4.82825 28.7335 4.94673 29.1888 5.12253 29.6018C5.2983 30.015 5.53143 30.3705 5.82188 30.669C6.11231 30.9598 6.46009 31.1893 6.86517 31.3575C7.27792 31.518 7.74414 31.5985 8.26388 31.5985C8.54669 31.5985 8.82567 31.5603 9.10081 31.4838C9.38362 31.3995 9.63201 31.277 9.84603 31.1165C10.0677 30.9558 10.2473 30.757 10.3849 30.5198C10.5225 30.275 10.5912 29.992 10.5912 29.6708C10.5912 29.334 10.4995 29.032 10.3161 28.7643C10.1403 28.4888 9.90718 28.2363 9.61675 28.0068C9.3263 27.7698 8.99381 27.5478 8.6193 27.3413C8.24477 27.127 7.86262 26.913 7.4728 26.6988C7.09065 26.4845 6.7123 26.2588 6.33779 26.0218C5.96326 25.7845 5.63079 25.5245 5.34034 25.2415C5.04991 24.9508 4.81296 24.6333 4.62952 24.2891C4.45374 23.9372 4.36584 23.5394 4.36584 23.0957C4.36584 22.6138 4.45757 22.1816 4.64099 21.7991C4.83207 21.4166 5.08431 21.0953 5.39767 20.8352C5.71105 20.5675 6.07027 20.3648 6.47537 20.2271C6.8881 20.0894 7.31996 20.0205 7.7709 20.0205C8.03842 20.0205 8.30209 20.0549 8.56197 20.1238C8.8295 20.1926 9.08171 20.2691 9.31865 20.3533C9.56325 20.4298 9.78488 20.5025 9.98361 20.5713C10.1823 20.6401 10.3467 20.6746 10.4766 20.6746C10.5683 20.6746 10.6448 20.6516 10.7059 20.6057C10.767 20.5598 10.8206 20.5063 10.8664 20.4451C10.9123 20.3762 10.9467 20.3036 10.9696 20.2271C11.0002 20.1506 11.0231 20.0817 11.0384 20.0205H11.3709V24.0596H11.0384C11.0002 23.6006 10.9008 23.1684 10.7403 22.763C10.5798 22.3499 10.3619 21.9942 10.0868 21.6958C9.81928 21.3898 9.49445 21.1489 9.11228 20.9729C8.73013 20.7893 8.29063 20.6975 7.79383 20.6975C7.53395 20.6975 7.28174 20.7396 7.03715 20.8237C6.79255 20.9079 6.57092 21.0303 6.37219 21.1909C6.1811 21.3439 6.02441 21.5313 5.90214 21.7532C5.78748 21.9674 5.73016 22.2122 5.73016 22.4876C5.73016 22.8089 5.82188 23.0995 6.0053 23.3596C6.18874 23.6197 6.42951 23.8607 6.72758 24.0825C7.03332 24.3044 7.37728 24.5186 7.75943 24.7251C8.14161 24.924 8.5314 25.1305 8.92884 25.3448C9.33394 25.5513 9.72756 25.773 10.1097 26.0103C10.4919 26.2475 10.832 26.5113 11.1301 26.802C11.4358 27.0928 11.6804 27.4178 11.8638 27.7773C12.0473 28.1293 12.139 28.5348 12.139 28.9938Z" fill="#0070C0"/>
<path d="M24.2353 26.079C24.2353 26.913 24.0978 27.7048 23.8226 28.4543C23.5474 29.204 23.1576 29.8658 22.6532 30.4395C22.1564 31.0055 21.5526 31.4568 20.8417 31.7935C20.1386 32.1225 19.3513 32.2868 18.48 32.2868C17.6086 32.2868 16.8176 32.1225 16.1067 31.7935C15.4036 31.4645 14.7998 31.0208 14.2953 30.4625C13.7985 29.8963 13.4163 29.2385 13.1488 28.4888C12.8813 27.739 12.7476 26.9435 12.7476 26.102C12.7476 25.253 12.889 24.4612 13.1717 23.7268C13.4622 22.9848 13.8673 22.3422 14.387 21.7991C14.9068 21.2483 15.5259 20.8161 16.2443 20.5025C16.9628 20.1812 17.7539 20.0205 18.6176 20.0205C19.466 20.0205 20.2341 20.185 20.922 20.5139C21.6099 20.8352 22.1984 21.2751 22.6876 21.8335C23.1844 22.3843 23.5665 23.0269 23.8341 23.7612C24.1016 24.4956 24.2353 25.2683 24.2353 26.079ZM22.2634 26.1938C22.2634 25.7655 22.2405 25.3295 22.1946 24.8858C22.1564 24.4421 22.0838 24.0137 21.9768 23.6006C21.8698 23.1875 21.7245 22.8012 21.5411 22.4417C21.3577 22.0821 21.1246 21.7685 20.8417 21.5007C20.5589 21.233 20.2188 21.0226 19.8214 20.8696C19.4316 20.709 18.9691 20.6287 18.4341 20.6287C17.945 20.6287 17.5131 20.709 17.1386 20.8696C16.7717 21.0226 16.4507 21.233 16.1755 21.5007C15.9004 21.7685 15.6711 22.0821 15.4877 22.4417C15.3042 22.8012 15.1552 23.1837 15.0405 23.5891C14.9335 23.9869 14.8571 24.4 14.8112 24.8284C14.7654 25.249 14.7424 25.6583 14.7424 26.0563C14.7424 26.4463 14.7654 26.8555 14.8112 27.284C14.8571 27.7123 14.9373 28.133 15.052 28.5463C15.1666 28.9593 15.3157 29.3533 15.4991 29.728C15.6826 30.1028 15.9119 30.4318 16.187 30.7148C16.4622 30.998 16.787 31.2235 17.1615 31.3918C17.536 31.5603 17.9679 31.6443 18.457 31.6443C18.9691 31.6443 19.4163 31.5678 19.7984 31.4148C20.1883 31.2618 20.5245 31.0553 20.8073 30.7953C21.0902 30.5275 21.3233 30.2175 21.5067 29.8658C21.6978 29.5063 21.8468 29.1275 21.9538 28.7298C22.0685 28.3243 22.1487 27.9075 22.1946 27.479C22.2405 27.043 22.2634 26.6145 22.2634 26.1938Z" fill="#0070C0"/>
<path d="M36.5839 20.5828C36.2322 20.5828 35.9457 20.6134 35.7241 20.6745C35.5023 20.7357 35.3304 20.839 35.208 20.9844C35.0859 21.1297 35.0017 21.321 34.9558 21.5581C34.91 21.7876 34.8871 22.0706 34.8871 22.4072V27.1808C34.8871 27.984 34.8106 28.703 34.6578 29.338C34.5126 29.9653 34.2641 30.4968 33.9126 30.9328C33.5687 31.369 33.1061 31.7055 32.5253 31.9428C31.9443 32.172 31.2222 32.2868 30.3584 32.2868C29.403 32.2868 28.6234 32.1683 28.0197 31.9313C27.4234 31.694 26.9573 31.3498 26.6209 30.8985C26.2846 30.4395 26.0553 29.881 25.9329 29.2233C25.8183 28.5575 25.7611 27.8003 25.7611 26.9513V22.3384C25.7611 22.0171 25.7458 21.7455 25.7151 21.5237C25.6846 21.3019 25.6157 21.1221 25.5088 20.9844C25.4094 20.839 25.2565 20.7357 25.0502 20.6745C24.8515 20.6134 24.5802 20.5828 24.2362 20.5828V20.2729H28.9484V20.5828C28.6119 20.5828 28.3444 20.6134 28.1458 20.6745C27.947 20.7357 27.7941 20.839 27.6872 20.9844C27.58 21.1221 27.5076 21.3019 27.4694 21.5237C27.4387 21.7455 27.4234 22.0171 27.4234 22.3384V27.4675C27.4234 28.0108 27.4579 28.5308 27.5266 29.028C27.603 29.5178 27.7484 29.9498 27.9622 30.3248C28.184 30.692 28.4935 30.9865 28.8909 31.2083C29.2961 31.4225 29.8234 31.5295 30.4731 31.5295C31.0004 31.5295 31.5049 31.4455 31.9865 31.277C32.4679 31.1088 32.9038 30.841 33.2934 30.474C33.4845 30.298 33.6336 30.0685 33.7405 29.7855C33.8474 29.4948 33.9279 29.1925 33.9813 28.879C34.0348 28.5575 34.0655 28.2403 34.073 27.9265C34.0882 27.6053 34.096 27.326 34.096 27.0888V22.3384C34.096 21.9712 34.0768 21.6767 34.0385 21.4548C34.0081 21.2253 33.9316 21.0456 33.8095 20.9155C33.6948 20.7855 33.5265 20.6975 33.3049 20.6516C33.0833 20.6057 32.7891 20.5828 32.4222 20.5828V20.2729H36.5839V20.5828Z" fill="#0070C0"/>
<path d="M45.2407 32H36.1377V31.6672C36.4127 31.6672 36.6573 31.652 36.8713 31.6212C37.0854 31.583 37.2612 31.5142 37.3986 31.4147C37.544 31.3077 37.6547 31.1585 37.7311 30.9672C37.8075 30.776 37.8457 30.5235 37.8457 30.21V22.063C37.8457 21.757 37.8075 21.5084 37.7311 21.3171C37.6547 21.1259 37.544 20.9805 37.3986 20.8811C37.2612 20.774 37.0854 20.7013 36.8713 20.6631C36.6573 20.6248 36.4127 20.6057 36.1377 20.6057V20.2729H41.2279V20.6057C40.9451 20.6057 40.6968 20.6248 40.4827 20.6631C40.2687 20.7013 40.0891 20.774 39.944 20.8811C39.7986 20.9805 39.6879 21.1259 39.6115 21.3171C39.5351 21.5084 39.4968 21.757 39.4968 22.063V29.7855C39.4968 30.076 39.5198 30.317 39.5655 30.5082C39.6115 30.692 39.6879 30.841 39.7948 30.9557C39.9095 31.063 40.0624 31.1395 40.2534 31.1852C40.4445 31.2235 40.6853 31.2427 40.9758 31.2427H42.1451C42.7109 31.2427 43.1847 31.212 43.5669 31.151C43.949 31.082 44.2775 30.9598 44.5528 30.7837C44.8355 30.6 45.0841 30.3478 45.2979 30.0262C45.512 29.6975 45.7298 29.2727 45.9516 28.7527L46.2496 28.7985L45.2407 32Z" fill="#0070C0"/>
<path d="M62.2658 29.2755C61.744 30.2137 61.0861 30.9517 60.2922 31.4893C59.5057 32.019 58.568 32.2837 57.4791 32.2837C56.6171 32.2837 55.838 32.1325 55.1424 31.8298C54.4467 31.527 53.8532 31.1107 53.3616 30.581C52.8701 30.0512 52.4919 29.4268 52.2274 28.7078C51.9626 27.9888 51.8304 27.2092 51.8304 26.3692C51.8304 25.5062 51.9703 24.7003 52.2501 23.951C52.5373 23.1942 52.9383 22.5358 53.4523 21.9757C53.9741 21.4081 54.5941 20.9616 55.3125 20.6361C56.0386 20.3107 56.8439 20.1479 57.7287 20.1479C58.0237 20.1479 58.2957 20.1707 58.5452 20.2161C58.8025 20.2539 59.0483 20.3069 59.2826 20.375C59.5246 20.4431 59.7627 20.5264 59.9972 20.6248C60.2315 20.7156 60.4773 20.8177 60.7346 20.9313C60.848 20.9313 60.9462 20.9048 61.0294 20.8518C61.1125 20.7988 61.1807 20.7345 61.2337 20.6588C61.2864 20.5831 61.3281 20.4999 61.3583 20.409C61.3961 20.3107 61.4265 20.2236 61.449 20.1479H61.7552L62.0048 24.0759H61.7552C61.6116 23.5916 61.4265 23.1488 61.1995 22.7477C60.9802 22.339 60.7119 21.9871 60.3942 21.6919C60.0842 21.3967 59.7212 21.1659 59.3053 20.9994C58.8894 20.8329 58.4131 20.7496 57.876 20.7496C57.3468 20.7496 56.8779 20.8291 56.4695 20.988C56.0688 21.1394 55.7134 21.3513 55.4034 21.6238C55.1009 21.8963 54.8439 22.2141 54.6321 22.5774C54.4277 22.9407 54.2614 23.3342 54.133 23.7581C54.0118 24.1743 53.9212 24.6095 53.8607 25.0635C53.8078 25.5102 53.7813 25.953 53.7813 26.3918C53.7813 27.0805 53.8645 27.7352 54.0308 28.3557C54.1972 28.9765 54.4542 29.5212 54.8022 29.9905C55.1576 30.4597 55.6075 30.8308 56.152 31.1033C56.704 31.3755 57.362 31.5117 58.1256 31.5117C58.6097 31.5117 59.0331 31.455 59.396 31.3415C59.7667 31.228 60.0994 31.069 60.3942 30.8647C60.6966 30.6528 60.9764 30.3993 61.2337 30.1042C61.4907 29.8015 61.7478 29.4645 62.0048 29.0938L62.2658 29.2755ZM70.0647 32V31.6707C70.1933 31.6707 70.3257 31.6633 70.4616 31.648C70.5977 31.6253 70.7226 31.5875 70.836 31.5345C70.9494 31.4815 71.0441 31.4097 71.1195 31.3188C71.1952 31.2205 71.2329 31.0918 71.2329 30.9328C71.2329 30.7815 71.1877 30.5695 71.0968 30.297C71.0061 30.0248 70.904 29.7448 70.7906 29.457C70.6772 29.1695 70.5637 28.9007 70.4503 28.651C70.3369 28.4012 70.2575 28.2235 70.2121 28.1175H65.7204C65.6902 28.178 65.6409 28.2802 65.573 28.424C65.5123 28.5602 65.4406 28.719 65.3574 28.9007C65.2743 29.0747 65.1911 29.2603 65.1079 29.457C65.0247 29.6538 64.9453 29.8467 64.8696 30.036C64.8017 30.2252 64.745 30.3993 64.6995 30.5583C64.654 30.7173 64.6315 30.842 64.6315 30.9328C64.6315 31.0843 64.6805 31.209 64.7789 31.3075C64.8773 31.3983 64.9982 31.4703 65.1419 31.5233C65.2855 31.5763 65.4331 31.614 65.5842 31.6367C65.7356 31.6517 65.8677 31.6632 65.9811 31.6707V32H62.3288V31.6707C62.601 31.6632 62.8356 31.599 63.0322 31.4778C63.2287 31.3568 63.3988 31.2015 63.5425 31.0123C63.6938 30.823 63.8222 30.615 63.9281 30.388C64.0341 30.1533 64.1362 29.9225 64.2344 29.6955L68.3292 20.1479H68.6242L72.651 29.7635C72.7644 30.0285 72.8703 30.2745 72.9685 30.5015C73.0744 30.721 73.199 30.9177 73.3429 31.0917C73.4865 31.2582 73.6604 31.3945 73.8647 31.5005C74.0688 31.599 74.3295 31.6557 74.6473 31.6707V32H70.0647ZM68.0002 22.7704L65.9811 27.493H69.974L68.0002 22.7704ZM82.8206 32L78.8959 26.5847C78.7673 26.6 78.6311 26.6075 78.4875 26.6075C78.3514 26.6075 78.2115 26.6075 78.0679 26.6075C77.9997 26.6075 77.9317 26.6075 77.8635 26.6075C77.7956 26.6 77.7274 26.5925 77.6595 26.5847V29.9565C77.6595 30.3122 77.6784 30.6037 77.7162 30.8307C77.7616 31.0502 77.8448 31.2243 77.9657 31.353C78.0866 31.474 78.257 31.5573 78.476 31.6028C78.7031 31.648 78.9978 31.6707 79.3608 31.6707V32H74.3927V31.6707C74.7632 31.6707 75.0582 31.648 75.2775 31.6028C75.4968 31.5573 75.6632 31.474 75.7766 31.353C75.89 31.2243 75.9619 31.0502 75.9921 30.8307C76.0224 30.6037 76.0373 30.3122 76.0373 29.9565V22.4412C76.0373 22.0779 76.0224 21.7865 75.9921 21.567C75.9619 21.34 75.89 21.1621 75.7766 21.0334C75.6632 20.9048 75.4968 20.8178 75.2775 20.7724C75.0582 20.7269 74.7632 20.7042 74.3927 20.7042V20.3977H78.7598C79.1 20.3977 79.4479 20.409 79.8031 20.4318C80.1663 20.4545 80.5178 20.5036 80.8582 20.5793C81.2059 20.655 81.5349 20.761 81.8449 20.8972C82.1549 21.0259 82.4272 21.2037 82.6617 21.4308C82.896 21.6503 83.0814 21.919 83.2175 22.2368C83.3536 22.5547 83.4216 22.9331 83.4216 23.3721C83.4216 23.811 83.3499 24.2008 83.206 24.5414C83.0624 24.8744 82.862 25.162 82.605 25.4042C82.3555 25.6387 82.0567 25.8355 81.7088 25.9945C81.3611 26.1457 80.9866 26.2633 80.586 26.3465L82.9565 29.6955C83.1683 29.9905 83.3726 30.2517 83.5692 30.4788C83.7658 30.7058 83.9773 30.9025 84.2044 31.069C84.4312 31.2355 84.6807 31.368 84.953 31.4665C85.2328 31.5647 85.558 31.633 85.9284 31.6707V32H82.8206ZM81.5159 23.5083C81.5159 23.1375 81.4555 22.8006 81.3346 22.4979C81.2134 22.1952 81.0396 21.9379 80.8128 21.726C80.5935 21.5065 80.3287 21.34 80.0187 21.2264C79.7162 21.1053 79.3797 21.0448 79.0093 21.0448C78.79 21.0448 78.5669 21.0599 78.3401 21.0902C78.1208 21.1205 77.8938 21.1546 77.6595 21.1924V26.0285H78.1473C78.5632 26.0285 78.9713 25.987 79.3723 25.9037C79.7729 25.8205 80.1321 25.6843 80.4498 25.495C80.7673 25.2983 81.0246 25.041 81.2212 24.723C81.4178 24.3976 81.5159 23.9927 81.5159 23.5083ZM94.3625 32H85.4471V31.6707C85.81 31.6707 86.0973 31.648 86.3091 31.6028C86.5284 31.5573 86.6948 31.474 86.8082 31.353C86.9216 31.2243 86.9973 31.0502 87.035 30.8307C87.0729 30.6037 87.0917 30.3122 87.0917 29.9565V22.3958C87.0917 22.0325 87.0767 21.7411 87.0465 21.5216C87.016 21.3021 86.9443 21.1318 86.8309 21.0107C86.7175 20.8896 86.5511 20.8102 86.3318 20.7724C86.1125 20.7269 85.8175 20.7042 85.4471 20.7042V20.3977H94.3625L94.4986 22.9293H94.1812C94.0827 22.5585 93.9883 22.252 93.8974 22.0098C93.8142 21.76 93.6971 21.5632 93.5459 21.4194C93.4021 21.2756 93.2017 21.1734 92.9447 21.1129C92.6952 21.0524 92.355 21.0221 91.9238 21.0221H88.725V25.6085H91.2774C91.6326 25.6085 91.9163 25.5858 92.1279 25.5405C92.3472 25.4875 92.5213 25.4005 92.6497 25.2792C92.7858 25.1507 92.8843 24.9804 92.9447 24.7684C93.0126 24.549 93.0693 24.2689 93.1148 23.9284H93.4323V27.9813H93.1148C93.0693 27.6405 93.0126 27.3605 92.9447 27.141C92.8843 26.9218 92.7896 26.7475 92.6612 26.619C92.5326 26.4827 92.3587 26.388 92.1394 26.335C91.9276 26.282 91.6403 26.2555 91.2774 26.2555H88.725V30.07C88.725 30.282 88.7288 30.4713 88.7365 30.6378C88.7515 30.7968 88.7895 30.9327 88.8499 31.0465C88.9104 31.1522 89.0048 31.2355 89.1334 31.2962C89.2696 31.349 89.4587 31.3755 89.7007 31.3755H91.6516C92.1581 31.3755 92.574 31.334 92.8992 31.2507C93.2245 31.1675 93.5042 31.035 93.7388 30.8535C93.9806 30.6718 94.1961 30.4373 94.3852 30.1495C94.5743 29.8542 94.7859 29.5025 95.0204 29.0938H95.3834L94.3625 32Z" fill="#0070C0"/>
</g>
<defs>
<clipPath id="clip0_403_2843">
<rect width="95.9184" height="50" fill="white"/>
</clipPath>
</defs>
</svg>
