<?xml version="1.0" standalone="no"?>
<!DOCTYPE svg PUBLIC "-//W3C//DTD SVG 20010904//EN"
 "http://www.w3.org/TR/2001/REC-SVG-20010904/DTD/svg10.dtd">
<svg version="1.0" xmlns="http://www.w3.org/2000/svg"
width="111" height="110" viewBox="0 0 3301.000000 2551.000000"
 preserveAspectRatio="xMidYMid meet">

<g transform="translate(0.000000,2551.000000) scale(0.100000,-0.100000)"
fill="#000000" stroke="none">
<path d="M0 12755 l0 -12755 16505 0 16505 0 0 12755 0 12755 -16505 0 -16505
0 0 -12755z m23447 6870 c156 -21 269 -46 400 -90 374 -125 691 -371 914 -710
60 -91 196 -351 188 -360 -3 -2 -40 7 -83 21 -175 55 -472 94 -721 94 -528 0
-996 -96 -1371 -280 -261 -128 -428 -254 -774 -580 -248 -234 -345 -312 -459
-369 -113 -57 -202 -82 -317 -88 -162 -9 -249 16 -599 170 -232 102 -346 144
-503 183 -187 47 -330 64 -550 64 -289 0 -511 -34 -761 -116 -664 -218 -1104
-715 -1161 -1310 -6 -61 -7 6 -5 216 2 223 7 332 19 405 118 723 527 1239
1169 1479 227 85 476 126 765 126 304 0 478 -26 852 -130 118 -33 246 -65 284
-71 188 -32 348 26 525 189 44 39 162 167 262 284 234 270 282 322 404 430
241 215 512 356 802 418 54 11 127 25 163 29 114 15 430 12 557 -4z m-14769
-6875 c12 -12 22 -32 22 -46 0 -13 -30 -74 -67 -136 -45 -75 -67 -122 -67
-143 0 -41 67 -181 146 -303 173 -267 419 -522 722 -747 445 -330 909 -515
1491 -592 185 -24 607 -24 805 0 488 61 890 180 1215 360 478 266 890 655
1108 1047 43 77 87 191 87 224 0 29 -41 123 -86 197 -43 72 -44 103 -3 124 54
28 78 17 139 -63 82 -109 118 -128 367 -201 81 -24 110 -52 99 -95 -13 -53
-27 -57 -165 -50 -78 4 -136 2 -152 -4 -20 -8 -47 -52 -128 -214 -231 -461
-461 -789 -766 -1093 -559 -558 -1330 -925 -2000 -952 -584 -24 -1321 255
-1902 719 -70 56 -200 174 -288 262 -305 306 -527 616 -769 1078 -68 129 -94
169 -115 177 -44 19 -127 28 -205 23 -68 -4 -74 -3 -90 19 -28 41 -17 97 24
119 10 6 61 19 113 29 52 10 113 29 137 41 42 21 149 121 217 203 36 43 76 49
111 17z m1701 -685 l701 -290 0 -432 0 -433 -29 0 c-54 0 -264 30 -389 56
-337 69 -668 200 -934 370 l-78 49 0 488 c0 411 2 488 14 485 7 -2 329 -133
715 -293z m2688 -67 c-4 -199 -7 -422 -7 -497 l0 -136 -88 -52 c-332 -196
-711 -322 -1137 -377 -66 -9 -137 -18 -158 -21 l-37 -5 2 432 3 432 705 293
c388 161 709 293 714 293 6 0 7 -146 3 -362z m6960 -224 c69 -43 106 -108 111
-194 10 -166 -89 -270 -256 -270 -84 0 -132 17 -180 63 -57 54 -77 102 -77
187 0 112 45 183 145 230 37 17 60 20 127 17 70 -3 89 -8 130 -33z m4253 -89
c21 -12 44 -39 58 -65 l22 -44 -2 -1121 -3 -1120 -55 -12 c-80 -16 -208 -15
-267 2 -59 17 -97 56 -113 113 -6 24 -10 413 -10 1144 l0 1107 43 10 c23 5 98
9 167 8 105 -2 131 -5 160 -22z m-3331 -188 c82 -40 85 -50 91 -280 l5 -202
270 -5 269 -5 18 -45 c21 -56 23 -178 4 -225 -28 -66 -42 -69 -316 -75 l-245
-5 -3 -395 c-3 -425 2 -479 45 -531 51 -61 94 -74 233 -73 102 0 136 4 182 22
l58 21 27 -46 c50 -85 42 -190 -20 -259 -66 -76 -174 -108 -362 -107 -156 1
-253 19 -351 68 -92 45 -153 100 -192 173 -63 118 -62 97 -62 1079 l0 892 53
10 c125 25 229 20 296 -12z m-6097 -421 c326 -70 557 -307 635 -649 20 -91 23
-365 5 -452 -101 -467 -439 -719 -932 -691 -251 14 -423 86 -580 245 -73 73
-94 102 -138 191 -79 161 -97 245 -97 470 0 158 4 198 23 273 104 415 435 649
892 632 69 -3 155 -11 192 -19z m1985 -5 c142 -35 253 -103 287 -175 34 -73
12 -191 -47 -245 l-26 -24 -58 25 c-254 112 -524 129 -656 42 -73 -48 -87
-146 -30 -206 40 -43 88 -62 259 -103 255 -61 367 -104 471 -182 140 -105 203
-272 175 -465 -43 -298 -299 -458 -732 -458 -254 0 -469 56 -582 149 -102 86
-105 250 -6 343 l30 28 71 -40 c174 -94 341 -137 502 -127 137 9 200 35 249
100 29 40 29 134 0 174 -45 60 -92 82 -269 124 -303 72 -434 127 -528 221
-152 152 -163 442 -23 619 84 107 250 193 421 219 105 16 398 5 492 -19z
m1658 19 c395 -45 649 -254 737 -608 30 -117 33 -424 6 -545 -77 -342 -293
-562 -623 -632 -126 -27 -325 -23 -445 8 -52 14 -102 27 -110 28 -13 4 -15
-39 -18 -328 l-2 -331 -68 -12 c-38 -7 -111 -11 -163 -8 -107 4 -162 27 -195
81 -18 31 -19 68 -22 1027 -3 1089 -5 1039 55 1110 51 61 209 138 368 179 146
38 317 49 480 31z m4315 0 c337 -39 552 -198 605 -447 21 -97 22 -1048 1
-1096 -19 -47 -108 -122 -192 -163 -207 -99 -581 -132 -854 -75 -122 26 -256
90 -332 160 -191 174 -195 556 -9 723 125 113 244 148 640 189 163 16 302 32
309 34 17 6 15 103 -3 156 -19 51 -65 103 -117 130 -150 77 -434 61 -692 -39
l-78 -31 -25 27 c-78 84 -83 221 -10 293 105 106 468 172 757 139z m2989 -19
c112 -28 202 -74 251 -127 46 -51 54 -74 48 -157 -3 -50 -10 -71 -36 -110 -18
-26 -39 -47 -46 -47 -7 0 -43 13 -79 30 -126 57 -247 83 -392 84 -157 1 -215
-15 -268 -73 -58 -65 -58 -138 1 -194 37 -35 74 -48 307 -107 322 -81 468
-166 543 -316 50 -100 65 -229 42 -355 -24 -130 -121 -256 -249 -323 -288
-151 -882 -118 -1065 60 -97 94 -102 227 -12 321 l42 45 59 -36 c132 -77 280
-123 430 -132 205 -13 340 48 352 160 7 60 -1 89 -40 132 -44 51 -83 66 -301
119 -203 49 -306 85 -390 139 -153 98 -213 221 -204 423 4 93 8 109 41 175 80
163 243 268 477 308 97 16 393 5 489 -19z m-5772 -40 c83 -47 78 8 78 -896 l0
-799 -65 -14 c-40 -8 -102 -12 -160 -9 -121 5 -172 28 -201 90 -18 40 -19 77
-19 838 l0 796 53 11 c28 6 102 10 162 9 96 -2 116 -6 152 -26z m-10297 -552
c363 -243 818 -432 1228 -510 l122 -24 0 -321 0 -321 -697 -291 c-384 -160
-706 -294 -715 -298 -17 -6 -18 41 -18 906 0 726 3 910 13 904 6 -4 37 -24 67
-45z m3323 -868 c-6 -817 -8 -901 -22 -896 -9 3 -325 137 -703 298 l-688 292
0 317 0 318 23 4 c12 3 63 12 112 21 280 50 618 170 895 317 126 67 365 213
376 229 3 6 8 9 10 6 2 -2 1 -410 -3 -906z"/>
<path d="M14489 10717 c-197 -67 -302 -280 -286 -577 10 -183 53 -297 146
-391 146 -146 406 -143 553 5 99 101 140 228 140 436 0 211 -41 336 -144 440
-105 104 -261 137 -409 87z"/>
<path d="M18214 10725 c-28 -8 -78 -25 -110 -38 l-59 -23 -3 -467 -2 -466 24
-16 c60 -40 131 -58 243 -63 94 -4 122 -1 181 17 217 66 323 262 308 571 -11
245 -83 380 -239 453 -100 47 -239 60 -343 32z"/>
<path d="M22767 10079 c-277 -26 -365 -58 -407 -144 -30 -62 -25 -146 13 -203
65 -100 267 -135 486 -86 35 8 79 22 97 30 l34 16 0 204 c0 188 -1 204 -17
203 -10 -1 -103 -10 -206 -20z"/>
</g>
</svg>
